<?xml version="1.0" encoding="utf-8"?>
<!-- Generator: Adobe Illustrator 27.0.0, SVG Export Plug-In . SVG Version: 6.00 Build 0)  -->
<svg version="1.1" id="Layer_1" xmlns="http://www.w3.org/2000/svg" xmlns:xlink="http://www.w3.org/1999/xlink" x="0px" y="0px"
	 viewBox="0 0 1920 600" style="enable-background:new 0 0 1920 600;" xml:space="preserve">
<style type="text/css">
	.st0{fill:#101010;}
	.st1{fill:#231F20;}
	.st2{fill:none;stroke:#EF3B39;stroke-width:3;stroke-miterlimit:10;}
	.st3{fill:#E9262B;}
	.st4{fill:#FFFFFF;}
	.st5{fill:#FFFFFF;stroke:#FFFFFF;stroke-miterlimit:10;}
</style>
<g>
	<rect class="st0" width="60" height="600"/>
	<rect x="60" class="st1" width="60" height="600"/>
	<rect x="120" class="st0" width="60" height="600"/>
	<rect x="180" class="st1" width="60" height="600"/>
	<rect x="240" class="st0" width="60" height="600"/>
	<rect x="300" class="st1" width="60" height="600"/>
	<rect x="360" class="st0" width="60" height="600"/>
	<rect x="420" class="st1" width="60" height="600"/>
	<rect x="480" class="st0" width="60" height="600"/>
	<rect x="540" class="st1" width="60" height="600"/>
	<rect x="600" class="st0" width="60" height="600"/>
	<rect x="660" class="st1" width="60" height="600"/>
	<rect x="720" class="st0" width="60" height="600"/>
	<rect x="780" class="st1" width="60" height="600"/>
	<rect x="840" class="st0" width="60" height="600"/>
	<rect x="900" class="st1" width="60" height="600"/>
	<rect x="960" class="st0" width="60" height="600"/>
	<rect x="1020" class="st1" width="60" height="600"/>
	<rect x="1080" class="st0" width="60" height="600"/>
	<rect x="1140" class="st1" width="60" height="600"/>
	<rect x="1200" class="st0" width="60" height="600"/>
	<rect x="1260" class="st1" width="60" height="600"/>
	<rect x="1320" class="st0" width="60" height="600"/>
	<rect x="1380" class="st1" width="60" height="600"/>
	<rect x="1440" class="st0" width="60" height="600"/>
	<rect x="1500" class="st1" width="60" height="600"/>
	<rect x="1560" class="st0" width="60" height="600"/>
	<rect x="1620" class="st1" width="60" height="600"/>
	<rect x="1680" class="st0" width="60" height="600"/>
	<rect x="1740" class="st1" width="60" height="600"/>
	<rect x="1800" class="st0" width="60" height="600"/>
	<rect x="1860" class="st1" width="60" height="600"/>
</g>
<rect x="16.7" y="15.4" class="st2" width="1886.7" height="569.2"/>
<g>
	<g>
		<path d="M540.3,355.3c0.2,10.4-3.2,19.5-10,27c-7.8,8.8-21.8,14.2-42,16.3c-1.5,0.2-3.8,0.4-6.7,0.6c-3,0.3-5.2,0.5-6.6,0.7
			c-22.9,2.4-36.7,3.4-41.1,2.9c-1.8-0.2-2.7-1-2.7-2.4c0-6.2,0.3-15.7,1-28.4c0.7-12.6,1-22.1,1-28.3c0-6.7-0.5-19.2-1.4-37.5
			c-0.2-4.7-0.6-11.7-1.2-21l-0.1-1.2c-0.1-1.1,0.9-1.8,2.9-2.2c2-0.4,9.2-1.1,21.5-2.1c19.6-1.6,31-2.4,34.3-2.6
			c14.9-0.7,26,0.7,33.1,4.1c9.4,4.6,14.2,13.2,14.4,25.9c0,3.3-1,6.9-3.1,10.9c-1.5,2.8-3.5,5.6-6,8.5c-2.2,2.5-3.3,3.7-3.3,3.5
			c0,0.4,0.8,0.9,2.4,1.7c4.3,1.9,7.6,5.2,10.1,9.9C539.1,345.7,540.3,350.3,540.3,355.3z M500.7,311c-0.1-4.9-2.7-7.9-8-9
			c-2.9-0.6-7.8-0.6-14.5,0c-6.6,0.6-9.9,1.3-9.9,2.2c0,1.1-0.1,2.7-0.3,4.9c-0.2,2.2-0.3,3.9-0.3,4.9c0.1,5.7,0.6,8.9,1.7,9.5
			c0.7,0.5,4.6,0.4,11.7-0.3C494.2,322,500.8,317.9,500.7,311z M504,358.4c-0.1-5.1-2.4-8.4-7-9.8c-2.9-0.9-7.7-1-14.4-0.4
			c-7.9,0.7-12.2,1.4-12.9,2c-0.7,0.6-1,4.2-0.9,10.6c0.1,6.8,0.5,10.5,1.3,11.1c0.8,0.6,5.3,0.6,13.3-0.2c6.6-0.7,11.3-1.6,14-2.8
			C501.8,366.9,504,363.4,504,358.4z"/>
		<path class="st3" d="M488.3,399.4c-1.5,0.2-3.8,0.4-6.7,0.6l-6.6,0.7c-23.2,2.4-36.8,3.4-41.3,2.9c-3-0.3-3.5-2.1-3.5-3.2
			c0-6.2,0.3-15.8,1-28.4c0.7-12.6,1-22.1,1-28.3c0-6.6-0.5-19.3-1.4-37.5c-0.2-4.6-0.6-11.5-1.2-21l-0.1-1.2
			c-0.1-1.1,0.5-2.5,3.7-3.2c2.1-0.4,9.2-1.1,21.6-2.1c19.5-1.6,31-2.4,34.3-2.6c15-0.7,26.3,0.7,33.5,4.2
			c9.6,4.7,14.6,13.6,14.8,26.6c0.1,3.4-1,7.2-3.2,11.3c-1.6,2.8-3.6,5.8-6.1,8.7c-1.4,1.6-2.2,2.5-2.8,3.1c0.3,0.2,0.8,0.5,1.6,0.8
			c4.4,1.9,7.9,5.4,10.5,10.2c2.3,4.3,3.5,9.1,3.5,14.1c0.2,10.6-3.3,19.9-10.3,27.6C523,391.7,508.7,397.3,488.3,399.4z
			 M455.1,280.5c-12.2,1-19.4,1.7-21.4,2.1c-1.5,0.3-2.2,0.7-2.1,1.3l0.1,1.2c0.6,9.5,0.9,16.4,1.2,21.1c0.9,18.2,1.3,30.9,1.4,37.5
			c0,6.2-0.3,15.7-1,28.3c-0.7,12.6-1,22.1-1,28.3c0,0.7,0.2,1.5,2,1.7c4.3,0.4,18.1-0.6,40.9-2.9l6.6-0.7c2.9-0.2,5.1-0.4,6.7-0.6
			c19.8-2,33.7-7.4,41.3-15.9c6.7-7.4,10-16.3,9.8-26.5c-0.1-4.8-1.2-9.4-3.4-13.5c-2.4-4.5-5.7-7.7-9.7-9.5
			c-1.5-0.6-2.3-1.2-2.6-1.7l-0.2-0.1l0-0.6c0,0,0,0,0,0l0.9-0.1l-0.4-0.7c0.1-0.1,0.6-0.5,3.1-3.4c2.4-2.8,4.4-5.6,5.9-8.4
			c2-3.8,3-7.3,3-10.4c-0.2-12.3-4.9-20.8-13.9-25.2c-6.9-3.3-17.9-4.7-32.6-4C486.1,278.1,474.6,278.9,455.1,280.5z M483.4,372.7
			c-11,1.1-13.2,0.7-14,0.1c-0.8-0.6-1.5-2.5-1.6-11.7c-0.1-9.3,0.6-10.7,1.2-11.3c0.6-0.6,2.2-1.2,13.5-2.3
			c6.8-0.6,11.6-0.5,14.7,0.4c4.9,1.5,7.5,5,7.5,10.5c0.1,5.3-2.3,9.2-7.1,11.4C494.9,371.1,490.2,372,483.4,372.7z M482.6,349.1
			c-10.4,1-12.1,1.6-12.4,1.8c-0.1,0.2-0.7,1.6-0.6,10c0.1,8.9,0.8,10.4,1,10.6c0.3,0.2,2,0.6,12.7-0.4c6.5-0.6,11.1-1.6,13.7-2.7
			c4.1-1.9,6.1-5.1,6-9.8c-0.1-4.8-2.2-7.8-6.4-9.1C493.8,348.6,489.1,348.5,482.6,349.1z M481.1,324c-11,1-11.8,0.4-12.3,0.1
			c-0.9-0.5-1.9-2.1-2-10.1c0-1.1,0.1-2.8,0.3-5c0.2-2.2,0.3-3.8,0.3-4.9c0-1.4,1.8-2.4,10.8-3.1c6.9-0.6,11.7-0.6,14.8,0.1
			c5.6,1.2,8.5,4.5,8.6,9.8C501.6,318.4,494.8,322.8,481.1,324z M469.2,304.2c0,1.1-0.1,2.7-0.3,4.8c-0.2,2.2-0.3,3.8-0.3,4.9
			c0.1,7.7,1.1,8.7,1.3,8.8c0.3,0.1,1.9,0.5,11.2-0.4c12.7-1.1,18.8-4.8,18.7-11.3c-0.1-4.5-2.5-7.2-7.3-8.3
			c-2.8-0.6-7.6-0.6-14.2,0C471.3,303.3,469.6,304,469.2,304.2z"/>
	</g>
	<g>
		<path d="M633.9,383.9c-5,0.5-11.6,1.1-19.6,1.7c-10.6,0.9-17.2,1.4-19.8,1.6l-26.7,2.4c-2.7,0.3-6.5,0.6-11.6,0.9
			c-1.7-0.1-2.6-0.9-2.7-2.4c-0.1-6.2-0.1-15.5-0.1-27.8c0-12.3,0-21.5-0.1-27.7c-0.1-6.5-0.5-16.3-1.1-29.3
			c-0.6-12.9-1-22.6-1.1-29.1c0-1.2,0.9-1.9,2.6-2.1c1.8-0.1,4.4-0.3,8-0.4c3.5-0.1,6.1-0.2,7.9-0.4c1.9-0.2,4.8-0.5,8.7-1
			c3.8-0.5,6.7-0.8,8.6-1c0.9-0.1,1.3,0.4,1.3,1.5l-0.1,1.1c-0.5,10.5-1,26.3-1.5,47.4l0.3,22.2c0.1,7.2,0.3,12.4,0.4,15.7
			c0.1,0.7,0.1,1.3,0.2,2c0.1,0.7,0.5,1,1.4,1.1c0.1,0,0.8-0.1,2.3-0.2c5.3-0.5,13.2-1.6,23.7-3.1c10.5-1.6,18.3-2.6,23.5-3.1
			c1.6-0.2,2.4,0.4,2.4,1.7c0.2,9.5-0.3,17.8-1.6,24.9c-0.3,1.5-0.8,2.4-1.8,2.8C637.2,383.6,636,383.7,633.9,383.9z"/>
		<path class="st3" d="M633.9,384.8c-5,0.5-11.6,1.1-19.7,1.7l-19.8,1.6l-26.7,2.4c-2.7,0.3-6.6,0.6-11.6,0.9
			c-2.3-0.1-3.5-1.2-3.5-3.1c-0.1-6.2-0.1-15.6-0.1-27.8c0-12.5,0-21.6-0.1-27.7c-0.1-6.5-0.5-16.3-1.1-29.2
			c-0.6-12.9-1-22.7-1.1-29.1c0-0.8,0.3-2.7,3.5-2.9c1.8-0.1,4.5-0.3,8-0.4c3.5-0.1,6.1-0.2,7.8-0.4c2-0.2,4.9-0.5,8.6-1
			c3.8-0.5,6.7-0.8,8.7-1c0.8-0.1,1.3,0.2,1.5,0.4c0.4,0.4,0.6,1,0.6,1.8L589,272c-0.5,10.4-1,26.3-1.5,47.3l0.3,22.1
			c0.1,7.3,0.3,12.4,0.4,15.7l0.2,2c0,0.2,0,0.4,0.6,0.5l2.2-0.2c5.3-0.5,13.3-1.6,23.7-3.1c10.4-1.6,18.3-2.6,23.6-3.1
			c2-0.2,3.2,0.7,3.3,2.4c0.2,9.5-0.3,18-1.6,25.1c-0.3,1.8-1.1,3-2.3,3.5C637.5,384.3,637,384.5,633.9,384.8z M567.8,388.9L600,386
			l14.2-1.2c8-0.6,14.6-1.2,19.6-1.7c2.6-0.3,3.2-0.4,3.3-0.5c0.6-0.3,1-1,1.2-2.1c1.3-7,1.8-15.3,1.6-24.8c0-0.6-0.1-1.1-1.5-1
			c-5.2,0.5-13.1,1.6-23.5,3.1c-10.5,1.6-18.5,2.6-23.8,3.1l-2.5,0.2c-1.6-0.2-2-1.2-2-1.8l-0.2-2c-0.1-3.3-0.3-8.5-0.4-15.8
			l-0.3-22.2c0.5-21.1,1-37,1.5-47.4l0.1-1.1c0-0.4-0.1-0.6-0.1-0.6c0,0-0.1,0-0.3,0c-1.9,0.2-4.8,0.5-8.6,1c-3.8,0.5-6.7,0.8-8.7,1
			c-1.7,0.1-4.4,0.3-7.9,0.4c-3.5,0.1-6.2,0.2-7.9,0.4c-1.8,0.1-1.8,0.8-1.8,1.2c0.1,6.5,0.5,16.2,1.1,29.1
			c0.6,12.9,1,22.8,1.1,29.3c0.1,6.1,0.1,15.2,0.1,27.7c0,12.2,0,21.6,0.1,27.8c0,0.8,0.2,1.5,1.9,1.6
			C561.2,389.5,565.1,389.2,567.8,388.9z"/>
	</g>
	<g>
		<path d="M763.2,367.1c0,1-0.6,1.7-2,2.3c-1.6,0.6-6.8,1.4-15.5,2.3c-8,0.8-13.1,1.1-15.4,0.9c-1.9-0.2-3.2-1.3-3.7-3.3
			c-2.1-7.7-3.8-11.8-4.8-12.2c-0.9-0.3-8.5,0.3-22.7,1.7c-9.7,1-14.8,1.7-15.4,2.3c-0.9,1-2,4.1-3,9.2c-1,4.7-2.2,7.3-3.8,7.9
			c-1.9,0.6-8.5,1.5-19.6,2.7c-8.8,0.9-13.3,0.6-13.3-1.1c0-1.5,6.1-19.9,18.3-55.1c13.1-37.7,20.1-58.2,21.2-61.9
			c0.6-2.1,1.4-3.2,2.3-3.3c1.5-0.1,3.9-0.2,7.1-0.2c3.2,0,5.6,0,7.1-0.2c1.5-0.1,3.7-0.4,6.7-0.8c2.9-0.4,5.1-0.7,6.6-0.8
			c1.1-0.1,2.1,0.7,3,2.4c2.9,5.5,11.5,24.2,25.7,56.4C756,348.7,763.2,365.6,763.2,367.1z M701.6,298.3c-1.1,2.5-3,7.9-5.6,16.2
			c-2.8,8.8-4.2,14-4.2,15.5c0,1,1.7,1.4,5.1,1.2c1.8-0.1,4.6-0.3,8.6-0.7c3.7-0.4,5.8-1,6.1-1.9c0.1-0.3,0.1-0.7,0.1-1.2
			c-0.1-1.8-1.5-6.7-4.3-14.6C704.8,305.2,702.8,300.4,701.6,298.3z"/>
		<path class="st3" d="M745.8,372.4c-8.1,0.8-13.2,1.1-15.6,0.9c-2.3-0.2-3.7-1.5-4.4-3.9c-2.9-10.3-4.1-11.6-4.4-11.7
			c-0.5-0.1-4.1-0.1-22.3,1.8c-12.4,1.2-14.6,1.9-15,2.1c-0.4,0.4-1.3,2.2-2.7,8.7c-1.1,5.2-2.4,7.9-4.3,8.6
			c-2,0.7-8.5,1.6-19.9,2.7c-12.4,1.3-14.2-0.1-14.2-1.8c0-0.6-0.1-2.3,18.3-55.4c13-37.5,20.1-58.2,21.2-61.8
			c0.3-0.9,1.1-3.7,3.1-3.9c1.6-0.1,3.9-0.2,7.1-0.2c3.1,0,5.5,0,7.1-0.2c1.5-0.1,3.7-0.4,6.6-0.8c2.9-0.4,5.2-0.7,6.6-0.8
			c1.4-0.1,2.6,0.8,3.8,2.8c2.9,5.5,11.5,24.5,25.7,56.5c19,43.2,21.5,49.9,21.5,51c0,0.9-0.4,2.3-2.6,3.1
			C759.7,370.8,754.6,371.5,745.8,372.4z M699,357.9c21.5-2.1,22.6-1.8,23-1.7c1,0.4,2.4,2.2,5.3,12.7c0.5,1.8,1.5,2.6,3.1,2.8
			c2.2,0.2,7.4-0.1,15.3-0.9c10.7-1.1,14.2-1.8,15.3-2.2c1.4-0.6,1.4-1.2,1.4-1.4c-0.1-1.1-3.9-10.8-21.4-50.5
			c-14.1-32-22.7-50.9-25.6-56.4c-0.5-1-1.4-2.1-2.3-2c-1.4,0.1-3.6,0.4-6.5,0.8c-2.9,0.4-5.2,0.7-6.7,0.8c-1.6,0.1-4,0.2-7.2,0.2
			c-3.2,0-5.5,0-7,0.2c-0.1,0-0.8,0.1-1.5,2.7c-1.1,3.7-8.2,24.4-21.2,61.9c-15,43.2-18.2,53.7-18.2,54.8c0,0,0.2,1.6,12.5,0.3
			c11-1.1,17.6-2,19.5-2.7c0.5-0.2,1.9-1.3,3.1-7.2c1.5-7.2,2.6-8.9,3.3-9.6C683.5,360,684.2,359.4,699,357.9z M705.7,331.3
			c-4,0.4-6.9,0.6-8.7,0.7c-2.7,0.2-5.9,0.1-5.9-1.9c0-1,0.4-3.7,4.2-15.7c2.6-8.3,4.5-13.7,5.6-16.3l0.7-1.5l0.8,1.3
			c1.3,2.1,3.3,6.9,6.1,14.7c2.9,8,4.3,12.9,4.4,14.8c0,0.6,0,1.1-0.2,1.5C712,330.1,709.9,330.9,705.7,331.3z M701.7,300.2
			c-1.1,2.9-2.8,7.7-4.9,14.4c-3.5,10.8-4.2,14.3-4.1,15.2c0,0,0.4,0.7,4.3,0.4c1.8-0.1,4.6-0.3,8.6-0.6c5-0.5,5.4-1.3,5.4-1.3
			c0-0.1,0.1-0.3,0.1-0.8c0-1.2-0.8-4.6-4.3-14.3C704.6,307.1,702.9,302.7,701.7,300.2z"/>
	</g>
	<g>
		<path d="M865.8,340.4c0,0.9-0.5,2-1.5,3.5c-9.3,12.7-22.2,19.9-38.6,21.6c-16.9,1.8-30.9-2.6-41.9-13
			c-10.8-10.1-16.4-23.7-17-40.7c-0.5-16.4,4.1-30.7,13.8-42.9c10.1-12.7,23.1-19.7,39.2-21c17.3-1.4,31,2.8,41.1,12.4
			c1.1,1.1,1.7,2,1.7,2.9c0,1-1.6,4.9-5.1,11.6c-3.4,6.8-5.6,10.6-6.5,11.5c-0.4,0.5-0.9,0.7-1.6,0.8c-0.3,0-1.6-0.9-4.1-2.8
			c-3-2.3-5.9-4-8.7-5.2c-4.3-1.8-8.7-2.4-13.3-2c-7.9,0.7-14.1,4.2-18.7,10.4c-4.2,5.8-6.1,12.8-5.9,20.8
			c0.3,8.2,2.7,14.8,7.3,19.9c5,5.6,11.5,7.9,19.4,7.2c4.7-0.5,9.1-1.9,13.2-4.3c2.7-1.6,5.4-3.7,8.1-6.4c2.3-2.2,3.5-3.4,3.8-3.4
			c0.5-0.1,1.1,0.2,1.6,0.7c0.9,0.9,3.3,4,7.3,9.3C863.7,336.8,865.8,339.9,865.8,340.4z"/>
		<path class="st3" d="M825.7,366.3c-17.1,1.8-31.4-2.7-42.5-13.2c-10.9-10.2-16.7-24.1-17.2-41.2c-0.5-16.5,4.2-31.1,14-43.4
			c10.2-12.8,23.6-20,39.7-21.3c17.4-1.4,31.4,2.9,41.7,12.6c1.3,1.2,1.9,2.3,1.9,3.4c0,0.8-0.5,2.9-5.1,12
			c-4.7,9.2-6,11.1-6.7,11.7c-0.5,0.6-1.2,0.9-2.1,1c-0.4,0-0.7,0.1-4.6-3c-2.9-2.2-5.8-4-8.5-5.1c-4.2-1.7-8.5-2.4-12.9-2
			c-7.6,0.7-13.7,4-18,10.1c-4.1,5.7-6,12.5-5.7,20.3c0.3,7.9,2.7,14.5,7.1,19.4c4.8,5.3,11.1,7.7,18.7,6.9
			c4.5-0.4,8.9-1.9,12.8-4.2c2.6-1.6,5.3-3.7,8-6.3c3.6-3.6,3.9-3.6,4.3-3.6c0.8-0.1,1.5,0.2,2.2,0.9c0.9,0.9,3.4,4,7.4,9.4
			c6.3,8.5,6.3,9.1,6.4,9.6c0,1-0.5,2.4-1.7,4C855.5,357.2,842.3,364.6,825.7,366.3z M819.8,248.8c-15.7,1.3-28.7,8.2-38.6,20.6
			c-9.5,12-14.1,26.3-13.6,42.4c0.6,16.7,6.2,30.2,16.8,40.2c10.8,10.3,24.7,14.6,41.3,12.8c16.1-1.7,28.9-8.8,38-21.2
			c1.1-1.6,1.4-2.5,1.4-3c-0.1-0.4-0.9-1.9-6.1-8.8c-4-5.3-6.4-8.4-7.3-9.2c-0.2-0.2-0.6-0.5-0.9-0.5c-0.2,0.2-1,0.8-3.4,3.2
			c-2.8,2.7-5.6,4.9-8.3,6.5c-4.2,2.5-8.7,4-13.5,4.5c-8.1,0.8-14.9-1.7-20-7.4c-4.7-5.2-7.2-12.1-7.5-20.4
			c-0.3-8.2,1.7-15.4,6-21.3c4.7-6.5,11.2-10.1,19.3-10.8c4.7-0.4,9.2,0.3,13.6,2.1c2.9,1.2,5.9,3,8.9,5.3c2.6,2,3.5,2.5,3.7,2.7
			c0.4-0.1,0.7-0.2,0.9-0.5c0.6-0.6,2.2-3,6.4-11.3c4.5-9,5-10.8,5-11.2c0-0.7-0.5-1.5-1.5-2.4C850.4,251.5,836.8,247.4,819.8,248.8
			z"/>
	</g>
	<g>
		<path d="M970.8,343.3c0.1,2.2-0.8,3.8-2.6,4.7c-1.5,0.7-5.5,1.4-12.1,2c-6.3,0.7-10.9,0.9-13.9,0.6c-1.4-0.1-2.3-0.3-2.8-0.5
			c-0.5-0.2-1-0.9-1.8-2.1c-4.1-6.7-8.2-13.3-12.2-20c-6.7-10.7-10.6-16.6-11.9-17.7c-5.5,2.6-8.3,4.3-8.2,5.2
			c0.2,3.9,0.6,9.9,1.3,17.8c0.7,8,1.1,14,1.3,18c0.1,1.6-0.6,2.6-2,3c-2.7,0.7-7.6,1.4-14.8,2.2c-6.8,0.7-11.4,1-13.6,0.8
			c-1.5-0.2-2.3-0.9-2.4-2.2c-0.2-5.7-0.3-14.4-0.3-26.1c0.1-11.6,0-20.3-0.3-26c-0.3-6.1-0.9-15.3-1.9-27.5
			c-1-12.2-1.7-21.3-1.9-27.3c0-1.1,0.5-1.8,1.6-1.9c1.6-0.1,4.1-0.2,7.4-0.4c3.3-0.1,5.7-0.2,7.3-0.4c1.7-0.1,4.1-0.4,7.4-0.8
			c3.3-0.4,5.7-0.7,7.3-0.8c0.9-0.1,1.3,0.4,1.4,1.3c0.2,3.8,0.2,9.7,0.2,17.5c0,7.8,0,13.7,0.2,17.6c0.2,4.5,1.5,6.6,4,6.4
			c6.2-0.6,10.9-2.7,14.1-6.4c2.4-2.7,4.8-7.5,7-14.3c1.4-5.2,3.8-12.8,7-22.9c0.5-1.3,1.6-2.1,3.4-2.2c1.3-0.1,3.3-0.2,6-0.3
			c2.7-0.1,4.7-0.1,6-0.3c1.4-0.1,3.4-0.3,6.1-0.6c2.7-0.3,4.7-0.5,6-0.6c1.2-0.1,1.8,0.4,1.9,1.6c0.1,1.7-0.8,5.9-2.6,12.7
			c-5.3,20-12,32.9-20,38.5c-1.6,1.1-2.5,2-2.4,2.7c0-0.1,5.1,7.3,15.3,22.1C965.5,331.5,970.6,340.4,970.8,343.3z"/>
		<path class="st3" d="M956.1,350.8c-6.3,0.7-11,0.9-14,0.6c-1.5-0.1-2.5-0.3-3.1-0.6c-0.6-0.3-1.2-1-2-2.3
			c-4.1-6.7-8.2-13.3-12.2-20c-7.4-11.8-10.3-16-11.4-17.2c-6.5,3.1-7.2,4.1-7.3,4.3c0.2,3.8,0.6,9.8,1.3,17.7
			c0.7,7.9,1.1,14,1.3,18c0.1,2-0.8,3.4-2.6,3.8c-2.7,0.7-7.7,1.4-14.9,2.2c-6.9,0.7-11.5,1-13.8,0.8c-2.6-0.3-3-2-3.1-2.9
			c-0.2-5.7-0.3-14.5-0.3-26.1c0.1-11.5,0-20.3-0.3-26c-0.3-6.1-0.9-15.3-1.9-27.4c-1-12.1-1.7-21.3-1.9-27.4
			c-0.1-1.6,0.8-2.6,2.3-2.7c1.6-0.1,4.1-0.3,7.4-0.4c3.2-0.1,5.7-0.2,7.3-0.4c1.7-0.1,4.1-0.4,7.4-0.8c3.3-0.4,5.7-0.7,7.3-0.8
			c1.3-0.1,2.1,0.6,2.2,2c0.2,3.8,0.2,9.7,0.2,17.5c0,7.8,0,13.7,0.2,17.5c0.3,6,2.5,5.8,3.2,5.7c5.9-0.5,10.5-2.6,13.6-6.1
			c2.3-2.6,4.6-7.4,6.9-14c1.4-5.1,3.8-12.8,7-22.9c0.4-1.2,1.5-2.5,4-2.8c1.3-0.1,3.3-0.2,6.1-0.3c2.6-0.1,4.6-0.1,6-0.2
			c1.4-0.1,3.4-0.3,6.1-0.6c2.8-0.3,4.8-0.5,6.1-0.6c1.6-0.1,2.6,0.7,2.7,2.3c0.1,1.8-0.8,6-2.6,12.9c-5.4,20.1-12.2,33.2-20.3,39
			c-1.6,1.1-2,1.7-2.1,1.9c0.6,0.7,1.6,2.2,3.7,5.2c2.5,3.7,6.4,9.2,11.4,16.6c10.3,15,15.4,23.8,15.6,27c0.1,2.6-0.9,4.4-3.1,5.4
			C966.8,349.4,962.8,350.1,956.1,350.8z M913.7,309.5l0.4,0.3c1.3,1.1,5.3,6.9,12,17.8c4.1,6.7,8.1,13.3,12.2,20
			c0.9,1.4,1.3,1.7,1.5,1.8c0.2,0.1,0.8,0.3,2.5,0.5c2.9,0.2,7.5,0,13.8-0.6c8-0.8,10.9-1.5,11.8-2c1.5-0.7,2.2-2,2.1-3.9
			c-0.1-1.9-2.8-8-15.3-26.2c-10.3-15-14-20.2-14.9-21.6l-0.4,0.2l0-1c0-1,0.8-2,2.8-3.3c7.8-5.5,14.4-18.3,19.7-38.1
			c1.8-6.6,2.6-10.8,2.5-12.4c0-0.7-0.2-1-1.1-0.9c-1.3,0.1-3.2,0.3-6,0.6c-2.7,0.3-4.7,0.5-6.1,0.7c-1.3,0.1-3.4,0.2-6,0.3
			c-2.7,0.1-4.7,0.1-6,0.3c-1.9,0.2-2.4,1-2.7,1.7c-3.3,10-5.6,17.7-7,22.8c-2.3,6.9-4.7,11.8-7.2,14.6c-3.4,3.8-8.3,6.1-14.6,6.6
			c-2.9,0.3-4.5-2.1-4.8-7.1c-0.2-3.9-0.2-9.8-0.2-17.6c0-7.8,0-13.7-0.2-17.5c0-0.6-0.2-0.6-0.6-0.6c-1.6,0.1-4,0.4-7.3,0.8
			c-3.3,0.4-5.8,0.7-7.4,0.8c-1.6,0.1-4.1,0.3-7.4,0.4c-3.3,0.1-5.7,0.2-7.3,0.4c-0.6,0-0.9,0.2-0.8,1c0.3,6,0.9,15.2,1.9,27.3
			c1,12.1,1.7,21.4,1.9,27.5c0.2,5.8,0.3,14.5,0.3,26.1c-0.1,11.6,0,20.3,0.3,26c0,0.7,0.3,1.4,1.8,1.5c2.2,0.2,6.7-0.1,13.5-0.8
			c7.1-0.7,12-1.4,14.6-2.1c0.7-0.2,1.4-0.6,1.4-2.2c-0.2-4-0.6-10-1.3-17.9c-0.7-7.9-1.1-13.9-1.3-17.9c0-1,0.6-2.2,8.7-6
			L913.7,309.5z"/>
	</g>
	<g>
		<path class="st4" d="M1089.6,253.4c0,0.6-0.4,0.9-1.4,1c-3.6,0.3-9.1,0.5-16.5,0.4c-7.4,0-13,0.1-16.7,0.4
			c-4.7,0.4-7.4,0.8-8.2,1.2c-1.8,1-2.5,3.5-2.3,7.5c0.3,4.8,1.6,7.5,4,7.9c1,0.2,2.5,0.2,4.5,0c3.4-0.3,8.4-0.9,15.1-1.9
			c6.6-1,11.6-1.6,15-1.9c1.6-0.1,2.6,4.2,3.2,13.1c0.5,7.7,0.5,12.2,0,13.6c-0.3,0.9-0.9,1.5-1.9,1.6c0.6-0.1-0.9-0.1-4.6-0.1
			c-5.2,0-13.1,0.5-23.7,1.5c-3.4,0.3-5.4,0.5-5.8,0.6c-2.5,0.6-3.7,1.9-3.6,3.6c0.4,7.2,1.2,15.6,2.3,25c1,8.5,1.4,12.3,1.4,11.4
			c0.1,1.3-1.4,2.3-4.5,2.8c0.8-0.1-1.4,0.1-6.6,0.6c-9.3,1-15.3,1.2-18,0.9c-1.5-0.2-2.2-0.9-2.3-2.2c-0.3-5.7-0.6-14.3-0.8-25.8
			c-0.2-11.5-0.5-20-0.8-25.7c-0.4-6.8-1.1-15.2-2.3-25.4c-1.7-15.7-2.7-24.1-2.8-25.2l-0.1-0.9c-0.1-1.3,0.6-2,2.1-2.1
			c3.7-0.3,9.2-0.7,16.5-1.1c7.3-0.4,12.8-0.8,16.5-1.1c3.9-0.3,9.7-1.1,17.5-2.3c7.7-1.2,13.5-2,17.4-2.3c2.4-0.2,3.8,0.7,4.2,2.7
			c0.1,2.1,0.4,5.4,0.9,9.7c0.2,1.1,0.6,3.2,1.3,6.3C1089.1,249.8,1089.5,251.9,1089.6,253.4z"/>
		<path class="st3" d="M1045.8,341.8L1045.8,341.8c-0.3,0-1.6,0.1-6.6,0.6c-9.4,1-15.4,1.3-18.2,0.9c-2.3-0.3-2.8-1.7-2.9-2.9
			c-0.3-5.7-0.6-14.4-0.8-25.9c-0.2-11.4-0.5-20.1-0.8-25.7c-0.4-6.7-1.1-15.2-2.2-25.3c-1.8-16.6-2.7-24.1-2.8-25.2l-0.1-0.9
			c-0.1-0.8,0.1-1.4,0.5-1.9c0.5-0.6,1.2-0.9,2.3-1c3.6-0.3,9.2-0.7,16.6-1.1c7.3-0.4,12.8-0.8,16.5-1.1c3.9-0.3,9.7-1.1,17.4-2.3
			c7.7-1.2,13.6-2,17.4-2.3c3.5-0.3,4.6,1.7,5,3.3c0.1,2.2,0.4,5.5,0.9,9.7c0.2,1,0.6,3.1,1.3,6.2c0.7,2.8,1,4.9,1.1,6.5
			c0,0.5-0.1,1.6-2.1,1.7c-3.6,0.3-9.2,0.5-16.6,0.4c-7.4,0-13,0.1-16.6,0.4c-6,0.5-7.5,0.9-7.9,1.1c-1.5,0.9-2.1,3.1-1.9,6.8
			c0.2,4.4,1.4,6.9,3.4,7.2c0.9,0.2,2.4,0.1,4.3,0c3.3-0.3,8.4-0.9,15-1.9c6.6-1,11.7-1.6,15-1.9c1.5-0.1,3.2,1.4,3.9,13.8
			c0.6,10.5,0.3,12.9,0,13.9c-0.3,0.9-0.9,1.6-1.7,1.9l0,0.1l-0.7,0.1c0,0-0.1,0-0.1,0l0-0.2l0,0.2c-0.1,0-0.9,0-4.6-0.1
			c-5.2,0-13.1,0.5-23.6,1.5c-4.4,0.4-5.5,0.6-5.7,0.6c-2.8,0.7-3,2-3,2.8c0.4,7.2,1.2,15.6,2.3,24.9c1.1,9.4,1.3,11.2,1.4,11.4
			l-0.1,0l0.1,0l0,0.7l-0.1,0C1050.3,341.1,1047,341.6,1045.8,341.8C1045.8,341.8,1045.8,341.8,1045.8,341.8z M1045.6,340.4
			c-0.2,0.1-0.4,0.4-0.4,0.8l0.5-0.1L1045.6,340.4C1045.6,340.4,1045.6,340.4,1045.6,340.4L1045.6,340.4
			C1045.6,340.3,1045.6,340.3,1045.6,340.4L1045.6,340.4c2.6-0.5,4-1.2,3.9-2l0.1,0c-0.3-1.2-0.6-4.2-1.4-11.3
			c-1.1-9.4-1.9-17.8-2.3-25c-0.1-1.5,0.6-3.5,4.1-4.4c0.2,0,0.7-0.2,5.9-0.6c10.6-1,18.5-1.5,23.8-1.5c2.6,0,3.9,0,4.6,0.1
			c0.6-0.1,1-0.4,1.2-1c0.3-0.9,0.5-3.8,0-13.3c-0.7-12.4-2.4-12.4-2.4-12.4c-3.3,0.3-8.3,0.9-14.9,1.9c-6.6,1-11.7,1.6-15.1,1.9
			c-2.1,0.2-3.6,0.2-4.7,0c-2.7-0.5-4.3-3.4-4.6-8.6c-0.2-4.4,0.6-7.1,2.7-8.2c0.6-0.3,2-0.8,8.5-1.3c3.7-0.3,9.3-0.5,16.8-0.4
			c7.3,0,12.9-0.1,16.5-0.4c0.5,0,0.7-0.1,0.7-0.2c-0.1-1.4-0.5-3.5-1.1-6.2c-0.7-3.1-1.2-5.3-1.3-6.4c-0.4-4.3-0.7-7.6-0.9-9.7
			c-0.2-0.9-0.8-2.3-3.5-2.1c-3.8,0.3-9.6,1.1-17.3,2.3c-7.7,1.2-13.6,2-17.5,2.3c-3.7,0.3-9.2,0.7-16.5,1.1
			c-7.4,0.4-12.9,0.8-16.5,1.1c-0.6,0.1-1.1,0.2-1.3,0.5c-0.1,0.1-0.2,0.3-0.2,0.8l0.1,0.9c0.1,1.1,0.9,8.7,2.8,25.2
			c1.1,10.1,1.9,18.7,2.3,25.4c0.3,5.6,0.6,14.3,0.8,25.7c0.2,11.4,0.5,20.1,0.8,25.8c0,0.6,0.3,1.3,1.7,1.5
			c2.7,0.4,8.7,0.1,17.8-0.9C1042.8,340.6,1044.6,340.4,1045.6,340.4z"/>
	</g>
	<g>
		<path class="st4" d="M1187.4,324.6c0,0.3-0.4,0.6-1.3,0.9c-1.7,0.5-6.2,1.1-13.3,1.8c-6.1,0.6-10.3,0.9-12.5,0.8
			c-1,0-1.6-0.1-1.8-0.2c-0.3-0.1-0.7-0.6-1.1-1.4c-0.8-1.9-2.1-4.7-3.7-8.4c-2.2-4.8-5.5-11.9-10-21.3c-1-1.9-3-2.8-6.1-2.7
			c1.4,0-1,0.2-7.3,0.8c-0.7,0.1-1,1.4-0.8,3.9c0.2,3.4,0.8,8.5,1.8,15.2c1,6.7,1.6,11.8,1.8,15.2c0.1,0.9-0.1,1.4-0.5,1.6
			c-0.7,0.1-1.3,0.2-2,0.4c-2.8,0.5-7.2,1-13.1,1.7c-6.9,0.7-11,1-12.4,0.8c-1.4-0.2-2.2-0.9-2.2-2.1c-0.3-5.6-0.6-14-0.8-25.3
			c-0.2-11.2-0.4-19.6-0.8-25.2c-1.3-21.2-2.7-37.7-4.3-49.4l-0.1-1c-0.1-0.8,0.6-1.5,2.2-1.9c1.5-0.4,8.8-1.3,21.7-2.7
			c8.7-0.9,15.7-1.6,20.8-2c10.7-0.9,19.5,1,26.5,5.5c7.9,5.1,12.2,13,13,23.7c0.5,7.2-0.1,13-1.8,17.5c-1.7,4.5-5,9-10,13.5
			c-1,0.9-1.5,1.7-1.5,2.4c0,0,3.2,5.9,9.8,17.9C1184.1,316.7,1187.3,323.3,1187.4,324.6z M1153.7,260.6c-0.4-6-2.5-10.1-6.4-12.1
			c-3-1.5-7.6-2-13.9-1.5c-4.5,0.4-6.8,1.3-7,2.8c-0.2,1.7,0,6.6,0.5,14.7c0.1,1.1,0.2,2.8,0.4,5.1c0.2,2.2,0.3,3.9,0.4,5
			c0,0.2,0.8,0.4,2.3,0.5c2.9,0.2,6,0.1,9.1-0.2C1149.4,274.1,1154.2,269.3,1153.7,260.6z"/>
		<path class="st3" d="M1172.8,328.1c-6.1,0.6-10.4,0.9-12.6,0.8c-1.6-0.1-1.9-0.2-2.1-0.3c-0.4-0.1-0.8-0.7-1.3-1.7
			c-0.9-1.9-2.1-4.7-3.7-8.4c-2.1-4.8-5.5-11.9-10-21.2c-0.8-1.6-2.5-2.3-5.2-2.3c-0.9,0.2-3,0.4-7.6,0.9c0,0-0.3,0.5-0.2,3.1
			c0.2,3.4,0.8,8.5,1.8,15.1c1,6.7,1.6,11.9,1.9,15.3c0.1,1.5-0.5,2.1-1,2.3l-0.2,0.1l-2,0.4c-2.8,0.5-7.3,1.1-13.2,1.7
			c-7,0.7-11.1,1-12.5,0.8c-2.3-0.3-2.8-1.9-2.8-2.8c-0.3-5.5-0.6-14.1-0.8-25.3c-0.2-11.2-0.4-19.6-0.8-25.2
			c-1.3-21.1-2.7-37.7-4.3-49.4l-0.1-1c-0.1-0.9,0.3-2.1,2.7-2.7c1.6-0.4,8.7-1.3,21.8-2.7c8.9-0.9,15.7-1.6,20.8-2
			c10.8-0.9,19.8,1,26.9,5.6c8.1,5.2,12.6,13.3,13.3,24.3c0.5,7.3-0.1,13.3-1.8,17.8c-1.7,4.6-5.1,9.2-10.2,13.8
			c-0.8,0.7-1.2,1.3-1.2,1.7c0.4,0.6,1.1,1.9,2.4,4.2c1.6,3,4.1,7.4,7.3,13.4c8.7,16,9.9,19.2,10,20.2c0.1,1.1-1.3,1.5-1.9,1.7
			C1184.4,326.7,1180.1,327.3,1172.8,328.1z M1137.6,293.5c3.3-0.1,5.6,0.9,6.7,3c4.5,9.3,7.9,16.5,10.1,21.3
			c1.6,3.7,2.8,6.5,3.7,8.4c0.5,0.9,0.7,1,0.7,1c0.1,0,0.3,0.1,1.6,0.1c2.2,0.1,6.4-0.2,12.4-0.8c7.1-0.7,11.5-1.3,13.2-1.8
			c0.4-0.1,0.7-0.2,0.8-0.3c-0.2-1-1.9-5-9.8-19.4c-2.1-3.9-8.1-14.9-9.5-17.4l-0.3,0.1l-0.1-0.9c-0.1-1,0.5-1.9,1.7-3
			c4.9-4.4,8.2-8.9,9.8-13.2c1.6-4.3,2.2-10.1,1.7-17.2c-0.7-10.5-4.9-18.3-12.6-23.2c-6.9-4.4-15.6-6.2-26.1-5.4
			c-5.1,0.4-11.9,1.1-20.8,2c-12.8,1.3-20.1,2.2-21.6,2.6c-0.5,0.1-1.7,0.5-1.6,1.1l0.1,1c1.6,11.7,3.1,28.4,4.4,49.5
			c0.3,5.6,0.6,14.1,0.8,25.3c0.2,11.2,0.4,19.7,0.8,25.2c0,0.6,0.3,1.3,1.6,1.5c1.4,0.2,5.5-0.1,12.3-0.8
			c5.9-0.6,10.3-1.2,13.1-1.7l1.8-0.3c0.1-0.1,0.1-0.3,0.1-0.8c-0.2-3.4-0.8-8.5-1.8-15.2c-1-6.7-1.6-11.8-1.9-15.3
			c-0.1-2.1-0.1-4.6,1.5-4.7C1135.3,293.9,1137,293.7,1137.6,293.5L1137.6,293.5z M1139.1,275.7c-3.2,0.3-6.3,0.3-9.2,0.2
			c-2-0.1-2.9-0.4-3-1.2c-0.1-1.1-0.2-2.8-0.4-5c-0.2-2.2-0.3-3.9-0.4-5.1c-0.5-8.2-0.7-13-0.5-14.8c0.3-1.9,2.7-3,7.7-3.4
			c6.3-0.5,11.1,0,14.2,1.6c4.1,2.1,6.4,6.4,6.8,12.7C1154.9,269.6,1149.8,274.7,1139.1,275.7z M1128.3,274.2
			c0.2,0.1,0.7,0.2,1.7,0.2c2.9,0.2,5.9,0.1,9-0.2c9.9-0.9,14.5-5.3,14-13.6c-0.4-5.8-2.4-9.6-6.1-11.5c-2.9-1.5-7.4-2-13.5-1.4
			c-5.7,0.5-6.3,1.8-6.4,2.1c-0.2,1.6,0,6.5,0.5,14.5c0.1,1.1,0.2,2.8,0.4,5.1C1128.1,271.5,1128.2,273.1,1128.3,274.2z"/>
	</g>
	<g>
		<path class="st4" d="M1219.5,267.2c0.4,5.8,1.1,14.5,2.2,26.1c1.1,11.6,1.8,20.4,2.2,26.2c0.1,1-0.1,1.6-0.5,1.9
			c-0.1,0.1-0.7,0.2-1.8,0.5c-2.9,0.7-6.9,1.3-11.9,1.8c-6.7,0.7-11,0.9-12.9,0.7c-1.4-0.2-2.1-0.9-2.2-2.1c0.1,0.8,0-3.6-0.3-13.2
			c-0.5-20.1-1-33.3-1.4-39.5c-0.4-5.3-1.1-13.1-2.1-23.6c-1-10.5-1.7-18.3-2.1-23.5c-0.1-1.1,0.4-1.7,1.5-1.7
			c1.4-0.1,3.6-0.2,6.4-0.3c2.9-0.1,5-0.2,6.4-0.3c1.4-0.1,3.5-0.4,6.2-0.7c2.7-0.4,4.8-0.6,6.2-0.7c1.3-0.1,2,0.4,2.1,1.4
			c0.4,5.2,0.6,13,0.9,23.5C1218.9,254.1,1219.2,262,1219.5,267.2z"/>
		<path class="st3" d="M1209.9,324.4c-6.8,0.7-11.1,0.9-13,0.7c-1.7-0.2-2.4-1.1-2.6-2l-0.1,0l-0.1-0.8c0,0,0,0,0,0l0.1,0l-0.1,0
			c0-0.4-0.1-4.8-0.3-13.2c-0.5-20-1-33.3-1.4-39.5c-0.4-5.2-1.1-13.1-2.1-23.6c-1-10.4-1.7-18.3-2.1-23.6c-0.1-1.5,0.7-2.4,2.1-2.5
			c1.4-0.1,3.6-0.2,6.5-0.3c2.8-0.1,5-0.2,6.4-0.3c1.4-0.1,3.5-0.4,6.2-0.7c2.7-0.4,4.9-0.6,6.3-0.7c2.4-0.2,2.8,1.4,2.8,2.1
			c0.4,5.2,0.7,13.1,0.9,23.5c0.2,10.4,0.5,18.3,0.9,23.5c0.4,5.7,1.2,14.5,2.2,26c1.1,11.6,1.8,20.4,2.2,26.2
			c0.1,1.3-0.2,2.1-0.8,2.6c-0.1,0.1-0.3,0.2-2,0.6C1218.9,323.2,1214.9,323.9,1209.9,324.4z M1195.4,322.2c0,0.6,0.3,1.3,1.6,1.4
			c1.8,0.2,6.1,0,12.8-0.7c4.9-0.5,8.9-1.1,11.8-1.8c1.3-0.3,1.6-0.4,1.6-0.4c0,0,0.1-0.4,0.1-1.2c-0.4-5.8-1.2-14.6-2.2-26.2
			c-1.1-11.6-1.8-20.3-2.2-26.1c-0.4-5.2-0.7-13.2-0.9-23.6c-0.2-10.4-0.5-18.3-0.9-23.4c0-0.3-0.1-0.9-1.4-0.8
			c-1.4,0.1-3.5,0.4-6.2,0.7c-2.7,0.4-4.8,0.6-6.3,0.7c-1.4,0.1-3.6,0.2-6.5,0.3c-2.9,0.1-5,0.2-6.4,0.3c-0.8,0.1-0.9,0.4-0.9,1
			c0.4,5.2,1.1,13.1,2.1,23.5c1,10.5,1.7,18.4,2.1,23.6c0.4,6.3,0.9,19.5,1.4,39.6c0.1,4.4,0.2,7.7,0.2,9.9
			C1195.4,320.7,1195.5,321.6,1195.4,322.2L1195.4,322.2z"/>
	</g>
	<g>
		<path class="st4" d="M1320.5,260.1c1.1,14.1-2.1,26.7-9.5,37.9c-6.6,10.1-16.6,16.1-30,17.9c-2.6,0.4-9.7,1.1-21.4,2.4
			c-2.2,0.2-5.5,0.5-10,0.8c-4.5,0.3-7.8,0.6-10,0.8c-1.3,0.1-2-0.4-2.1-1.5c-0.4-5.4-0.8-13.5-1.2-24.4
			c-0.4-10.8-0.8-18.9-1.1-24.3c-0.4-5.6-1.2-14-2.4-25.1c-1.2-11.1-2-19.4-2.4-24.9c-0.1-1,0.5-1.7,1.8-2c3.2-0.6,8.4-1.3,15.7-1.8
			c13.7-1.1,22.6-1.6,26.7-1.5c10.6,0.3,18.9,2.5,25.2,6.6c5.8,3.8,10.7,9.5,14.4,16.9C1317.8,245,1319.9,252.4,1320.5,260.1z
			 M1295.4,262.5c-0.6-8.1-3.3-14.6-8.2-19.3c-4.9-4.9-11.1-7.1-18.5-6.5c-6.9,0.6-10.2,1.9-10.1,3.8c0.2,2.9,0.5,7.1,0.8,12.9
			c0.3,5.7,0.6,10.1,0.8,12.9c0.2,2.8,0.6,7,1.1,12.7c0.5,5.7,0.9,9.9,1.1,12.8c0.2,2.1,3.8,2.8,11,2.1c7.7-0.8,13.5-4.1,17.5-10.1
			C1294.5,278.1,1296,271,1295.4,262.5z"/>
		<path class="st3" d="M1259.6,319.1c-2.2,0.2-5.6,0.5-10,0.8c-4.4,0.3-7.8,0.6-10,0.8c-2.4,0.2-2.8-1.4-2.8-2.1
			c-0.4-5.4-0.8-13.6-1.2-24.4c-0.4-10.8-0.8-18.9-1.1-24.3c-0.4-5.6-1.2-14-2.4-25.1c-1.2-11-2-19.4-2.4-25
			c-0.1-0.8,0.2-2.2,2.4-2.7c3.2-0.7,8.5-1.3,15.7-1.9c13.7-1.1,22.7-1.6,26.7-1.5c10.6,0.3,19.2,2.6,25.5,6.7
			c5.9,3.9,10.8,9.7,14.7,17.2c3.6,7.1,5.8,14.6,6.4,22.4c1.1,14.2-2.1,27.1-9.7,38.4c-6.7,10.2-16.9,16.3-30.4,18.2
			C1278.4,317.1,1271.2,317.9,1259.6,319.1z M1248,216.7c-7.2,0.6-12.4,1.2-15.6,1.8c-1.4,0.3-1.3,0.9-1.3,1.2
			c0.4,5.5,1.2,13.9,2.4,24.9c1.2,11.1,2,19.6,2.4,25.1c0.4,5.3,0.8,13.5,1.2,24.3c0.4,10.8,0.8,19,1.2,24.4c0,0.4,0.1,1,1.4,0.8
			c2.2-0.2,5.6-0.5,10.1-0.8c4.4-0.3,7.8-0.6,10-0.8c11.6-1.2,18.8-2,21.4-2.4c13.1-1.8,23.1-7.8,29.6-17.6
			c7.3-11,10.5-23.6,9.4-37.5c-0.6-7.6-2.7-15-6.3-21.9c-3.7-7.3-8.5-12.9-14.2-16.7c-6.1-4-14.4-6.2-24.8-6.5
			C1270.6,215.1,1261.6,215.6,1248,216.7z M1273.3,294.6c-7.8,0.8-11.5-0.1-11.7-2.7c-0.2-2.9-0.6-7-1.1-12.8
			c-0.5-5.6-0.9-9.9-1.1-12.7c-0.2-2.9-0.5-7.2-0.8-12.9c-0.3-5.8-0.6-10-0.8-12.9c-0.2-2.5,3.2-4,10.7-4.6c7.6-0.6,14,1.6,19,6.6
			c4.9,4.8,7.8,11.5,8.4,19.8c0.7,8.7-0.9,16-4.7,21.8C1287.2,290.3,1281.2,293.9,1273.3,294.6z M1268.7,237.4
			c-8.9,0.8-9.5,2.6-9.5,3.1c0.2,2.9,0.5,7.1,0.8,12.9c0.3,5.7,0.6,10,0.8,12.9c0.2,2.8,0.6,7.1,1.1,12.7c0.5,5.7,0.9,9.9,1.1,12.8
			c0.1,0.7,1.2,2.3,10.3,1.4c7.5-0.7,13.2-4,17-9.8c3.6-5.5,5.1-12.5,4.5-20.9c-0.6-7.9-3.3-14.2-8-18.8
			C1282,238.9,1275.9,236.8,1268.7,237.4z"/>
	</g>
	<g>
		<path class="st4" d="M1419,299.7c0.1,0.8-0.4,1.5-1.4,1.9c-1.2,0.5-5.1,1.1-11.7,1.8c-6,0.6-9.9,0.8-11.7,0.6
			c-1.5-0.2-2.5-1.2-3-2.9c-2-6.7-3.4-10.2-4.3-10.6c-0.7-0.3-6.4,0.1-17.2,1.2c-7.3,0.7-11.2,1.3-11.6,1.8
			c-0.7,0.8-1.3,3.5-1.8,7.9c-0.5,4.1-1.3,6.3-2.5,6.8c-1.4,0.5-6.3,1.2-14.8,2.1c-6.7,0.7-10,0.3-10.2-1.1
			c-0.1-1.3,3.6-17.1,11.1-47.4c8-32.4,12.3-50.1,13-53.3c0.4-1.8,0.9-2.8,1.6-2.8c1.2-0.1,2.9-0.1,5.4-0.1c2.4,0,4.2,0,5.4-0.1
			c1.1-0.1,2.8-0.3,5-0.7c2.2-0.3,3.9-0.6,5-0.6c0.8-0.1,1.6,0.6,2.4,2.1c2.5,4.7,9.9,21.1,22.3,49.1
			C1412.6,283.7,1418.9,298.4,1419,299.7z M1368.6,239.5c-0.7,2.2-1.9,6.8-3.4,13.9c-1.7,7.6-2.5,12-2.4,13.3c0.1,0.9,1.4,1.2,4,1.1
			c1.3,0,3.5-0.2,6.5-0.5c2.8-0.3,4.3-0.8,4.6-1.6c0.1-0.2,0.1-0.6,0-1c-0.1-1.6-1.5-5.8-4-12.6
			C1371.5,245.6,1369.7,241.3,1368.6,239.5z"/>
		<path class="st3" d="M1405.9,304.1c-6.1,0.6-10,0.8-11.8,0.6c-1.7-0.2-2.9-1.4-3.5-3.4c-2.7-8.9-3.7-10.1-3.9-10.2
			c-0.4-0.1-3.1-0.1-16.9,1.3c-9.3,0.9-11,1.5-11.2,1.6c-0.3,0.3-0.9,1.9-1.6,7.5c-0.5,4.4-1.5,6.8-2.9,7.3
			c-1.5,0.6-6.4,1.3-14.9,2.1c-9.3,1-10.7-0.2-10.8-1.7c0-0.5-0.2-2,11.1-47.6c8-32.2,12.3-50.1,13-53.2c0.2-0.8,0.7-3.2,2.1-3.4
			c1.2-0.1,3-0.1,5.4-0.1c2.4,0,4.2,0,5.4-0.1c1.1-0.1,2.8-0.3,5-0.6c2.2-0.3,3.9-0.6,5-0.7c1.1-0.1,2.1,0.7,3,2.5
			c2.5,4.8,10,21.3,22.4,49.1c18.8,42.4,18.9,43.8,18.9,44.4c0.1,0.8-0.2,1.9-1.8,2.6C1416.5,302.8,1412.6,303.4,1405.9,304.1z
			 M1369.6,291c16.2-1.6,17.1-1.3,17.4-1.2c0.8,0.4,1.9,2,4.7,11.1c0.5,1.5,1.2,2.3,2.5,2.5c1.7,0.2,5.6,0,11.6-0.6
			c8.1-0.8,10.7-1.4,11.5-1.7c1.1-0.5,1-1,1-1.2c-0.1-1-3.5-9.4-18.8-43.9c-12.3-27.8-19.8-44.3-22.3-49c-0.5-0.8-1.1-1.8-1.8-1.8
			c-1.1,0.1-2.7,0.3-4.9,0.6c-2.2,0.3-3.9,0.6-5.1,0.7c-1.2,0.1-3,0.1-5.5,0.1c-2.4,0-4.2,0-5.3,0.1c-0.1,0-0.6,0.1-1,2.3
			c-0.6,3.2-5,21-13,53.3c-9.2,37.2-11.1,46.2-11.1,47.1c0,0,0.2,1.4,9.5,0.4c8.3-0.9,13.2-1.6,14.6-2.1c0.4-0.2,1.4-1.1,2-6.2
			c0.8-6.2,1.5-7.7,2-8.3C1358,292.7,1358.5,292.1,1369.6,291z M1373.4,268.1c-3,0.3-5.2,0.4-6.6,0.5c-2.1,0.1-4.5,0-4.6-1.7
			c-0.1-0.9,0.1-3.2,2.4-13.6c1.6-7.1,2.7-11.8,3.5-14l0.4-1.3l0.7,1.2c1.1,1.9,2.8,6,5.3,12.8c2.6,7,3.9,11.2,4,12.8
			c0,0.5,0,0.9-0.1,1.3C1378.1,267.2,1376.6,267.8,1373.4,268.1z M1368.8,241.2c-0.7,2.5-1.7,6.7-3,12.4c-2.1,9.3-2.5,12.3-2.4,13.1
			c0,0,0.3,0.6,3.3,0.4c1.3,0,3.5-0.2,6.5-0.5c3.8-0.4,4-1.1,4-1.1c0-0.1,0.1-0.3,0-0.7c-0.1-1.5-1.5-5.7-4-12.4
			C1371.4,247.2,1369.8,243.4,1368.8,241.2z"/>
	</g>
	<g>
		<path class="st4" d="M1489.6,221.7c0.2,2,0,3.7-0.5,5.2c-4.2,12.4-10.3,25.6-18.3,39.7c-1.1,2.1-1.6,3.9-1.5,5.5
			c0.2,2.5,0.7,6.1,1.4,11c0.7,4.9,1.1,8.6,1.4,11c0.1,0.8,0,1.4-0.4,1.6c-0.1,0.1-0.6,0.2-1.6,0.5c-1.4,0.4-5.1,1-11,1.6
			c-6,0.6-9.8,0.9-11.5,0.8c-1.2-0.1-1.8-0.7-1.9-1.9c-0.2-2.5-0.4-6.3-0.4-11.4c-0.1-5.1-0.2-8.9-0.4-11.4
			c-0.1-1.5-0.8-3.1-1.9-4.7c-5.7-7.5-13.9-19.1-24.7-34.7c-1.1-1.7-1.7-3.2-1.8-4.3c-0.2-2.8-0.7-7-1.5-12.5
			c-0.7-5.6-1.2-9.7-1.5-12.5c-0.1-1.5,0.2-2.3,1-2.4c2.5-0.2,6.4-0.4,11.5-0.6c5.1-0.2,9-0.4,11.5-0.6c0.9-0.1,1.4,0.2,1.5,0.9
			c0.2,2.4,0.4,5.9,0.7,10.7c0.2,4.8,0.5,8.3,0.7,10.7c0.1,1.4,2.2,4.7,6.3,9.9c3.3,4.1,5.9,7.2,8,9.4c1.5-2.4,3.4-5.9,5.8-10.6
			c3-5.8,4.5-9.3,4.4-10.5c-0.2-2.3-0.7-5.8-1.4-10.4c-0.7-4.6-1.2-8.1-1.4-10.4c-0.1-1,0-1.5,0.4-1.7l1.5-0.1
			c2.4-0.2,6.1-0.6,10.9-1.3c4.8-0.6,8.5-1.1,10.9-1.3c0.8-0.1,1.3,0.9,1.5,2.8c0.2,2.4,0.6,6.1,1.1,10.9
			C1489,215.5,1489.4,219.2,1489.6,221.7z"/>
		<path class="st3" d="M1459.1,298.4c-6.1,0.6-9.8,0.9-11.6,0.8c-1.5-0.1-2.4-1-2.5-2.5c-0.2-2.5-0.4-6.4-0.4-11.5
			c-0.1-5.1-0.2-8.9-0.4-11.4c-0.1-1.4-0.7-2.8-1.8-4.3c-5.7-7.5-14-19.1-24.7-34.7c-1.2-1.9-1.8-3.4-1.9-4.7
			c-0.2-2.8-0.7-7-1.5-12.5c-0.7-5.5-1.2-9.7-1.5-12.5c-0.2-2.6,0.9-3.1,1.6-3.1c2.5-0.2,6.4-0.4,11.6-0.6c5.1-0.2,9-0.4,11.5-0.6
			c1.8-0.1,2.1,1,2.2,1.6c0.2,2.4,0.4,6,0.7,10.7c0.2,4.7,0.5,8.3,0.7,10.6c0.1,0.7,0.9,2.9,6.2,9.6c3,3.7,5.5,6.7,7.4,8.8
			c1.4-2.3,3.2-5.7,5.4-9.9c4-7.7,4.3-9.6,4.3-10.1c-0.2-2.3-0.7-5.8-1.4-10.4c-0.7-4.6-1.2-8.1-1.4-10.4c0-0.5-0.2-1.9,0.7-2.4
			l0.2,0l1.5-0.1c2.4-0.2,6.1-0.6,10.9-1.3c4.8-0.6,8.5-1.1,11-1.3c1.2-0.1,1.9,1.1,2.1,3.5c0.2,2.4,0.6,6.1,1.1,10.9
			c0.5,5,0.9,8.6,1.1,11c0.2,2.1,0,3.9-0.5,5.5c-4.2,12.3-10.3,25.7-18.3,39.8c-1,1.9-1.5,3.6-1.4,5c0.2,2.4,0.7,6.1,1.4,11
			c0.7,4.9,1.1,8.6,1.4,11c0,0.4,0.2,1.7-0.6,2.2c-0.1,0.1-0.2,0.1-1.8,0.6C1468.8,297.3,1465.1,297.8,1459.1,298.4z M1414.5,203.4
			c-0.2,0-0.6,0.1-0.5,1.7c0.2,2.8,0.7,7,1.4,12.5c0.7,5.6,1.2,9.8,1.5,12.6c0.1,1,0.7,2.4,1.7,4c10.7,15.5,19,27.2,24.7,34.6
			c1.2,1.8,1.9,3.4,2.1,5.1c0.2,2.5,0.4,6.4,0.4,11.5c0.1,5.1,0.2,8.9,0.4,11.3c0.1,0.6,0.3,1.2,1.3,1.2c1.6,0.1,5.5-0.1,11.4-0.8
			c5.9-0.6,9.5-1.1,10.9-1.5c1.2-0.3,1.4-0.4,1.5-0.5l0,0c0,0,0.1-0.2,0-0.9c-0.2-2.4-0.7-6.1-1.4-11c-0.7-4.9-1.1-8.6-1.4-11.1
			c-0.2-1.7,0.4-3.7,1.6-5.9c7.9-14,14.1-27.3,18.2-39.6c0.5-1.4,0.6-3.1,0.5-4.9c-0.2-2.4-0.6-6-1.1-11c-0.5-4.8-0.9-8.5-1.1-10.9
			c0-0.5-0.3-2.3-0.8-2.2c-2.4,0.2-6.1,0.6-10.9,1.3c-4.8,0.6-8.5,1.1-11,1.3l-1.4,0.1c0,0.1-0.1,0.4,0,1c0.2,2.3,0.7,5.7,1.4,10.3
			c0.7,4.6,1.2,8.1,1.4,10.5c0.1,0.9-0.3,3-4.4,10.9c-2.4,4.7-4.3,8.3-5.8,10.6l-0.4,0.6l-0.5-0.5c-2.1-2.2-4.8-5.4-8-9.5
			c-5.6-7.2-6.4-9.4-6.5-10.3c-0.2-2.3-0.4-6-0.7-10.7c-0.2-4.7-0.4-8.3-0.7-10.6c0-0.1,0-0.4-0.8-0.3c-2.6,0.2-6.4,0.4-11.6,0.6
			C1420.9,203,1417,203.2,1414.5,203.4z"/>
	</g>
</g>
<g>
	<g>
		<path d="M551.8,370.6c0.2,10.4-3.2,19.5-10,27c-7.8,8.8-21.8,14.2-42,16.3c-1.5,0.2-3.8,0.4-6.7,0.6c-3,0.3-5.2,0.5-6.6,0.7
			c-22.9,2.4-36.7,3.4-41.1,2.9c-1.8-0.2-2.7-1-2.7-2.4c0-6.2,0.3-15.7,1-28.4c0.7-12.6,1-22.1,1-28.3c0-6.7-0.5-19.2-1.4-37.5
			c-0.2-4.7-0.6-11.7-1.2-21l-0.1-1.2c-0.1-1.1,0.9-1.8,2.9-2.2c2-0.4,9.2-1.1,21.5-2.1c19.6-1.6,31-2.4,34.3-2.6
			c14.9-0.7,26,0.7,33.1,4.1c9.4,4.6,14.2,13.2,14.4,25.9c0,3.3-1,6.9-3.1,10.9c-1.5,2.8-3.5,5.6-6,8.5c-2.2,2.5-3.3,3.7-3.3,3.5
			c0,0.4,0.8,0.9,2.4,1.7c4.3,1.9,7.6,5.2,10.1,9.9C550.6,361,551.8,365.6,551.8,370.6z M512.2,326.3c-0.1-4.9-2.7-7.9-8-9
			c-2.9-0.6-7.8-0.6-14.5,0c-6.6,0.6-9.9,1.3-9.9,2.2c0,1.1-0.1,2.7-0.3,4.9c-0.2,2.2-0.3,3.9-0.3,4.9c0.1,5.7,0.6,8.9,1.7,9.5
			c0.7,0.5,4.6,0.4,11.7-0.3C505.7,337.3,512.3,333.2,512.2,326.3z M515.5,373.7c-0.1-5.1-2.4-8.4-7-9.8c-2.9-0.9-7.7-1-14.4-0.4
			c-7.9,0.7-12.2,1.4-12.9,2c-0.7,0.6-1,4.2-0.9,10.6c0.1,6.8,0.5,10.5,1.3,11.1c0.8,0.6,5.3,0.6,13.3-0.2c6.6-0.7,11.3-1.6,14-2.8
			C513.3,382.2,515.5,378.7,515.5,373.7z"/>
		<path class="st3" d="M499.8,414.7c-1.5,0.2-3.8,0.4-6.7,0.6l-6.6,0.7c-23.2,2.4-36.8,3.4-41.3,2.9c-3-0.3-3.5-2.1-3.5-3.2
			c0-6.2,0.3-15.8,1-28.4c0.7-12.6,1-22.1,1-28.3c0-6.6-0.5-19.3-1.4-37.5c-0.2-4.6-0.6-11.5-1.2-21l-0.1-1.2
			c-0.1-1.1,0.5-2.5,3.7-3.2c2.1-0.4,9.2-1.1,21.6-2.1c19.5-1.6,31-2.4,34.3-2.6c15-0.7,26.3,0.7,33.5,4.2
			c9.6,4.7,14.6,13.6,14.8,26.6c0.1,3.4-1,7.2-3.2,11.3c-1.6,2.8-3.6,5.8-6.1,8.7c-1.4,1.6-2.2,2.5-2.8,3.1c0.3,0.2,0.8,0.5,1.6,0.8
			c4.4,1.9,7.9,5.4,10.5,10.2c2.3,4.3,3.5,9.1,3.5,14.1c0.2,10.6-3.3,19.9-10.3,27.6C534.5,407,520.2,412.6,499.8,414.7z
			 M466.6,295.8c-12.2,1-19.4,1.7-21.4,2.1c-1.5,0.3-2.2,0.7-2.1,1.3l0.1,1.2c0.6,9.5,0.9,16.4,1.2,21.1c0.9,18.2,1.3,30.9,1.4,37.5
			c0,6.2-0.3,15.7-1,28.3c-0.7,12.6-1,22.1-1,28.3c0,0.7,0.2,1.5,2,1.7c4.3,0.4,18.1-0.6,40.9-2.9l6.6-0.7c2.9-0.2,5.1-0.4,6.7-0.6
			c19.8-2,33.7-7.4,41.3-15.9c6.7-7.4,10-16.3,9.8-26.5c-0.1-4.8-1.2-9.4-3.4-13.5c-2.4-4.5-5.7-7.7-9.7-9.5
			c-1.5-0.6-2.3-1.2-2.6-1.7l-0.2-0.1l0-0.6c0,0,0,0,0,0l0.9-0.1l-0.4-0.7c0.1-0.1,0.6-0.5,3.1-3.4c2.4-2.8,4.4-5.6,5.9-8.4
			c2-3.8,3-7.3,3-10.4c-0.2-12.3-4.9-20.8-13.9-25.2c-6.9-3.3-17.9-4.7-32.6-4C497.6,293.4,486.1,294.2,466.6,295.8z M494.9,388
			c-11,1.1-13.2,0.7-14,0.1c-0.8-0.6-1.5-2.5-1.6-11.7c-0.1-9.3,0.6-10.7,1.2-11.3c0.6-0.6,2.2-1.2,13.5-2.3
			c6.8-0.6,11.6-0.5,14.7,0.4c4.9,1.5,7.5,5,7.5,10.5c0.1,5.3-2.3,9.2-7.1,11.4C506.4,386.4,501.8,387.3,494.9,388z M494.1,364.4
			c-10.4,1-12.1,1.6-12.4,1.8c-0.1,0.2-0.7,1.6-0.6,10c0.1,8.9,0.8,10.4,1,10.6c0.3,0.2,2,0.6,12.7-0.4c6.5-0.6,11.1-1.6,13.7-2.7
			c4.1-1.9,6.1-5.1,6-9.8c-0.1-4.8-2.2-7.8-6.4-9.1C505.3,363.9,500.6,363.8,494.1,364.4z M492.6,339.3c-11,1-11.8,0.4-12.3,0.1
			c-0.9-0.5-1.9-2.1-2-10.1c0-1.1,0.1-2.8,0.3-5c0.2-2.2,0.3-3.8,0.3-4.9c0-1.4,1.8-2.4,10.8-3.1c6.9-0.6,11.7-0.6,14.8,0.1
			c5.6,1.2,8.5,4.5,8.6,9.8C513.2,333.7,506.3,338.1,492.6,339.3z M480.7,319.5c0,1.1-0.1,2.7-0.3,4.8c-0.2,2.2-0.3,3.8-0.3,4.9
			c0.1,7.7,1.1,8.7,1.3,8.8c0.3,0.1,1.9,0.5,11.2-0.4c12.7-1.1,18.8-4.8,18.7-11.3c-0.1-4.5-2.5-7.2-7.3-8.3
			c-2.8-0.6-7.6-0.6-14.2,0C482.8,318.6,481.1,319.3,480.7,319.5z"/>
	</g>
	<g>
		<path d="M645.4,399.2c-5,0.5-11.6,1.1-19.6,1.7c-10.6,0.9-17.2,1.4-19.8,1.6l-26.7,2.4c-2.7,0.3-6.5,0.6-11.6,0.9
			c-1.7-0.1-2.6-0.9-2.7-2.4c-0.1-6.2-0.1-15.5-0.1-27.8c0-12.3,0-21.5-0.1-27.7c-0.1-6.5-0.5-16.3-1.1-29.3
			c-0.6-12.9-1-22.6-1.1-29.1c0-1.2,0.9-1.9,2.6-2.1c1.8-0.1,4.4-0.3,8-0.4c3.5-0.1,6.1-0.2,7.9-0.4c1.9-0.2,4.8-0.5,8.7-1
			c3.8-0.5,6.7-0.8,8.6-1c0.9-0.1,1.3,0.4,1.3,1.5l-0.1,1.1c-0.5,10.5-1,26.3-1.5,47.4l0.3,22.2c0.1,7.2,0.3,12.4,0.4,15.7
			c0.1,0.7,0.1,1.3,0.2,2c0.1,0.7,0.5,1,1.4,1.1c0.1,0,0.8-0.1,2.3-0.2c5.3-0.5,13.2-1.6,23.7-3.1c10.5-1.6,18.3-2.6,23.5-3.1
			c1.6-0.2,2.4,0.4,2.4,1.7c0.2,9.5-0.3,17.8-1.6,24.9c-0.3,1.5-0.8,2.4-1.8,2.8C648.7,398.8,647.5,399,645.4,399.2z"/>
		<path class="st3" d="M645.4,400.1c-5,0.5-11.6,1.1-19.7,1.7l-19.8,1.6l-26.7,2.4c-2.7,0.3-6.6,0.6-11.6,0.9
			c-2.3-0.1-3.5-1.2-3.5-3.1c-0.1-6.2-0.1-15.6-0.1-27.8c0-12.5,0-21.6-0.1-27.7c-0.1-6.5-0.5-16.3-1.1-29.2
			c-0.6-12.9-1-22.7-1.1-29.1c0-0.8,0.3-2.7,3.5-2.9c1.8-0.1,4.5-0.3,8-0.4c3.5-0.1,6.1-0.2,7.8-0.4c2-0.2,4.9-0.5,8.6-1
			c3.8-0.5,6.7-0.8,8.7-1c0.8-0.1,1.3,0.2,1.5,0.4c0.4,0.4,0.6,1,0.6,1.8l-0.1,1.1c-0.5,10.4-1,26.3-1.5,47.3l0.3,22.1
			c0.1,7.3,0.3,12.4,0.4,15.7l0.2,2c0,0.2,0,0.4,0.6,0.5l2.2-0.2c5.3-0.5,13.3-1.6,23.7-3.1c10.4-1.6,18.3-2.6,23.6-3.1
			c2-0.2,3.2,0.7,3.3,2.4c0.2,9.5-0.3,18-1.6,25.1c-0.3,1.8-1.1,3-2.3,3.5C649,399.6,648.5,399.7,645.4,400.1z M579.3,404.2
			l32.2-2.9l14.2-1.2c8-0.6,14.6-1.2,19.6-1.7c2.6-0.3,3.2-0.4,3.3-0.5c0.6-0.3,1-1,1.2-2.1c1.3-7,1.8-15.3,1.6-24.8
			c0-0.6-0.1-1.1-1.5-1c-5.2,0.5-13.1,1.6-23.5,3.1c-10.5,1.6-18.5,2.6-23.8,3.1l-2.5,0.2c-1.6-0.2-2-1.2-2-1.8l-0.2-2
			c-0.1-3.3-0.3-8.5-0.4-15.8l-0.3-22.2c0.5-21.1,1-37,1.5-47.4l0.1-1.1c0-0.4-0.1-0.6-0.1-0.6c0,0-0.1,0-0.3,0
			c-1.9,0.2-4.8,0.5-8.6,1c-3.8,0.5-6.7,0.8-8.7,1c-1.7,0.1-4.4,0.3-7.9,0.4c-3.5,0.1-6.2,0.2-7.9,0.4c-1.8,0.1-1.8,0.8-1.8,1.2
			c0.1,6.5,0.5,16.2,1.1,29.1c0.6,12.9,1,22.8,1.1,29.3c0.1,6.1,0.1,15.2,0.1,27.7c0,12.2,0,21.6,0.1,27.8c0,0.8,0.2,1.5,1.9,1.6
			C572.8,404.8,576.6,404.5,579.3,404.2z"/>
	</g>
	<g>
		<path d="M774.7,382.4c0,1-0.6,1.7-2,2.3c-1.6,0.6-6.8,1.4-15.5,2.3c-8,0.8-13.1,1.1-15.4,0.9c-1.9-0.2-3.2-1.3-3.7-3.3
			c-2.1-7.7-3.8-11.8-4.8-12.2c-0.9-0.3-8.5,0.3-22.7,1.7c-9.7,1-14.8,1.7-15.4,2.3c-0.9,1-2,4.1-3,9.2c-1,4.7-2.2,7.3-3.8,7.9
			c-1.9,0.6-8.5,1.5-19.6,2.7c-8.8,0.9-13.3,0.6-13.3-1.1c0-1.5,6.1-19.9,18.3-55.1c13.1-37.7,20.1-58.2,21.2-61.9
			c0.6-2.1,1.4-3.2,2.3-3.3c1.5-0.1,3.9-0.2,7.1-0.2c3.2,0,5.6,0,7.1-0.2c1.5-0.1,3.7-0.4,6.7-0.8c2.9-0.4,5.1-0.7,6.6-0.8
			c1.1-0.1,2.1,0.7,3,2.4c2.9,5.5,11.5,24.2,25.7,56.4C767.5,364,774.7,380.9,774.7,382.4z M713.1,313.6c-1.1,2.5-3,7.9-5.6,16.2
			c-2.8,8.8-4.2,14-4.2,15.5c0,1,1.7,1.4,5.1,1.2c1.8-0.1,4.6-0.3,8.6-0.7c3.7-0.4,5.8-1,6.1-1.9c0.1-0.3,0.1-0.7,0.1-1.2
			c-0.1-1.8-1.5-6.7-4.3-14.6C716.3,320.5,714.3,315.7,713.1,313.6z"/>
		<path class="st3" d="M757.3,387.7c-8.1,0.8-13.2,1.1-15.6,0.9c-2.3-0.2-3.7-1.5-4.4-3.9c-2.9-10.3-4.1-11.6-4.4-11.7
			c-0.5-0.1-4.1-0.1-22.3,1.8c-12.4,1.2-14.6,1.9-15,2.1c-0.4,0.4-1.3,2.2-2.7,8.7c-1.1,5.2-2.4,7.9-4.3,8.6
			c-2,0.7-8.5,1.6-19.9,2.7c-12.4,1.3-14.2-0.1-14.2-1.8c0-0.6-0.1-2.3,18.3-55.4c13-37.5,20.1-58.2,21.2-61.8
			c0.3-0.9,1.1-3.7,3.1-3.9c1.6-0.1,3.9-0.2,7.1-0.2c3.1,0,5.5,0,7.1-0.2c1.5-0.1,3.7-0.4,6.6-0.8c2.9-0.4,5.2-0.7,6.6-0.8
			c1.4-0.1,2.6,0.8,3.8,2.8c2.9,5.5,11.5,24.5,25.7,56.5c19,43.2,21.5,49.9,21.5,51c0,0.9-0.4,2.3-2.6,3.1
			C771.2,386.1,766.1,386.8,757.3,387.7z M710.5,373.2c21.5-2.1,22.6-1.8,23-1.7c1,0.4,2.4,2.2,5.3,12.7c0.5,1.8,1.5,2.6,3.1,2.8
			c2.2,0.2,7.4-0.1,15.3-0.9c10.7-1.1,14.2-1.8,15.3-2.2c1.4-0.6,1.4-1.2,1.4-1.4c-0.1-1.1-3.9-10.8-21.4-50.5
			c-14.1-32-22.7-50.9-25.6-56.4c-0.5-1-1.4-2.1-2.3-2c-1.4,0.1-3.6,0.4-6.5,0.8c-2.9,0.4-5.2,0.7-6.7,0.8c-1.6,0.1-4,0.2-7.2,0.2
			c-3.2,0-5.5,0-7,0.2c-0.1,0-0.8,0.1-1.5,2.7c-1.1,3.7-8.2,24.4-21.2,61.9c-15,43.2-18.2,53.7-18.2,54.8c0,0,0.2,1.6,12.5,0.3
			c11-1.1,17.6-2,19.5-2.7c0.5-0.2,1.9-1.3,3.1-7.2c1.5-7.2,2.6-8.9,3.3-9.6C695,375.3,695.7,374.7,710.5,373.2z M717.2,346.6
			c-4,0.4-6.9,0.6-8.7,0.7c-2.7,0.2-5.9,0.1-5.9-1.9c0-1,0.4-3.7,4.2-15.7c2.6-8.3,4.5-13.7,5.6-16.3l0.7-1.5l0.8,1.3
			c1.3,2.1,3.3,6.9,6.1,14.7c2.9,8,4.3,12.9,4.4,14.8c0,0.6,0,1.1-0.2,1.5C723.5,345.4,721.4,346.2,717.2,346.6z M713.2,315.5
			c-1.1,2.9-2.8,7.7-4.9,14.4c-3.5,10.8-4.2,14.3-4.1,15.2c0,0,0.4,0.7,4.3,0.4c1.8-0.1,4.6-0.3,8.6-0.6c5-0.5,5.4-1.3,5.4-1.3
			c0-0.1,0.1-0.3,0.1-0.8c0-1.2-0.8-4.6-4.3-14.3C716.1,322.4,714.4,318,713.2,315.5z"/>
	</g>
	<g>
		<path d="M877.3,355.7c0,0.9-0.5,2-1.5,3.5c-9.3,12.7-22.2,19.9-38.6,21.6c-16.9,1.8-30.9-2.6-41.9-13
			c-10.8-10.1-16.4-23.7-17-40.7c-0.5-16.4,4.1-30.7,13.8-42.9c10.1-12.7,23.1-19.7,39.2-21c17.3-1.4,31,2.8,41.1,12.4
			c1.1,1.1,1.7,2,1.7,2.9c0,1-1.6,4.9-5.1,11.6c-3.4,6.8-5.6,10.6-6.5,11.5c-0.4,0.5-0.9,0.7-1.6,0.8c-0.3,0-1.6-0.9-4.1-2.8
			c-3-2.3-5.9-4-8.7-5.2c-4.3-1.8-8.7-2.4-13.3-2c-7.9,0.7-14.1,4.2-18.7,10.4c-4.2,5.8-6.1,12.8-5.9,20.8
			c0.3,8.2,2.7,14.8,7.3,19.9c5,5.6,11.5,7.9,19.4,7.2c4.7-0.5,9.1-1.9,13.2-4.3c2.7-1.6,5.4-3.7,8.1-6.4c2.3-2.2,3.5-3.4,3.8-3.4
			c0.5-0.1,1.1,0.2,1.6,0.7c0.9,0.9,3.3,4,7.3,9.3C875.2,352.1,877.3,355.1,877.3,355.7z"/>
		<path class="st3" d="M837.3,381.6c-17.1,1.8-31.4-2.7-42.5-13.2c-10.9-10.2-16.7-24.1-17.2-41.2c-0.5-16.5,4.2-31.1,14-43.4
			c10.2-12.8,23.6-20,39.7-21.3c17.4-1.4,31.4,2.9,41.7,12.6c1.3,1.2,1.9,2.3,1.9,3.4c0,0.8-0.5,2.9-5.1,12
			c-4.7,9.2-6,11.1-6.7,11.7c-0.5,0.6-1.2,0.9-2.1,1c-0.4,0-0.7,0.1-4.6-3c-2.9-2.2-5.8-4-8.5-5.1c-4.2-1.7-8.5-2.4-12.9-2
			c-7.6,0.7-13.7,4-18.1,10.1c-4.1,5.7-6,12.5-5.7,20.3c0.3,7.9,2.7,14.5,7.1,19.4c4.8,5.3,11.1,7.7,18.7,6.9
			c4.5-0.4,8.9-1.9,12.8-4.2c2.6-1.6,5.3-3.7,8-6.3c3.6-3.6,3.9-3.6,4.3-3.6c0.8-0.1,1.5,0.2,2.2,0.9c0.9,0.9,3.4,4,7.4,9.4
			c6.3,8.5,6.3,9.1,6.4,9.6c0,1-0.5,2.4-1.7,4C867,372.5,853.8,379.9,837.3,381.6z M831.3,264.1c-15.7,1.3-28.7,8.2-38.6,20.6
			c-9.5,12-14.1,26.3-13.6,42.4c0.6,16.7,6.2,30.2,16.8,40.2c10.8,10.3,24.7,14.6,41.3,12.8c16.1-1.7,28.9-8.8,38-21.2
			c1.1-1.6,1.4-2.5,1.4-3c-0.1-0.4-0.9-1.9-6.1-8.8c-4-5.3-6.4-8.4-7.3-9.2c-0.2-0.2-0.6-0.5-0.9-0.5c-0.2,0.2-1,0.8-3.4,3.2
			c-2.8,2.7-5.6,4.9-8.3,6.5c-4.2,2.5-8.7,4-13.5,4.5c-8.1,0.8-14.9-1.7-20-7.4c-4.7-5.2-7.2-12.1-7.5-20.4
			c-0.3-8.2,1.7-15.4,6-21.3c4.7-6.5,11.2-10.1,19.3-10.8c4.7-0.4,9.2,0.3,13.6,2.1c2.9,1.2,5.9,3,8.9,5.3c2.6,2,3.5,2.5,3.7,2.7
			c0.4-0.1,0.7-0.2,0.9-0.5c0.6-0.6,2.2-3,6.4-11.3c4.5-9,5-10.8,5-11.2c0-0.7-0.5-1.5-1.5-2.4C861.9,266.8,848.3,262.7,831.3,264.1
			z"/>
	</g>
	<g>
		<path d="M982.3,358.6c0.1,2.2-0.8,3.8-2.6,4.7c-1.5,0.7-5.5,1.4-12.1,2c-6.3,0.7-10.9,0.9-13.9,0.6c-1.4-0.1-2.3-0.3-2.8-0.5
			c-0.5-0.2-1-0.9-1.8-2.1c-4.1-6.7-8.2-13.3-12.2-20c-6.7-10.7-10.6-16.6-11.9-17.7c-5.5,2.6-8.3,4.3-8.2,5.2
			c0.2,3.9,0.6,9.9,1.3,17.8c0.7,8,1.1,14,1.3,18c0.1,1.6-0.6,2.6-2,3c-2.7,0.7-7.6,1.4-14.8,2.2c-6.8,0.7-11.4,1-13.6,0.8
			c-1.5-0.2-2.3-0.9-2.4-2.2c-0.2-5.7-0.3-14.4-0.3-26.1c0.1-11.6,0-20.3-0.3-26c-0.3-6.1-0.9-15.3-1.9-27.5
			c-1-12.2-1.7-21.3-1.9-27.3c0-1.1,0.5-1.8,1.6-1.9c1.6-0.1,4.1-0.2,7.4-0.4c3.3-0.1,5.7-0.2,7.3-0.4c1.7-0.1,4.1-0.4,7.4-0.8
			c3.3-0.4,5.7-0.7,7.3-0.8c0.9-0.1,1.3,0.4,1.4,1.3c0.2,3.8,0.2,9.7,0.2,17.5c0,7.8,0,13.7,0.2,17.6c0.2,4.5,1.5,6.6,4,6.4
			c6.2-0.6,10.9-2.7,14.1-6.4c2.4-2.7,4.8-7.5,7-14.3c1.4-5.2,3.8-12.8,7-22.9c0.5-1.3,1.6-2.1,3.4-2.2c1.3-0.1,3.3-0.2,6-0.3
			c2.7-0.1,4.7-0.1,6-0.3c1.4-0.1,3.4-0.3,6.1-0.6c2.7-0.3,4.7-0.5,6-0.6c1.2-0.1,1.8,0.4,1.9,1.6c0.1,1.7-0.8,5.9-2.6,12.7
			c-5.3,20-12,32.9-20,38.5c-1.6,1.1-2.5,2-2.4,2.7c0-0.1,5.1,7.3,15.3,22.1C977,346.8,982.1,355.7,982.3,358.6z"/>
		<path class="st3" d="M967.6,366.1c-6.3,0.7-11,0.9-14,0.6c-1.5-0.1-2.5-0.3-3.1-0.6c-0.6-0.3-1.2-1-2-2.3
			c-4.1-6.7-8.2-13.3-12.2-20c-7.4-11.8-10.3-16-11.4-17.2c-6.5,3.1-7.2,4.1-7.3,4.3c0.2,3.8,0.6,9.8,1.3,17.7
			c0.7,7.9,1.1,14,1.3,18c0.1,2-0.8,3.4-2.6,3.8c-2.7,0.7-7.7,1.4-14.9,2.2c-6.9,0.7-11.5,1-13.8,0.8c-2.6-0.3-3-2-3.1-2.9
			c-0.2-5.7-0.3-14.5-0.3-26.1c0.1-11.5,0-20.3-0.3-26c-0.3-6.1-0.9-15.3-1.9-27.4c-1-12.1-1.7-21.3-1.9-27.4
			c-0.1-1.6,0.8-2.6,2.3-2.7c1.6-0.1,4.1-0.3,7.4-0.4c3.2-0.1,5.7-0.2,7.3-0.4c1.7-0.1,4.1-0.4,7.4-0.8c3.3-0.4,5.7-0.7,7.3-0.8
			c1.3-0.1,2.1,0.6,2.2,2c0.2,3.8,0.2,9.7,0.2,17.5c0,7.8,0,13.7,0.2,17.5c0.3,6,2.5,5.8,3.2,5.7c5.9-0.5,10.5-2.6,13.6-6.1
			c2.3-2.6,4.6-7.4,6.9-14c1.4-5.1,3.8-12.8,7-22.9c0.4-1.2,1.5-2.5,4-2.8c1.3-0.1,3.3-0.2,6.1-0.3c2.6-0.1,4.6-0.1,6-0.2
			c1.4-0.1,3.4-0.3,6.1-0.6c2.8-0.3,4.8-0.5,6.1-0.6c1.6-0.1,2.6,0.7,2.7,2.3c0.1,1.8-0.8,6-2.6,12.9c-5.4,20.1-12.2,33.2-20.3,39
			c-1.6,1.1-2,1.7-2.1,1.9c0.6,0.7,1.6,2.2,3.7,5.2c2.5,3.7,6.4,9.2,11.4,16.6c10.3,15,15.4,23.8,15.6,27c0.1,2.6-0.9,4.4-3.1,5.4
			C978.3,364.7,974.3,365.4,967.6,366.1z M925.2,324.8l0.4,0.3c1.3,1.1,5.3,6.9,12,17.8c4.1,6.7,8.1,13.3,12.2,20
			c0.9,1.4,1.3,1.7,1.5,1.8c0.2,0.1,0.8,0.3,2.5,0.5c2.9,0.2,7.5,0,13.8-0.6c8-0.8,10.9-1.5,11.8-2c1.5-0.7,2.2-2,2.1-3.9
			c-0.1-1.9-2.8-8-15.3-26.2c-10.3-15-14-20.2-14.9-21.6l-0.4,0.2l0-1c0-1,0.8-2,2.8-3.3c7.8-5.5,14.4-18.3,19.7-38.1
			c1.8-6.6,2.6-10.8,2.5-12.4c0-0.7-0.2-1-1.1-0.9c-1.3,0.1-3.2,0.3-6,0.6c-2.7,0.3-4.7,0.5-6.1,0.7c-1.3,0.1-3.4,0.2-6,0.3
			c-2.7,0.1-4.7,0.1-6,0.3c-1.9,0.2-2.4,1-2.7,1.7c-3.3,10-5.6,17.7-7,22.8c-2.3,6.9-4.7,11.8-7.2,14.6c-3.4,3.8-8.3,6.1-14.6,6.6
			c-2.9,0.3-4.5-2.1-4.8-7.1c-0.2-3.9-0.2-9.8-0.2-17.6c0-7.8,0-13.7-0.2-17.5c0-0.6-0.2-0.6-0.6-0.6c-1.6,0.1-4,0.4-7.3,0.8
			c-3.3,0.4-5.8,0.7-7.4,0.8c-1.6,0.1-4.1,0.3-7.4,0.4c-3.3,0.1-5.7,0.2-7.3,0.4c-0.6,0-0.9,0.2-0.8,1c0.3,6,0.9,15.2,1.9,27.3
			c1,12.1,1.7,21.4,1.9,27.5c0.2,5.8,0.3,14.5,0.3,26.1c-0.1,11.6,0,20.3,0.3,26c0,0.7,0.3,1.4,1.8,1.5c2.2,0.2,6.7-0.1,13.5-0.8
			c7.1-0.7,12-1.4,14.6-2.1c0.7-0.2,1.4-0.6,1.4-2.2c-0.2-4-0.6-10-1.3-17.9c-0.7-7.9-1.1-13.9-1.3-17.9c0-1,0.6-2.2,8.7-6
			L925.2,324.8z"/>
	</g>
	<g>
		<path class="st4" d="M1101.1,268.7c0,0.6-0.4,0.9-1.4,1c-3.6,0.3-9.1,0.5-16.5,0.4c-7.4,0-13,0.1-16.7,0.4
			c-4.7,0.4-7.4,0.8-8.2,1.2c-1.8,1-2.5,3.5-2.3,7.5c0.3,4.8,1.6,7.5,4,7.9c1,0.2,2.5,0.2,4.5,0c3.4-0.3,8.4-0.9,15.1-1.9
			c6.6-1,11.6-1.6,15-1.9c1.6-0.1,2.6,4.2,3.2,13.1c0.5,7.7,0.5,12.2,0,13.6c-0.3,0.9-0.9,1.5-1.9,1.6c0.6-0.1-0.9-0.1-4.6-0.1
			c-5.2,0-13.1,0.5-23.7,1.5c-3.4,0.3-5.4,0.5-5.8,0.6c-2.5,0.6-3.7,1.9-3.6,3.6c0.4,7.2,1.2,15.6,2.3,25c1,8.5,1.4,12.3,1.4,11.4
			c0.1,1.3-1.4,2.3-4.5,2.8c0.8-0.1-1.4,0.1-6.6,0.6c-9.3,1-15.3,1.2-18,0.9c-1.5-0.2-2.2-0.9-2.3-2.2c-0.3-5.7-0.6-14.3-0.8-25.8
			c-0.2-11.5-0.5-20-0.8-25.7c-0.4-6.8-1.1-15.2-2.3-25.4c-1.7-15.7-2.7-24.1-2.8-25.2l-0.1-0.9c-0.1-1.3,0.6-2,2.1-2.1
			c3.7-0.3,9.2-0.7,16.5-1.1c7.3-0.4,12.8-0.8,16.5-1.1c3.9-0.3,9.7-1.1,17.5-2.3c7.7-1.2,13.5-2,17.4-2.3c2.4-0.2,3.8,0.7,4.2,2.7
			c0.1,2.1,0.4,5.4,0.9,9.7c0.2,1.1,0.6,3.2,1.3,6.3C1100.6,265.1,1101,267.2,1101.1,268.7z"/>
		<path class="st3" d="M1057.3,357.1L1057.3,357.1c-0.3,0-1.6,0.1-6.6,0.6c-9.4,1-15.4,1.3-18.2,0.9c-2.3-0.3-2.8-1.7-2.9-2.9
			c-0.3-5.7-0.6-14.4-0.8-25.9c-0.2-11.4-0.5-20.1-0.8-25.7c-0.4-6.7-1.1-15.2-2.2-25.3c-1.8-16.6-2.7-24.1-2.8-25.2l-0.1-0.9
			c-0.1-0.8,0.1-1.4,0.5-1.9c0.5-0.6,1.2-0.9,2.3-1c3.6-0.3,9.2-0.7,16.6-1.1c7.3-0.4,12.8-0.8,16.5-1.1c3.9-0.3,9.7-1.1,17.4-2.3
			c7.7-1.2,13.6-2,17.4-2.3c3.5-0.3,4.6,1.7,5,3.3c0.1,2.2,0.4,5.5,0.9,9.7c0.2,1,0.6,3.1,1.3,6.2c0.7,2.8,1,4.9,1.1,6.5
			c0,0.5-0.1,1.6-2.1,1.7c-3.6,0.3-9.2,0.5-16.6,0.4c-7.4,0-13,0.1-16.6,0.4c-6,0.5-7.5,0.9-7.9,1.1c-1.5,0.9-2.1,3.1-1.9,6.8
			c0.2,4.4,1.4,6.9,3.4,7.2c0.9,0.2,2.4,0.1,4.3,0c3.3-0.3,8.4-0.9,15-1.9c6.6-1,11.7-1.6,15-1.9c1.5-0.1,3.2,1.4,3.9,13.8
			c0.6,10.5,0.3,12.9,0,13.9c-0.3,0.9-0.9,1.6-1.7,1.9l0,0.1l-0.7,0.1c0,0-0.1,0-0.1,0l0-0.2l0,0.2c-0.1,0-0.9,0-4.6-0.1
			c-5.2,0-13.1,0.5-23.6,1.5c-4.4,0.4-5.5,0.6-5.7,0.6c-2.8,0.7-3,2-3,2.8c0.4,7.2,1.2,15.6,2.3,24.9c1.1,9.4,1.3,11.2,1.4,11.4
			l-0.1,0l0.1,0l0,0.7l-0.1,0C1061.8,356.4,1058.5,356.9,1057.3,357.1C1057.3,357.1,1057.3,357.1,1057.3,357.1z M1057.1,355.7
			c-0.2,0.1-0.4,0.4-0.4,0.8l0.5-0.1L1057.1,355.7C1057.1,355.7,1057.1,355.7,1057.1,355.7L1057.1,355.7
			C1057.1,355.6,1057.1,355.6,1057.1,355.7L1057.1,355.7c2.6-0.5,4-1.2,3.9-2l0.1,0c-0.3-1.2-0.6-4.2-1.4-11.3
			c-1.1-9.4-1.9-17.8-2.3-25c-0.1-1.5,0.6-3.5,4.1-4.4c0.2,0,0.7-0.2,5.9-0.6c10.6-1,18.5-1.5,23.8-1.5c2.6,0,3.9,0,4.6,0.1
			c0.6-0.1,1-0.4,1.2-1c0.3-0.9,0.5-3.8,0-13.3c-0.7-12.4-2.4-12.4-2.4-12.4c-3.3,0.3-8.3,0.9-14.9,1.9c-6.6,1-11.7,1.6-15.1,1.9
			c-2.1,0.2-3.6,0.2-4.7,0c-2.7-0.5-4.3-3.4-4.6-8.6c-0.2-4.4,0.6-7.1,2.7-8.2c0.6-0.3,2-0.8,8.5-1.3c3.7-0.3,9.3-0.5,16.8-0.4
			c7.3,0,12.9-0.1,16.5-0.4c0.5,0,0.7-0.1,0.7-0.2c-0.1-1.4-0.5-3.5-1.1-6.2c-0.7-3.1-1.2-5.3-1.3-6.4c-0.4-4.3-0.7-7.6-0.9-9.7
			c-0.2-0.9-0.8-2.3-3.5-2.1c-3.8,0.3-9.6,1.1-17.3,2.3c-7.7,1.2-13.6,2-17.5,2.3c-3.7,0.3-9.2,0.7-16.5,1.1
			c-7.4,0.4-12.9,0.8-16.5,1.1c-0.6,0.1-1.1,0.2-1.3,0.5c-0.1,0.1-0.2,0.3-0.2,0.8l0.1,0.9c0.1,1.1,0.9,8.7,2.8,25.2
			c1.1,10.1,1.9,18.7,2.3,25.4c0.3,5.6,0.6,14.3,0.8,25.7c0.2,11.4,0.5,20.1,0.8,25.8c0,0.6,0.3,1.3,1.7,1.5
			c2.7,0.4,8.7,0.1,17.8-0.9C1054.3,355.9,1056.1,355.7,1057.1,355.7z"/>
	</g>
	<g>
		<path class="st4" d="M1198.9,339.9c0,0.3-0.4,0.6-1.3,0.9c-1.7,0.5-6.2,1.1-13.3,1.8c-6.1,0.6-10.3,0.9-12.5,0.8
			c-1,0-1.6-0.1-1.8-0.2c-0.3-0.1-0.7-0.6-1.1-1.4c-0.8-1.9-2.1-4.7-3.7-8.4c-2.2-4.8-5.5-11.9-10-21.3c-1-1.9-3-2.8-6.1-2.7
			c1.4,0-1,0.2-7.3,0.8c-0.7,0.1-1,1.4-0.8,3.9c0.2,3.4,0.8,8.5,1.8,15.2c1,6.7,1.6,11.8,1.8,15.2c0.1,0.9-0.1,1.4-0.5,1.6
			c-0.7,0.1-1.3,0.2-2,0.4c-2.8,0.5-7.2,1-13.1,1.7c-6.9,0.7-11,1-12.4,0.8c-1.4-0.2-2.2-0.9-2.2-2.1c-0.3-5.6-0.6-14-0.8-25.3
			c-0.2-11.2-0.4-19.6-0.8-25.2c-1.3-21.2-2.7-37.7-4.3-49.4l-0.1-1c-0.1-0.8,0.6-1.5,2.2-1.9c1.5-0.4,8.8-1.3,21.7-2.7
			c8.7-0.9,15.7-1.6,20.8-2c10.7-0.9,19.5,1,26.5,5.5c7.9,5.1,12.2,13,13,23.7c0.5,7.2-0.1,13-1.8,17.5c-1.7,4.5-5,9-10,13.5
			c-1,0.9-1.5,1.7-1.5,2.4c0,0,3.2,5.9,9.8,17.9C1195.6,332,1198.9,338.6,1198.9,339.9z M1165.2,275.9c-0.4-6-2.5-10.1-6.4-12.1
			c-3-1.5-7.6-2-13.9-1.5c-4.5,0.4-6.8,1.3-7,2.8c-0.2,1.7,0,6.6,0.5,14.7c0.1,1.1,0.2,2.8,0.4,5.1c0.2,2.2,0.3,3.9,0.4,5
			c0,0.2,0.8,0.4,2.3,0.5c2.9,0.2,6,0.1,9.1-0.2C1160.9,289.3,1165.7,284.6,1165.2,275.9z"/>
		<path class="st3" d="M1184.3,343.4c-6.1,0.6-10.4,0.9-12.6,0.8c-1.6-0.1-1.9-0.2-2.1-0.3c-0.4-0.1-0.8-0.7-1.3-1.7
			c-0.9-1.9-2.1-4.7-3.7-8.4c-2.1-4.8-5.5-11.9-10-21.2c-0.8-1.6-2.5-2.3-5.2-2.3c-0.9,0.2-3,0.4-7.6,0.9c0,0-0.3,0.5-0.2,3.1
			c0.2,3.4,0.8,8.5,1.8,15.1c1,6.7,1.6,11.9,1.9,15.3c0.1,1.5-0.5,2.1-1,2.3l-0.2,0.1l-2,0.4c-2.8,0.5-7.3,1.1-13.2,1.7
			c-7,0.7-11.1,1-12.5,0.8c-2.3-0.3-2.8-1.9-2.8-2.8c-0.3-5.5-0.6-14.1-0.8-25.3c-0.2-11.2-0.4-19.6-0.8-25.2
			c-1.3-21.1-2.7-37.7-4.3-49.4l-0.1-1c-0.1-0.9,0.3-2.1,2.7-2.7c1.6-0.4,8.7-1.3,21.8-2.7c8.9-0.9,15.7-1.6,20.8-2
			c10.8-0.9,19.8,1,26.9,5.6c8.1,5.2,12.6,13.3,13.3,24.3c0.5,7.3-0.1,13.3-1.8,17.8c-1.7,4.6-5.1,9.2-10.2,13.8
			c-0.8,0.7-1.2,1.3-1.2,1.7c0.4,0.6,1.1,1.9,2.4,4.2c1.6,3,4.1,7.4,7.3,13.4c8.7,16,9.9,19.2,10,20.2c0.1,1.1-1.3,1.5-1.9,1.7
			C1196,342,1191.6,342.6,1184.3,343.4z M1149.1,308.8c3.3-0.1,5.6,0.9,6.7,3c4.5,9.3,7.9,16.5,10.1,21.3c1.6,3.7,2.8,6.5,3.7,8.4
			c0.5,0.9,0.7,1,0.7,1c0.1,0,0.3,0.1,1.6,0.1c2.2,0.1,6.4-0.2,12.4-0.8c7.1-0.7,11.5-1.3,13.2-1.8c0.4-0.1,0.7-0.2,0.8-0.3
			c-0.2-1-1.9-5-9.8-19.4c-2.1-3.9-8.1-14.9-9.5-17.4l-0.3,0.1l-0.1-0.9c-0.1-1,0.5-1.9,1.7-3c4.9-4.4,8.2-8.9,9.8-13.2
			c1.6-4.3,2.2-10.1,1.7-17.2c-0.7-10.5-4.9-18.3-12.6-23.2c-6.9-4.4-15.6-6.2-26.1-5.4c-5.1,0.4-11.9,1.1-20.8,2
			c-12.8,1.3-20.1,2.2-21.6,2.6c-0.5,0.1-1.7,0.5-1.6,1.1l0.1,1c1.6,11.7,3.1,28.4,4.4,49.5c0.3,5.6,0.6,14.1,0.8,25.3
			c0.2,11.2,0.4,19.7,0.8,25.2c0,0.6,0.3,1.3,1.6,1.5c1.4,0.2,5.5-0.1,12.3-0.8c5.9-0.6,10.3-1.2,13.1-1.7l1.8-0.3
			c0.1-0.1,0.1-0.3,0.1-0.8c-0.2-3.4-0.8-8.5-1.8-15.2c-1-6.7-1.6-11.8-1.9-15.3c-0.1-2.1-0.1-4.6,1.5-4.7
			C1146.8,309.2,1148.5,309,1149.1,308.8L1149.1,308.8z M1150.6,291c-3.2,0.3-6.3,0.3-9.2,0.2c-2-0.1-2.9-0.4-3-1.2
			c-0.1-1.1-0.2-2.8-0.4-5c-0.2-2.2-0.3-3.9-0.4-5.1c-0.5-8.2-0.7-13-0.5-14.8c0.3-1.9,2.7-3,7.7-3.4c6.3-0.5,11.1,0,14.2,1.6
			c4.1,2.1,6.4,6.4,6.8,12.7C1166.5,284.9,1161.3,290,1150.6,291z M1139.8,289.5c0.2,0.1,0.7,0.2,1.7,0.2c2.9,0.2,5.9,0.1,9-0.2
			c9.9-0.9,14.5-5.3,14-13.6c-0.4-5.8-2.4-9.6-6.1-11.5c-2.9-1.5-7.4-2-13.5-1.4c-5.7,0.5-6.3,1.8-6.4,2.1c-0.2,1.6,0,6.5,0.5,14.5
			c0.1,1.1,0.2,2.8,0.4,5.1C1139.6,286.8,1139.7,288.4,1139.8,289.5z"/>
	</g>
	<g>
		<path class="st4" d="M1231,282.5c0.4,5.8,1.1,14.5,2.2,26.1c1.1,11.6,1.8,20.4,2.2,26.2c0.1,1-0.1,1.6-0.5,1.9
			c-0.1,0.1-0.7,0.2-1.8,0.5c-2.9,0.7-6.9,1.3-11.9,1.8c-6.7,0.7-11,0.9-12.9,0.7c-1.4-0.2-2.1-0.9-2.2-2.1c0.1,0.8,0-3.6-0.3-13.2
			c-0.5-20.1-1-33.3-1.4-39.5c-0.4-5.3-1.1-13.1-2.1-23.6c-1-10.5-1.7-18.3-2.1-23.5c-0.1-1.1,0.4-1.7,1.5-1.7
			c1.4-0.1,3.6-0.2,6.4-0.3c2.9-0.1,5-0.2,6.4-0.3c1.4-0.1,3.5-0.4,6.2-0.7c2.7-0.4,4.8-0.6,6.2-0.7c1.3-0.1,2,0.4,2.1,1.4
			c0.4,5.2,0.6,13,0.9,23.5C1230.4,269.4,1230.7,277.3,1231,282.5z"/>
		<path class="st3" d="M1221.4,339.7c-6.8,0.7-11.1,0.9-13,0.7c-1.7-0.2-2.4-1.1-2.6-2l-0.1,0l-0.1-0.8c0,0,0,0,0,0l0.1,0l-0.1,0
			c0-0.4-0.1-4.8-0.3-13.2c-0.5-20-1-33.3-1.4-39.5c-0.4-5.2-1.1-13.1-2.1-23.6c-1-10.4-1.7-18.3-2.1-23.6c-0.1-1.5,0.7-2.4,2.1-2.5
			c1.4-0.1,3.6-0.2,6.5-0.3c2.8-0.1,5-0.2,6.4-0.3c1.4-0.1,3.5-0.4,6.2-0.7c2.7-0.4,4.9-0.6,6.3-0.7c2.4-0.2,2.8,1.4,2.8,2.1
			c0.4,5.2,0.7,13.1,0.9,23.5c0.2,10.4,0.5,18.3,0.9,23.5c0.4,5.7,1.2,14.5,2.2,26c1.1,11.6,1.8,20.4,2.2,26.2
			c0.1,1.3-0.2,2.1-0.8,2.6c-0.1,0.1-0.3,0.2-2,0.6C1230.4,338.5,1226.4,339.2,1221.4,339.7z M1207,337.5c0,0.6,0.3,1.3,1.6,1.4
			c1.8,0.2,6.1,0,12.8-0.7c4.9-0.5,8.9-1.1,11.8-1.8c1.3-0.3,1.6-0.4,1.6-0.4c0,0,0.1-0.4,0.1-1.2c-0.4-5.8-1.2-14.6-2.2-26.2
			c-1.1-11.6-1.8-20.3-2.2-26.1c-0.4-5.2-0.7-13.2-0.9-23.6c-0.2-10.4-0.5-18.3-0.9-23.4c0-0.3-0.1-0.9-1.4-0.8
			c-1.4,0.1-3.5,0.4-6.2,0.7c-2.7,0.4-4.8,0.6-6.3,0.7c-1.4,0.1-3.6,0.2-6.5,0.3c-2.9,0.1-5,0.2-6.4,0.3c-0.8,0.1-0.9,0.4-0.9,1
			c0.4,5.2,1.1,13.1,2.1,23.5c1,10.5,1.7,18.4,2.1,23.6c0.4,6.3,0.9,19.5,1.4,39.6c0.1,4.4,0.2,7.7,0.2,9.9
			C1207,336,1207,336.9,1207,337.5L1207,337.5z"/>
	</g>
	<g>
		<path class="st4" d="M1332,275.4c1.1,14.1-2.1,26.7-9.5,37.9c-6.6,10.1-16.6,16.1-30,17.9c-2.6,0.4-9.7,1.1-21.4,2.4
			c-2.2,0.2-5.5,0.5-10,0.8c-4.5,0.3-7.8,0.6-10,0.8c-1.3,0.1-2-0.4-2.1-1.5c-0.4-5.4-0.8-13.5-1.2-24.4
			c-0.4-10.8-0.8-18.9-1.1-24.3c-0.4-5.6-1.2-14-2.4-25.1c-1.2-11.1-2-19.4-2.4-24.9c-0.1-1,0.5-1.7,1.8-2c3.2-0.6,8.4-1.3,15.7-1.8
			c13.7-1.1,22.6-1.6,26.7-1.5c10.6,0.3,18.9,2.5,25.2,6.6c5.8,3.8,10.7,9.5,14.4,16.9C1329.3,260.3,1331.4,267.7,1332,275.4z
			 M1306.9,277.8c-0.6-8.1-3.3-14.6-8.2-19.3c-4.9-4.9-11.1-7.1-18.5-6.5c-6.9,0.6-10.2,1.9-10.1,3.8c0.2,2.9,0.5,7.1,0.8,12.9
			c0.3,5.7,0.6,10.1,0.8,12.9c0.2,2.8,0.6,7,1.1,12.7c0.5,5.7,0.9,9.9,1.1,12.8c0.2,2.1,3.8,2.8,11,2.1c7.7-0.8,13.5-4.1,17.5-10.1
			C1306,293.4,1307.5,286.3,1306.9,277.8z"/>
		<path class="st3" d="M1271.1,334.4c-2.2,0.2-5.6,0.5-10,0.8c-4.4,0.3-7.8,0.6-10,0.8c-2.4,0.2-2.8-1.4-2.8-2.1
			c-0.4-5.4-0.8-13.6-1.2-24.4c-0.4-10.8-0.8-18.9-1.1-24.3c-0.4-5.6-1.2-14-2.4-25.1c-1.2-11-2-19.4-2.4-25
			c-0.1-0.8,0.2-2.2,2.4-2.7c3.2-0.7,8.5-1.3,15.7-1.9c13.7-1.1,22.7-1.6,26.7-1.5c10.6,0.3,19.2,2.6,25.5,6.7
			c5.9,3.9,10.8,9.7,14.7,17.2c3.6,7.1,5.8,14.6,6.4,22.4c1.1,14.2-2.1,27.1-9.7,38.4c-6.7,10.2-16.9,16.3-30.4,18.2
			C1289.9,332.4,1282.7,333.2,1271.1,334.4z M1259.5,232c-7.2,0.6-12.4,1.2-15.6,1.8c-1.4,0.3-1.3,0.9-1.3,1.2
			c0.4,5.5,1.2,13.9,2.4,24.9c1.2,11.1,2,19.6,2.4,25.1c0.4,5.3,0.8,13.5,1.2,24.3c0.4,10.8,0.8,19,1.2,24.4c0,0.4,0.1,1,1.4,0.8
			c2.2-0.2,5.6-0.5,10.1-0.8c4.4-0.3,7.8-0.6,10-0.8c11.6-1.2,18.8-2,21.4-2.4c13.1-1.8,23.1-7.8,29.6-17.6
			c7.3-11,10.5-23.6,9.4-37.5c-0.6-7.6-2.7-15-6.3-21.9c-3.7-7.3-8.5-12.9-14.2-16.7c-6.1-4-14.4-6.2-24.8-6.5
			C1282.1,230.3,1273.1,230.9,1259.5,232z M1284.8,309.9c-7.8,0.8-11.5-0.1-11.7-2.7c-0.2-2.9-0.6-7-1.1-12.8
			c-0.5-5.6-0.9-9.9-1.1-12.7c-0.2-2.9-0.5-7.2-0.8-12.9c-0.3-5.8-0.6-10-0.8-12.9c-0.2-2.5,3.2-4,10.7-4.6c7.6-0.6,14,1.6,19,6.6
			c4.9,4.8,7.8,11.5,8.4,19.8c0.7,8.7-0.9,16-4.7,21.8C1298.7,305.6,1292.7,309.2,1284.8,309.9z M1280.2,252.7
			c-8.9,0.8-9.5,2.6-9.5,3.1c0.2,2.9,0.5,7.1,0.8,12.9c0.3,5.7,0.6,10,0.8,12.9c0.2,2.8,0.6,7.1,1.1,12.7c0.5,5.7,0.9,9.9,1.1,12.8
			c0.1,0.7,1.2,2.3,10.3,1.4c7.5-0.7,13.2-4,17-9.8c3.6-5.5,5.1-12.5,4.5-20.9c-0.6-7.9-3.3-14.2-8-18.8
			C1293.5,254.2,1287.4,252.1,1280.2,252.7z"/>
	</g>
	<g>
		<path class="st4" d="M1430.5,315c0.1,0.8-0.4,1.5-1.4,1.9c-1.2,0.5-5.1,1.1-11.7,1.8c-6,0.6-9.9,0.8-11.7,0.6
			c-1.5-0.2-2.5-1.2-3-2.9c-2-6.7-3.4-10.2-4.3-10.6c-0.7-0.3-6.4,0.1-17.2,1.2c-7.3,0.7-11.2,1.3-11.6,1.8
			c-0.7,0.8-1.3,3.5-1.8,7.9c-0.5,4.1-1.3,6.3-2.5,6.8c-1.4,0.5-6.3,1.2-14.8,2.1c-6.7,0.7-10,0.3-10.2-1.1
			c-0.1-1.3,3.6-17.1,11.1-47.4c8-32.4,12.3-50.1,13-53.3c0.4-1.8,0.9-2.8,1.6-2.8c1.2-0.1,2.9-0.1,5.4-0.1c2.4,0,4.2,0,5.4-0.1
			c1.1-0.1,2.8-0.3,5-0.7c2.2-0.3,3.9-0.6,5-0.6c0.8-0.1,1.6,0.6,2.4,2.1c2.5,4.7,9.9,21.1,22.3,49.1
			C1424.1,299,1430.4,313.7,1430.5,315z M1380.2,254.8c-0.7,2.2-1.9,6.8-3.4,13.9c-1.7,7.6-2.5,12-2.4,13.3c0.1,0.9,1.4,1.2,4,1.1
			c1.3,0,3.5-0.2,6.5-0.5c2.8-0.3,4.3-0.8,4.6-1.6c0.1-0.2,0.1-0.6,0-1c-0.1-1.6-1.5-5.8-4-12.6
			C1383,260.9,1381.2,256.6,1380.2,254.8z"/>
		<path class="st3" d="M1417.4,319.4c-6.1,0.6-10,0.8-11.8,0.6c-1.7-0.2-2.9-1.4-3.5-3.4c-2.7-8.9-3.7-10.1-3.9-10.2
			c-0.4-0.1-3.1-0.1-16.9,1.3c-9.3,0.9-11,1.5-11.2,1.6c-0.3,0.3-0.9,1.9-1.6,7.5c-0.5,4.4-1.5,6.8-2.9,7.3
			c-1.5,0.6-6.4,1.3-14.9,2.1c-9.3,1-10.7-0.2-10.8-1.7c0-0.5-0.2-2,11.1-47.6c8-32.2,12.3-50.1,13-53.2c0.2-0.8,0.7-3.2,2.1-3.4
			c1.2-0.1,3-0.1,5.4-0.1c2.4,0,4.2,0,5.4-0.1c1.1-0.1,2.8-0.3,5-0.6c2.2-0.3,3.9-0.6,5-0.7c1.1-0.1,2.1,0.7,3,2.5
			c2.5,4.8,10,21.3,22.4,49.1c18.8,42.4,18.9,43.8,18.9,44.4c0.1,0.8-0.2,1.9-1.8,2.6C1428,318.1,1424.1,318.7,1417.4,319.4z
			 M1381.2,306.3c16.2-1.6,17.1-1.3,17.4-1.2c0.8,0.4,1.9,2,4.7,11.1c0.5,1.5,1.2,2.3,2.5,2.5c1.7,0.2,5.6,0,11.6-0.6
			c8.1-0.8,10.7-1.4,11.5-1.7c1.1-0.5,1-1,1-1.2c-0.1-1-3.5-9.4-18.8-43.9c-12.3-27.8-19.8-44.3-22.3-49c-0.5-0.8-1.1-1.8-1.8-1.8
			c-1.1,0.1-2.7,0.3-4.9,0.6c-2.2,0.3-3.9,0.6-5.1,0.7c-1.2,0.1-3,0.1-5.5,0.1c-2.4,0-4.2,0-5.3,0.1c-0.1,0-0.6,0.1-1,2.3
			c-0.6,3.2-5,21-13,53.3c-9.2,37.2-11.1,46.2-11.1,47.1c0,0,0.2,1.4,9.5,0.4c8.3-0.9,13.2-1.6,14.6-2.1c0.4-0.2,1.4-1.1,2-6.2
			c0.8-6.2,1.5-7.7,2-8.3C1369.5,308,1370,307.4,1381.2,306.3z M1384.9,283.4c-3,0.3-5.2,0.4-6.6,0.5c-2.1,0.1-4.5,0-4.6-1.7
			c-0.1-0.9,0.1-3.2,2.4-13.6c1.6-7.1,2.7-11.8,3.5-14l0.4-1.3l0.7,1.2c1.1,1.9,2.8,6,5.3,12.8c2.6,7,3.9,11.2,4,12.8
			c0,0.5,0,0.9-0.1,1.3C1389.6,282.5,1388.1,283.1,1384.9,283.4z M1380.3,256.5c-0.7,2.5-1.7,6.7-3,12.4c-2.1,9.3-2.5,12.3-2.4,13.1
			c0,0,0.3,0.6,3.3,0.4c1.3,0,3.5-0.2,6.5-0.5c3.8-0.4,4-1.1,4-1.1c0-0.1,0.1-0.3,0-0.7c-0.1-1.5-1.5-5.7-4-12.4
			C1382.9,262.4,1381.4,258.7,1380.3,256.5z"/>
	</g>
	<g>
		<path class="st4" d="M1501.1,237c0.2,2,0,3.7-0.5,5.2c-4.2,12.4-10.3,25.6-18.3,39.7c-1.1,2.1-1.6,3.9-1.5,5.5
			c0.2,2.5,0.7,6.1,1.4,11c0.7,4.9,1.1,8.6,1.4,11c0.1,0.8,0,1.4-0.4,1.6c-0.1,0.1-0.6,0.2-1.6,0.5c-1.4,0.4-5.1,1-11,1.6
			c-6,0.6-9.8,0.9-11.5,0.8c-1.2-0.1-1.8-0.7-1.9-1.9c-0.2-2.5-0.4-6.3-0.4-11.4c-0.1-5.1-0.2-8.9-0.4-11.4
			c-0.1-1.5-0.8-3.1-1.9-4.7c-5.7-7.5-13.9-19.1-24.7-34.7c-1.1-1.7-1.7-3.2-1.8-4.3c-0.2-2.8-0.7-7-1.5-12.5
			c-0.7-5.6-1.2-9.7-1.5-12.5c-0.1-1.5,0.2-2.3,1-2.4c2.5-0.2,6.4-0.4,11.5-0.6c5.1-0.2,9-0.4,11.5-0.6c0.9-0.1,1.4,0.2,1.5,0.9
			c0.2,2.4,0.4,5.9,0.7,10.7c0.2,4.8,0.5,8.3,0.7,10.7c0.1,1.4,2.2,4.7,6.3,9.9c3.3,4.1,5.9,7.2,8,9.4c1.5-2.4,3.4-5.9,5.8-10.6
			c3-5.8,4.5-9.3,4.4-10.5c-0.2-2.3-0.7-5.8-1.4-10.4c-0.7-4.6-1.2-8.1-1.4-10.4c-0.1-1,0-1.5,0.4-1.7l1.5-0.1
			c2.4-0.2,6.1-0.6,10.9-1.3c4.8-0.6,8.5-1.1,10.9-1.3c0.8-0.1,1.3,0.9,1.5,2.8c0.2,2.4,0.6,6.1,1.1,10.9
			C1500.5,230.8,1500.9,234.5,1501.1,237z"/>
		<path class="st3" d="M1470.6,313.7c-6.1,0.6-9.8,0.9-11.6,0.8c-1.5-0.1-2.4-1-2.5-2.5c-0.2-2.5-0.4-6.4-0.4-11.5
			c-0.1-5.1-0.2-8.9-0.4-11.4c-0.1-1.4-0.7-2.8-1.8-4.3c-5.7-7.5-14-19.1-24.7-34.7c-1.2-1.9-1.8-3.4-1.9-4.7
			c-0.2-2.8-0.7-7-1.5-12.5c-0.7-5.5-1.2-9.7-1.5-12.5c-0.2-2.6,0.9-3.1,1.6-3.1c2.5-0.2,6.4-0.4,11.6-0.6c5.1-0.2,9-0.4,11.5-0.6
			c1.8-0.1,2.1,1,2.2,1.6c0.2,2.4,0.4,6,0.7,10.7c0.2,4.7,0.5,8.3,0.7,10.6c0.1,0.7,0.9,2.9,6.2,9.6c3,3.7,5.5,6.7,7.4,8.8
			c1.4-2.3,3.2-5.7,5.4-9.9c4-7.7,4.3-9.6,4.3-10.1c-0.2-2.3-0.7-5.8-1.4-10.4c-0.7-4.6-1.2-8.1-1.4-10.4c0-0.5-0.2-1.9,0.7-2.4
			l0.2,0l1.5-0.1c2.4-0.2,6.1-0.6,10.9-1.3c4.8-0.6,8.5-1.1,11-1.3c1.2-0.1,1.9,1.1,2.1,3.5c0.2,2.4,0.6,6.1,1.1,10.9
			c0.5,5,0.9,8.6,1.1,11c0.2,2.1,0,3.9-0.5,5.5c-4.2,12.3-10.3,25.7-18.3,39.8c-1,1.9-1.5,3.6-1.4,5c0.2,2.4,0.7,6.1,1.4,11
			c0.7,4.9,1.1,8.6,1.4,11c0,0.4,0.2,1.7-0.6,2.2c-0.1,0.1-0.2,0.1-1.8,0.6C1480.3,312.6,1476.6,313.1,1470.6,313.7z M1426,218.6
			c-0.2,0-0.6,0.1-0.5,1.7c0.2,2.8,0.7,7,1.4,12.5c0.7,5.6,1.2,9.8,1.5,12.6c0.1,1,0.7,2.4,1.7,4c10.7,15.5,19,27.2,24.7,34.6
			c1.2,1.8,1.9,3.4,2.1,5.1c0.2,2.5,0.4,6.4,0.4,11.5c0.1,5.1,0.2,8.9,0.4,11.3c0.1,0.6,0.3,1.2,1.3,1.2c1.6,0.1,5.5-0.1,11.4-0.8
			c5.9-0.6,9.5-1.1,10.9-1.5c1.2-0.3,1.4-0.4,1.5-0.5l0,0c0,0,0.1-0.2,0-0.9c-0.2-2.4-0.7-6.1-1.4-11c-0.7-4.9-1.1-8.6-1.4-11.1
			c-0.2-1.7,0.4-3.7,1.6-5.9c7.9-14,14.1-27.3,18.2-39.6c0.5-1.4,0.6-3.1,0.5-4.9c-0.2-2.4-0.6-6-1.1-11c-0.5-4.8-0.9-8.5-1.1-10.9
			c0-0.5-0.3-2.3-0.8-2.2c-2.4,0.2-6.1,0.6-10.9,1.3c-4.8,0.6-8.5,1.1-11,1.3l-1.4,0.1c0,0.1-0.1,0.4,0,1c0.2,2.3,0.7,5.7,1.4,10.3
			c0.7,4.6,1.2,8.1,1.4,10.5c0.1,0.9-0.3,3-4.4,10.9c-2.4,4.7-4.3,8.3-5.8,10.6l-0.4,0.6l-0.5-0.5c-2.1-2.2-4.8-5.4-8-9.5
			c-5.6-7.2-6.4-9.4-6.5-10.3c-0.2-2.3-0.4-6-0.7-10.7c-0.2-4.7-0.4-8.3-0.7-10.6c0-0.1,0-0.4-0.8-0.3c-2.6,0.2-6.4,0.4-11.6,0.6
			C1432.4,218.3,1428.5,218.4,1426,218.6z"/>
	</g>
</g>
<g>
	<path class="st4" d="M430.5,263.2c2.3,1.4,5.7,2.4,9.4,2.1c5.4-0.5,8.6-3.9,8.7-8.4c0.1-4.2-2-6.4-7.5-8.2
		c-6.6-2-10.6-5.4-10.4-11.7c0.2-7,5.6-12.6,13.5-13.3c4.2-0.4,7.2,0.4,9,1.4l-1.6,4.8c-1.3-0.7-4-1.8-7.7-1.4
		c-5.6,0.5-7.8,4.4-7.8,7.4c-0.1,4.2,2.3,6,7.9,7.9c6.8,2.3,10.3,5.6,10.1,12.2c-0.2,6.9-5,13.3-14.6,14.2
		c-3.9,0.3-8.2-0.5-10.3-1.9L430.5,263.2z"/>
	<path class="st4" d="M462,223.2c2.6-0.7,5.9-1.4,10.2-1.8c5.2-0.5,9,0.5,11.4,2.7c2.2,1.9,3.5,5.1,3.4,9.1
		c-0.1,4.1-1.3,7.4-3.4,9.9c-2.9,3.5-7.5,5.6-12.7,6.1c-1.6,0.1-3,0.2-4.3,0l-0.4,18l-5.3,0.5L462,223.2z M466.8,244.4
		c1.1,0.2,2.6,0.2,4.4,0.1c6.4-0.6,10.4-4.3,10.5-10.5c0.1-5.9-3.6-8.4-9.5-7.9c-2.3,0.2-4.1,0.6-5,0.9L466.8,244.4z"/>
	<path class="st4" d="M515.3,241.7l-16.1,1.4l-0.3,16.3l17.9-1.6l-0.1,4.9l-23.3,2l1-45l22.3-2.1l-0.1,4.9l-17,1.6l-0.3,14.2
		l16.1-1.5L515.3,241.7z"/>
	<path class="st4" d="M552.8,258c-2,1.3-6,2.7-11.1,3.1c-11.8,1-20.4-6.3-20.1-21.1c0.3-14.1,9.3-24.5,22.2-25.7
		c5.2-0.5,8.4,0.4,9.9,1.1l-1.4,4.9c-2-0.9-4.9-1.4-8.4-1.1c-9.8,0.9-16.4,8.3-16.6,20.1c-0.2,11.1,5.5,17.7,15.7,16.8
		c3.3-0.3,6.6-1.3,8.8-2.7L552.8,258z"/>
	<path class="st4" d="M565.8,213.1l-0.8,45.4l-5.4,0.5l0.8-45.3L565.8,213.1z"/>
	<path class="st4" d="M581.5,242.7l-4.6,14.7l-5.6,0.5l15-46.7l6.5-0.6l13.7,44.2l-5.8,0.5l-4.3-13.9L581.5,242.7z M595.4,236.9
		l-3.9-12.7c-0.9-2.9-1.5-5.5-2.1-8.1l-0.1,0c-0.7,2.8-1.4,5.6-2.3,8.4l-4.3,13.5L595.4,236.9z"/>
	<path class="st4" d="M613.4,208.7l5.5-0.5l-0.6,40.7l18.2-1.6l-0.1,5l-23.6,2.1L613.4,208.7z"/>
	<path class="st4" d="M692.8,223.8c-0.2,15.8-9.2,25-20.2,26c-11.3,1-19.1-7.7-19-21.6c0.2-14.5,8.7-24.8,20.1-25.8
		C685.5,201.3,693,210.1,692.8,223.8z M659.6,227.5c-0.1,9.8,4.7,18.1,13.4,17.4c8.8-0.8,13.8-9.9,14-20.3
		c0.1-9.1-4.3-18.2-13.5-17.4C664.4,208,659.7,217.5,659.6,227.5z"/>
	<path class="st4" d="M700.3,200.6l23.2-2.2l0,5l-17.7,1.6l-0.1,15.3l16.3-1.5l0,4.9l-16.3,1.5l-0.2,20.8l-5.6,0.5L700.3,200.6z"/>
	<path class="st4" d="M731.5,197.7l23.4-2.2l0,5l-17.8,1.6l-0.1,15.3l16.4-1.5l0,4.9l-16.5,1.5l-0.1,20.9l-5.6,0.5L731.5,197.7z"/>
	<path class="st4" d="M785.4,217.3l-17,1.5l-0.1,16.7l19-1.7l0,5l-24.6,2.2l0.2-46.3l23.6-2.2l0,5l-18,1.7l-0.1,14.6l17-1.5
		L785.4,217.3z"/>
	<path class="st4" d="M794.8,192.5c2.9-0.9,7-1.6,10.9-2c6.1-0.6,10,0.2,12.7,2.6c2.2,1.9,3.5,4.9,3.5,8.5c0,6.1-3.7,10.5-8.3,12.6
		l0,0.2c3.4,0.9,5.4,4.1,6.5,8.8c1.4,6.4,2.5,10.8,3.4,12.5l-5.9,0.5c-0.7-1.3-1.7-5.2-2.9-10.9c-1.3-6.3-3.6-8.5-8.8-8.3l-5.4,0.5
		l-0.1,20.1l-5.7,0.5L794.8,192.5z M800.4,213.1l5.8-0.5c6.1-0.5,9.9-4.4,10-9.7c0-6-4.1-8.2-10.1-7.7c-2.7,0.3-4.7,0.7-5.6,1.1
		L800.4,213.1z"/>
	<path class="st4" d="M829.1,227.9c2.6,1.4,6.3,2.5,10.3,2.1c5.9-0.5,9.3-4.1,9.3-8.8c0-4.4-2.4-6.6-8.4-8.5
		c-7.2-2-11.7-5.6-11.7-12.1c0-7.2,5.7-13.1,14.3-13.9c4.5-0.4,7.8,0.4,9.8,1.4l-1.6,5.1c-1.4-0.7-4.4-1.8-8.4-1.4
		c-6,0.6-8.3,4.6-8.4,7.7c0,4.3,2.7,6.2,8.8,8.2c7.5,2.4,11.3,5.8,11.3,12.7c0,7.2-5.1,13.9-15.6,14.8c-4.3,0.4-8.9-0.5-11.3-2
		L829.1,227.9z"/>
</g>
<g>
	<g>
		<path class="st3" d="M1410.3,370.1l21.6-39.9l4.7-0.5l-21.6,39.9L1410.3,370.1z"/>
	</g>
	<g>
		<path class="st5" d="M1386.1,334.5l-20,1l-2.7,10.1c1.2-0.2,2.4-0.4,4.4-0.5c4.1-0.2,8.1,0.2,11.3,1.4c4,1.5,7.2,4.6,6.9,9.4
			c-0.4,7.5-8.9,13.8-20.5,14.7c-5.9,0.5-10.9-0.4-13.4-1.4l2.1-4.2c2.2,0.8,6.6,1.7,11.5,1.3c6.8-0.5,12.8-4.2,13.1-9.4
			c0.2-5-4.1-8.3-14.8-7.6c-3.1,0.2-5.5,0.6-7.5,0.9l4.7-18.9l25.2-1.1L1386.1,334.5z"/>
		<path class="st3" d="M1460.6,351c-0.3,7.6-6.3,12-13.5,12.6c-7.6,0.6-12.8-3.6-12.5-10.4c0.3-7.1,6.2-12.1,13.8-12.5
			C1456.1,340.2,1460.9,344.5,1460.6,351z M1438.7,352.8c-0.2,4.8,3,8.8,8.8,8.4c5.8-0.4,9.2-4.8,9.4-9.8c0.2-4.4-2.6-8.7-8.6-8.4
			C1442.2,343.4,1438.9,347.9,1438.7,352.8z"/>
		<path class="st3" d="M1418.6,340c-0.4,7.8-6.9,12.4-14.6,12.9c-8.2,0.5-13.7-3.9-13.3-10.9c0.4-7.3,6.8-12.4,15-12.8
			C1413.9,328.8,1418.9,333.3,1418.6,340z M1395,341.7c-0.3,4.9,3.1,9.2,9.3,8.8c6.2-0.4,9.9-4.9,10.2-10.1c0.2-4.5-2.7-9.1-9.2-8.8
			C1398.8,331.9,1395.3,336.6,1395,341.7z"/>
		<path class="st5" d="M1465.6,340.1l14.5-0.8l-0.1,2.3l-11,0.6l-0.2,7.2l10.2-0.7l-0.1,2.3l-10.2,0.7l-0.3,9.9l-3.5,0.3
			L1465.6,340.1z"/>
		<path class="st5" d="M1485,339l14-0.8l-0.1,2.3l-10.6,0.6l-0.2,7.1l9.9-0.6l-0.1,2.3l-9.9,0.7l-0.3,9.7l-3.4,0.3L1485,339z"/>
	</g>
</g>
<g>
	<g>
		<g>
			<path class="st3" d="M430.1,448.2c2.2,0.8,4.5,1.7,6.7,2.5c2.3,0.8,4.6,1.6,6.9,2.4c4.6,1.6,9.3,3.2,14,4.9
				c4.7,1.5,9.5,3.1,14.4,4.6c2.4,0.8,4.8,1.6,7.3,2.4c2.5,0.7,4.9,1.4,7.4,2.2c19.7,6,40.2,11.2,60.9,15.8
				c5.2,1.1,10.4,2.2,15.5,3.3c5.2,1,10.4,1.9,15.6,2.9c2.6,0.5,5.2,0.9,7.8,1.4c2.6,0.4,5.2,0.8,7.8,1.2c5.2,0.8,10.3,1.6,15.5,2.3
				c10.3,1.3,20.4,2.7,30.5,3.5c2.5,0.2,5,0.5,7.5,0.7c1.2,0.1,2.5,0.2,3.7,0.3c1.2,0.1,2.5,0.2,3.7,0.3c4.9,0.3,9.8,0.6,14.6,1
				c23.1,1.2,46.6,1.8,70.5,1.7c23.8-0.2,47.9-1.1,71.9-2.6c24-1.5,48-3.7,71.7-6.4c23.7-2.7,47.1-5.9,70-9.6
				c0.1,0.9-7.3,3.4,0.4,2.7c30.8-3.6,31.1-2,31.4-0.2c0.2,1-22.9,3.9-15.1,3.5c-2.9,0.5-6,1-9.2,1.6c-3.2,0.5-6.5,1.1-9.7,1.6
				c-6.5,1.1-12.7,2.1-17.5,2.9c-9.6,1.6-13.4,2.5-1.8,1.3c2-0.1,5.3-0.4,9.4-1c4.1-0.6,8.9-1.3,13.7-2c4.8-0.7,9.6-1.4,13.7-2
				c4.1-0.6,7.5-0.9,9.4-0.9c7.9,0-7.2,4,0.7,4c3.9-0.6,9.6-1.7,15.4-2.7c5.7-1.1,11.5-2.1,15.3-2.8c7.8-0.6-7.2,4.2,0.5,2.7
				c23.2-3.4,53.7-10.2,84-17.1c0.2,0.9,8,0.1-7.1,3.9c-33.3,7.6-66.9,14.5-100.7,20.6c-33.9,6.1-68,11.2-102.4,15.2
				c-68.8,8-138.6,11-208.3,6.6c-4.4-0.2-8.7-0.6-13-0.9l-13-1l-13-1.3l-6.5-0.7l-3.3-0.3l-3.2-0.4l-13-1.7l-6.5-0.8l-6.5-1l-12.9-2
				c-2.2-0.3-4.3-0.7-6.5-1.1l-6.4-1.2c-4.3-0.8-8.6-1.5-12.9-2.3l-12.8-2.7c-8.6-1.7-17-3.8-25.5-5.8c-4.3-1-8.5-2.1-12.7-3.2
				l-12.7-3.4c-4.2-1.2-8.4-2.5-12.6-3.7l-6.3-1.9c-2.1-0.6-4.2-1.2-6.3-1.9c-16.6-5.4-33.1-11.1-49.3-17.6l-12.1-4.9l-12-5.3
				c-4-1.8-8-3.5-11.9-5.3c-4-1.8-7.9-3.8-11.9-5.8c-7.9-4.1-15.8-8.5-23.4-13.7c-7.5-5.2-14.7-11-21.3-17.3
				c-13.2-12.6-24.4-27.2-33-43.2c-3.9-7.4-5.5-11.8-6.1-13.6c-0.2-0.9-0.2-1.2,0-1c0.2,0.2,0.7,0.8,1.4,1.9
				c0.7,1.1,1.6,2.6,2.6,4.4c1.1,1.8,2.3,3.8,3.7,6.1c2.8,4.4,6.3,9.5,10,14.4c-2.4-3.3-3.4-5.1-4.2-7c-0.9-1.9-1.7-3.7-3.9-7.1
				c0.6-0.3,3.2,2.9,8.2,9.2c5,6.3,12.4,15.7,23.7,26.7c-5.6-5.6-10.8-11.6-15.5-17.9c-4.3-6.6,1.1-0.8,1.8-1.4
				c2.3,3.1,4.8,6.1,6.7,8.3c2,2.2,3.4,3.5,3.5,3.4c0.3-0.3,1-0.9,1.3-1.2c-2.5-2.9-6.4-7.2-9.8-11.9c-0.9-1.1-1.7-2.3-2.5-3.5
				c-0.8-1.2-1.6-2.3-2.3-3.4c-1.4-2.2-2.8-4.2-3.8-5.9c4,6.6,8.6,12.8,9,12.5c0.4-0.3,1.1-0.8,1.5-1.1c4.7,5.9,10.8,13.2,17.6,19.8
				c6.8,6.7,14.2,12.6,20.7,16.6l0.8-1.1c-6.1-4.4-13.6-10.1-20.4-16.6c-6.8-6.4-13.1-13.5-17.6-19.5c1.2,1.4,2.2,2.5,2.9,3.2
				c0.8,0.7,1.3,1.2,1.7,1.5c0.8,0.5,1.1,0.3,1.4,0c0.9,1.1,1.8,2.1,2.8,3.1l2.8,3.1c1.9,2,3.8,4.1,5.8,6c1.9,2,4,3.8,6.1,5.8
				c2.1,1.8,4.2,3.7,6.4,5.4c8.7,7,18.2,12.8,28.7,17.4c-6.7-3.5-13.2-7.1-19.3-11.3c3.4,1.6,7.8,4,13.1,6.8
				c5.3,2.8,11.4,5.8,17.8,8.9c1.6,0.8,3.3,1.5,4.9,2.3c1.7,0.7,3.3,1.5,5,2.2c3.3,1.5,6.6,3,9.9,4.4c1.6,0.7,3.2,1.4,4.8,2.1
				c1.6,0.6,3.2,1.3,4.7,1.9C424.5,446.1,427.4,447.2,430.1,448.2z"/>
		</g>
	</g>
</g>
<g>
	<g>
		<g>
			<path class="st3" d="M1441.6,183.8c-10.3-1.9-20.8-4-31.6-6.1c-5.4-1.1-10.8-2-16.3-3c-5.5-1-11-2-16.6-3
				c-5.6-1-11.2-2.1-16.8-3.1c-5.7-0.9-11.3-1.9-17-2.8c-5.7-1-11.4-1.9-17.1-2.9c-5.7-0.9-11.5-2-17.2-2.8
				c-11.5-1.7-23-3.4-34.5-5.1c-2.9-0.4-5.7-0.9-8.6-1.2c-2.9-0.4-5.7-0.7-8.6-1.1c-5.7-0.7-11.4-1.4-17-2.1
				c-5.6-0.7-11.3-1.4-16.8-2c-5.6-0.6-11.1-1.1-16.6-1.7c-11-1-21.8-2.1-32.3-3c-101-7.4-210.8-10.5-312-5.7c0-0.9,8.3-2.6-0.1-2.7
				c-4.2,0-7.9,0-11.2-0.1c-3.2,0-6,0-8.4-0.1c-4.8-0.1-8-0.3-10.1-0.6c-4.3-0.6-4.3-1.5-4.4-2.4c-0.1-0.9,25.3-1.5,16.9-1.9
				c1.6-0.1,3.2-0.2,4.9-0.3c1.7-0.1,3.4-0.1,5.2-0.2c3.5-0.2,7.2-0.3,10.7-0.5c7.1-0.3,14-0.7,19.3-1c10.6-0.6,14.8-1.1,2.1-1.1
				c-8.5-0.5-42.3,1.5-50.9,0.9c-8.6-0.9,8.3-3.2-0.2-4.1c-8.5,0.5-25.5,1.5-33.9,2c-4.3-0.1-2.2-1-0.1-1.7c2.1-0.7,4.2-1.3-0.1-1
				c-12.7,0.6-27.6,1.6-43.5,2.9c-4,0.3-8,0.8-12.1,1.2c-4.1,0.4-8.2,0.9-12.4,1.3c-8.3,0.9-16.8,1.7-25.2,2.6
				c-0.1-0.5-2.2-0.7-2.3-1.1c-0.1-0.4,2-1,10.5-2c74.1-8.1,149-12.8,224.4-13.9c75.3-0.9,151,1.9,226.3,8.3
				c9.4,0.7,18.8,1.7,28.2,2.7l28.2,2.9l28.1,3.4c9.4,1.2,18.8,2.2,28.1,3.6c9.3,1.3,18.7,2.7,28,4l7,1c2.3,0.3,4.7,0.8,7,1.1
				l14,2.3c9.3,1.5,18.6,3.1,27.9,4.6c9.3,1.7,18.5,3.5,27.8,5.2l13.9,2.6c2.3,0.4,4.6,0.9,6.9,1.4l6.9,1.4
				c9.2,1.9,18.4,3.8,27.6,5.8c18.4,3.9,36.7,8.1,55,12.9c9.1,2.3,18.3,5,27.3,7.6c9.1,2.8,18.1,5.6,27.1,8.9
				c9,3.1,17.8,6.6,26.6,10.3l6.6,2.9l3.3,1.4l3.2,1.5l6.5,3l6.4,3.2c3.9,2,6.9,3.7,9.1,5c2.2,1.3,3.7,2.2,4.5,2.8
				c1.6,1.2,0.8,1.1-1.8,0.1c-5.1-2-17-7.5-29.1-12.1c8,3.2,7.5,4.4,15.4,7.8c-0.2,0.3-1.3,0.2-3.4-0.4c-1.1-0.3-2.3-0.7-3.9-1.2
				c-1.6-0.5-3.3-1.1-5.4-1.8c-8.1-2.9-20.1-7.4-36.2-13c4,1.5,8,3,12,4.5l5.9,2.4l3,1.2l2.9,1.3c7.7,3.8-0.5,1.2-0.9,2.1
				c-7.8-3.3-15.7-6.4-15.9-5.9c-0.2,0.4-0.5,1.3-0.6,1.7c2,0.7,4.4,1.7,7.1,2.8c2.7,1.1,5.6,2.2,8.5,3.5c2.9,1.3,5.8,2.5,8.5,3.7
				c2.6,1.2,5,2.3,6.9,3.2c-1.9-0.9-3.8-1.8-5.6-2.6c-0.9-0.4-1.8-0.8-2.6-1.2c-0.8-0.3-1.6-0.7-2.4-1c-2.9-1.2-4.9-1.9-5-1.7
				c-0.2,0.4-0.5,1.3-0.7,1.7c-15.5-6.3-39.1-15.4-55.5-19.7l-0.4,1.3c16,5.1,40,12.9,55.3,19.6c-3.9-1.5-6-2-7.1-2.1
				c-1.1-0.1-1.2,0.2-1.4,0.6c-11.7-4.5-23.4-8.9-35.4-12.8c-11.9-3.9-24.1-7.3-36.4-9.9c8.1,2.1,16.2,4.4,24.3,6.7
				c-8.4-1.3-22.5-5.1-37.8-9c-7.6-1.9-15.6-3.9-23.1-5.7c-3.8-0.9-7.5-1.7-11-2.5C1448.1,185,1444.7,184.4,1441.6,183.8z"/>
		</g>
	</g>
</g>
</svg>
