<?xml version="1.0" encoding="utf-8"?>
<!-- Generator: Adobe Illustrator 27.4.0, SVG Export Plug-In . SVG Version: 6.00 Build 0)  -->
<svg version="1.1" id="Layer_1" xmlns="http://www.w3.org/2000/svg" xmlns:xlink="http://www.w3.org/1999/xlink" x="0px" y="0px"
	 viewBox="0 0 500 500" style="enable-background:new 0 0 500 500;" xml:space="preserve">
<style type="text/css">
	.st0{fill:#8ECAA8;}
	.st1{fill:#0D3E1E;}
	.st2{fill:none;stroke:#8ECAA8;stroke-miterlimit:10;}
	.st3{fill:#0D3E1E;stroke:#8ECAA8;stroke-miterlimit:10;}
	.st4{fill:none;stroke:#D1E28F;stroke-miterlimit:10;}
	.st5{font-family:'MyriadPro-Regular';}
	.st6{font-size:67.8853px;}
	.st7{fill:#DAE8A4;}
	.st8{fill:#D1E28F;}
	.st9{font-size:41.0352px;}
	.st10{fill:#F9F071;}
	.st11{font-size:9.0327px;}
	.st12{font-size:6.0611px;}
	.st13{fill:none;stroke:#C0E2C8;stroke-miterlimit:10;}
	.st14{font-size:10.533px;}
	.st15{fill:none;}
	.st16{fill:#F1ED76;}
	.st17{font-size:44.3864px;}
	.st18{font-size:15px;}
	.st19{font-size:10px;}
	.st20{font-family:'AdobeMyungjoStd-Medium-KSCpc-EUC-H';}
	.st21{fill:none;stroke:#8ECAA8;stroke-width:2;stroke-miterlimit:10;}
</style>
<symbol  id="New_Symbol" viewBox="-2.24 -2.24 4.47 4.47">
	<circle class="st0" cx="0" cy="0" r="2.24"/>
</symbol>
<rect class="st1" width="500" height="500"/>
<circle class="st2" cx="152.69" cy="441.53" r="2.93"/>
<circle class="st2" cx="158.55" cy="441.53" r="2.93"/>
<ellipse transform="matrix(0.9375 -0.3481 0.3481 0.9375 -49.7768 139.9922)" class="st2" cx="364.69" cy="208.52" rx="6.61" ry="2.49"/>
<ellipse class="st3" cx="364.94" cy="210.35" rx="6.61" ry="2.49"/>
<ellipse transform="matrix(0.3481 -0.9375 0.9375 0.3481 35.6431 468.2953)" class="st2" cx="354.54" cy="208.52" rx="2.49" ry="6.61"/>
<path class="st3" d="M347.69,210.35c0-1.37,2.96-2.49,6.61-2.49c3.65,0,6.61,1.11,6.61,2.49c0,1.37-2.96,2.49-6.61,2.49
	C350.64,212.84,347.69,211.72,347.69,210.35z"/>
<g>
	<text transform="matrix(1 0 0 1 119.2929 186.936)" class="st4 st5 st6">HOLIDAY</text>
</g>
<g>
	<text transform="matrix(1 0 0 1 158.3852 240.7837)" class="st4 st5 st6">PARTY</text>
</g>
<g>
	<g>
		<path class="st7" d="M119.37,77.57c0.11-2.15,0.16-3.23,0.27-5.39c-1.01-3.32-1.51-4.99-2.51-8.34c0.53,0.2,0.8,0.29,1.34,0.49
			c0.44,1.59,0.66,2.38,1.11,3.96c0.3,1.08,0.54,1.95,0.77,2.93c0.01,0,0.02,0.01,0.03,0.01c0.3-0.74,0.65-1.46,1.05-2.31
			c0.59-1.23,0.89-1.84,1.48-3.07c0.54,0.17,0.8,0.26,1.34,0.43c-1.37,2.53-2.05,3.79-3.42,6.29c-0.11,2.16-0.16,3.24-0.27,5.41
			C120.08,77.81,119.85,77.73,119.37,77.57z"/>
		<path class="st7" d="M135.65,75.69c-0.22,4.37-2.25,6.25-4.58,5.64c-2.41-0.63-3.98-3.73-3.78-7.57c0.2-4.03,2.13-6.14,4.57-5.5
			C134.36,68.9,135.84,71.92,135.65,75.69z M128.55,74.07c-0.13,2.71,0.8,5.45,2.66,5.93c1.87,0.49,3.05-1.66,3.19-4.54
			c0.13-2.52-0.69-5.38-2.66-5.89C129.79,69.06,128.69,71.29,128.55,74.07z"/>
		<path class="st7" d="M141.56,70.68c-0.15,3.01-0.22,4.51-0.37,7.52c-0.14,2.84,0.71,4.23,1.93,4.46c1.36,0.25,2.29-0.85,2.43-3.65
			c0.15-3.01,0.22-4.51,0.37-7.52c0.48,0.08,0.72,0.12,1.2,0.2c-0.15,2.96-0.22,4.44-0.37,7.4c-0.19,3.9-1.76,5.26-3.74,4.89
			c-1.88-0.35-3.22-2.13-3.02-6.07c0.15-2.99,0.22-4.49,0.37-7.48C140.84,70.53,141.08,70.58,141.56,70.68z"/>
		<path class="st7" d="M153.56,72.41c-0.39,1.54-1.08,3.48-1.5,4.3c-0.31,0.01-0.46,0.02-0.77,0.03c0.36-1.07,0.81-2.98,1.02-4.32
			C152.81,72.42,153.06,72.42,153.56,72.41z"/>
		<path class="st7" d="M156.61,73.16c0.61-0.1,1.47-0.1,2.29-0.02c1.27,0.13,2.07,0.53,2.61,1.29c0.43,0.6,0.65,1.49,0.6,2.47
			c-0.08,1.68-0.9,2.72-1.9,3.09c0,0.02,0,0.03,0,0.06c0.69,0.41,1.07,1.35,1.23,2.68c0.21,1.79,0.37,3.04,0.54,3.54
			c-0.49-0.04-0.74-0.06-1.23-0.1c-0.13-0.37-0.29-1.49-0.46-3.09c-0.19-1.77-0.65-2.48-1.72-2.64c-0.45-0.04-0.67-0.07-1.12-0.12
			c-0.11,2.2-0.16,3.3-0.27,5.5c-0.48-0.05-0.71-0.08-1.19-0.13C156.24,80.68,156.37,78.17,156.61,73.16z M157.51,79.07
			c0.49,0.05,0.73,0.08,1.22,0.13c1.27,0.13,2.12-0.76,2.2-2.21c0.08-1.64-0.75-2.44-2-2.57c-0.57-0.06-0.99-0.03-1.18,0.03
			C157.65,76.29,157.61,77.22,157.51,79.07z"/>
		<path class="st7" d="M171.32,80.87c-1.44-0.06-2.15-0.09-3.59-0.18c-0.09,1.83-0.14,2.75-0.23,4.58c1.6,0.09,2.4,0.13,4,0.19
			c-0.03,0.55-0.04,0.83-0.07,1.38c-2.08-0.08-3.12-0.14-5.19-0.26c0.25-5.08,0.38-7.62,0.63-12.7c1.99,0.12,2.99,0.18,4.99,0.26
			c-0.03,0.55-0.04,0.82-0.07,1.37c-1.52-0.06-2.28-0.1-3.79-0.19c-0.08,1.6-0.12,2.41-0.2,4.01c1.44,0.08,2.15,0.12,3.59,0.18
			C171.36,80.06,171.35,80.33,171.32,80.87z"/>
		<path class="st7" d="M180.63,74.34c-0.25,5.08-0.38,7.62-0.63,12.7c-0.48,0-0.72,0-1.19-0.01c0.25-5.08,0.38-7.62,0.63-12.7
			C179.91,74.33,180.15,74.34,180.63,74.34z"/>
		<path class="st7" d="M185,87.02c0.25-5.08,0.38-7.62,0.63-12.7c0.52-0.01,0.78-0.01,1.31-0.02c1.06,2.55,1.59,3.82,2.65,6.36
			c0.61,1.47,1.08,2.79,1.46,4.08c0.01-0.01,0.02-0.01,0.03-0.02c-0.03-1.69,0.02-3.24,0.12-5.21c0.11-2.12,0.16-3.19,0.26-5.31
			c0.45-0.01,0.68-0.02,1.13-0.04c-0.25,5.08-0.38,7.62-0.63,12.7c-0.48,0.02-0.73,0.02-1.21,0.04c-1.05-2.54-1.57-3.82-2.62-6.37
			c-0.58-1.4-1.12-2.84-1.52-4.21c-0.02,0.01-0.03,0.01-0.04,0.02c-0.01,1.6-0.06,3.13-0.16,5.24c-0.11,2.17-0.16,3.25-0.27,5.42
			C185.67,87.01,185.45,87.02,185,87.02z"/>
		<path class="st7" d="M198.51,86.59c-0.96-5.02-1.44-7.53-2.4-12.55c0.52-0.02,0.78-0.03,1.29-0.06c0.45,2.47,0.68,3.71,1.14,6.18
			c0.31,1.69,0.58,3.22,0.76,4.7c0.01,0,0.02,0,0.03,0c0.33-1.48,0.8-3.11,1.29-4.79c0.75-2.54,1.13-3.82,1.88-6.36
			c0.51-0.03,0.77-0.05,1.28-0.08c-1.58,5.16-2.37,7.74-3.95,12.89C199.3,86.55,199.03,86.56,198.51,86.59z"/>
		<path class="st7" d="M208.9,73.28c-0.25,5.08-0.38,7.62-0.63,12.7c-0.48,0.04-0.72,0.05-1.2,0.09c0.25-5.08,0.38-7.62,0.63-12.7
			C208.18,73.33,208.42,73.31,208.9,73.28z"/>
		<path class="st7" d="M215.05,74.18c-1.13,0.1-1.7,0.14-2.83,0.23c0.03-0.56,0.04-0.84,0.07-1.39c2.75-0.22,4.13-0.34,6.88-0.59
			c-0.03,0.56-0.04,0.84-0.07,1.39c-1.14,0.1-1.7,0.15-2.84,0.25c-0.22,4.52-0.34,6.78-0.56,11.3c-0.49,0.04-0.73,0.06-1.21,0.1
			C214.72,80.96,214.83,78.7,215.05,74.18z"/>
		<path class="st7" d="M227.62,78.34c-1.45,0.14-2.17,0.22-3.62,0.36c-0.09,1.83-0.14,2.75-0.23,4.58c1.61-0.16,2.42-0.24,4.03-0.4
			c-0.03,0.55-0.04,0.83-0.07,1.38c-2.09,0.21-3.14,0.31-5.23,0.51c0.25-5.08,0.38-7.62,0.63-12.7c2.01-0.19,3.01-0.29,5.02-0.49
			c-0.03,0.55-0.04,0.82-0.07,1.37c-1.53,0.15-2.29,0.23-3.82,0.38c-0.08,1.6-0.12,2.41-0.2,4.01c1.45-0.14,2.17-0.21,3.62-0.36
			C227.66,77.52,227.65,77.8,227.62,78.34z"/>
		<path class="st7" d="M232.85,71.26c0.74-0.23,1.61-0.43,2.57-0.53c1.73-0.18,2.93,0.24,3.69,1.18c0.77,0.95,1.19,2.37,1.09,4.42
			c-0.1,2.07-0.66,3.82-1.58,5.08c-0.93,1.27-2.4,2.07-4.2,2.26c-0.86,0.09-1.57,0.11-2.17,0.08
			C232.47,78.76,232.6,76.26,232.85,71.26z M233.49,82.37c0.3,0.04,0.74,0.02,1.21-0.03c2.57-0.27,4.05-2.38,4.23-5.81
			c0.16-2.99-0.99-4.77-3.53-4.5c-0.62,0.07-1.09,0.19-1.42,0.32C233.79,76.35,233.69,78.36,233.49,82.37z"/>
		<path class="st7" d="M248.97,78.05c-0.47,1.64-0.7,2.46-1.16,4.1c-0.5,0.05-0.75,0.08-1.24,0.13c1.52-5.21,2.27-7.82,3.79-13.03
			c0.58-0.06,0.87-0.09,1.45-0.15c1.02,4.95,1.53,7.42,2.54,12.37c-0.51,0.05-0.77,0.08-1.28,0.13c-0.32-1.56-0.48-2.33-0.8-3.89
			C250.95,77.84,250.29,77.91,248.97,78.05z M252.09,76.45c-0.29-1.42-0.44-2.14-0.73-3.56c-0.17-0.81-0.27-1.55-0.37-2.27
			c-0.01,0-0.02,0-0.03,0c-0.18,0.77-0.37,1.56-0.58,2.35c-0.44,1.51-0.66,2.26-1.09,3.77C250.41,76.63,250.97,76.57,252.09,76.45z"
			/>
		<path class="st7" d="M268.09,79.75c-0.46,0.34-1.35,0.72-2.48,0.82c-2.62,0.24-4.48-1.83-4.28-6c0.2-3.97,2.3-6.86,5.19-7.12
			c1.16-0.1,1.87,0.17,2.18,0.37c-0.14,0.54-0.21,0.82-0.36,1.36c-0.44-0.26-1.08-0.43-1.85-0.36c-2.18,0.2-3.72,2.24-3.89,5.57
			c-0.15,3.11,1.06,4.98,3.32,4.78c0.73-0.07,1.49-0.34,1.98-0.7C267.98,78.98,268.01,79.24,268.09,79.75z"/>
		<path class="st7" d="M277.6,73.48c-1.44,0.1-2.17,0.15-3.61,0.27c-0.09,1.83-0.14,2.75-0.23,4.58c1.61-0.12,2.41-0.18,4.02-0.29
			c-0.03,0.55-0.04,0.83-0.07,1.38c-2.09,0.14-3.13,0.22-5.22,0.39c0.25-5.08,0.38-7.62,0.63-12.7c2.01-0.16,3.01-0.23,5.02-0.37
			c-0.03,0.55-0.04,0.82-0.07,1.37c-1.53,0.11-2.29,0.16-3.82,0.28c-0.08,1.6-0.12,2.41-0.2,4.01c1.44-0.11,2.17-0.16,3.61-0.27
			C277.64,72.67,277.63,72.94,277.6,73.48z"/>
		<path class="st7" d="M282.83,66.42c0.48-0.03,0.72-0.04,1.2-0.07c-0.22,4.53-0.34,6.79-0.56,11.32c1.59-0.09,2.38-0.13,3.96-0.2
			c-0.03,0.55-0.04,0.83-0.07,1.38c-2.06,0.1-3.1,0.15-5.16,0.27C282.45,74.04,282.57,71.5,282.83,66.42z"/>
		<path class="st7" d="M296.71,72.59c-1.44,0.03-2.16,0.05-3.6,0.09c-0.09,1.83-0.14,2.75-0.23,4.58c1.61-0.05,2.41-0.07,4.01-0.1
			c-0.03,0.55-0.04,0.83-0.07,1.38c-2.08,0.04-3.13,0.07-5.21,0.14c0.25-5.08,0.38-7.62,0.63-12.7c2-0.07,3-0.1,5.01-0.13
			c-0.03,0.55-0.04,0.82-0.07,1.37c-1.52,0.03-2.28,0.05-3.81,0.09c-0.08,1.6-0.12,2.41-0.2,4.01c1.44-0.04,2.16-0.06,3.6-0.09
			C296.75,71.78,296.73,72.05,296.71,72.59z"/>
		<path class="st7" d="M301.91,65.96c0.53-0.15,1.36-0.27,2.2-0.26c1.19,0.01,1.95,0.32,2.49,0.95c0.44,0.5,0.71,1.25,0.66,2.25
			c-0.06,1.22-0.7,2.29-1.7,2.77c0,0.02,0,0.02,0,0.04c0.86,0.31,1.84,1.33,1.75,3.21c-0.05,1.09-0.41,1.93-0.91,2.53
			c-0.67,0.8-1.75,1.16-3.26,1.16c-0.82,0-1.45-0.08-1.85-0.15C301.54,73.46,301.66,70.96,301.91,65.96z M302.85,71.16
			c0.43,0,0.65,0,1.08,0c1.26,0.01,2.05-0.89,2.11-2.11c0.07-1.49-0.72-2.08-1.93-2.09c-0.55,0-0.87,0.05-1.06,0.11
			C302.97,68.71,302.93,69.53,302.85,71.16z M302.55,77.25c0.23,0.06,0.57,0.08,1,0.08c1.24,0.01,2.41-0.6,2.5-2.45
			c0.09-1.73-0.96-2.46-2.27-2.47c-0.4,0-0.59,0-0.99,0C302.69,74.34,302.64,75.31,302.55,77.25z"/>
		<path class="st7" d="M312.26,66.13c0.61-0.15,1.48-0.21,2.3-0.17c1.27,0.06,2.08,0.43,2.62,1.17c0.43,0.59,0.65,1.47,0.61,2.45
			c-0.08,1.68-0.9,2.74-1.9,3.14c0,0.02,0,0.03,0,0.06c0.7,0.38,1.07,1.31,1.23,2.64c0.21,1.79,0.37,3.03,0.54,3.53
			c-0.49-0.03-0.74-0.05-1.23-0.07c-0.13-0.37-0.29-1.48-0.47-3.07c-0.19-1.76-0.65-2.45-1.73-2.56c-0.45-0.02-0.67-0.03-1.12-0.05
			c-0.11,2.2-0.16,3.3-0.27,5.5c-0.48-0.02-0.72-0.03-1.19-0.05C311.89,73.65,312.01,71.14,312.26,66.13z M313.16,71.96
			c0.49,0.02,0.73,0.03,1.22,0.05c1.27,0.06,2.13-0.85,2.2-2.3c0.08-1.64-0.75-2.41-2-2.48c-0.57-0.03-0.99,0.03-1.19,0.1
			C313.3,69.18,313.26,70.11,313.16,71.96z"/>
		<path class="st7" d="M323.6,75.39c-0.46,1.56-0.69,2.35-1.16,3.91c-0.49-0.04-0.74-0.06-1.23-0.1c1.5-4.98,2.26-7.46,3.76-12.43
			c0.57,0.05,0.86,0.08,1.44,0.14c1.01,5.21,1.51,7.81,2.51,13.04c-0.51-0.06-0.76-0.09-1.27-0.14c-0.31-1.64-0.47-2.46-0.79-4.1
			C325.55,75.57,324.9,75.51,323.6,75.39z M326.68,74.4c-0.29-1.5-0.43-2.25-0.72-3.75c-0.16-0.85-0.26-1.62-0.36-2.36
			c-0.01,0-0.02,0-0.03,0c-0.17,0.74-0.36,1.5-0.58,2.25c-0.43,1.43-0.65,2.15-1.08,3.59C325.01,74.23,325.57,74.29,326.68,74.4z"/>
		<path class="st7" d="M334.91,69.37c-1.12-0.16-1.68-0.24-2.8-0.39c0.03-0.56,0.04-0.84,0.07-1.39c2.72,0.36,4.08,0.56,6.8,1.02
			c-0.03,0.56-0.04,0.84-0.07,1.39c-1.12-0.19-1.68-0.28-2.81-0.45c-0.22,4.52-0.34,6.78-0.56,11.3c-0.48-0.07-0.72-0.11-1.2-0.18
			C334.57,76.15,334.68,73.89,334.91,69.37z"/>
		<path class="st7" d="M344.07,69.55c-0.25,5.08-0.38,7.62-0.63,12.7c-0.47-0.09-0.71-0.14-1.18-0.23c0.25-5.08,0.38-7.62,0.63-12.7
			C343.36,69.41,343.6,69.46,344.07,69.55z"/>
		<path class="st7" d="M356.52,78.85c-0.22,4.37-2.24,6.14-4.57,5.54c-2.41-0.62-3.98-3.59-3.79-7.44c0.2-4.03,2.14-6.27,4.58-5.64
			C355.23,71.95,356.71,75.08,356.52,78.85z M349.42,77.21c-0.13,2.71,0.8,5.39,2.66,5.86c1.87,0.48,3.05-1.61,3.19-4.5
			c0.13-2.52-0.69-5.43-2.66-5.94C350.66,72.14,349.56,74.42,349.42,77.21z"/>
		<path class="st7" d="M360.6,86.65c0.25-5.08,0.38-7.62,0.63-12.7c0.51,0.16,0.77,0.25,1.28,0.41c1.04,2.95,1.56,4.43,2.6,7.41
			c0.6,1.72,1.06,3.25,1.43,4.7c0.01,0,0.02-0.01,0.03-0.01c-0.02-1.73,0.03-3.29,0.12-5.27c0.11-2.12,0.16-3.19,0.26-5.31
			c0.44,0.16,0.66,0.24,1.11,0.4c-0.25,5.08-0.38,7.62-0.63,12.7c-0.47-0.18-0.71-0.26-1.19-0.43c-1.03-2.99-1.54-4.48-2.57-7.45
			c-0.56-1.63-1.1-3.28-1.49-4.8c-0.02,0-0.02,0-0.04,0.01c-0.01,1.62-0.06,3.16-0.17,5.27c-0.11,2.17-0.16,3.25-0.27,5.42
			C361.26,86.86,361.04,86.79,360.6,86.65z"/>
	</g>
</g>
<g>
	<g>
		<path class="st8" d="M138.87,274.26c-1.5-0.44-2.25-0.68-3.75-1.18c0,1.54,0,2.31,0,3.85c1.67,0.56,2.51,0.82,4.18,1.3
			c0,0.46,0,0.69,0,1.16c-2.17-0.63-3.25-0.97-5.42-1.73c0-4.27,0-6.4,0-10.67c2.08,0.72,3.13,1.06,5.21,1.66c0,0.46,0,0.69,0,1.16
			c-1.59-0.46-2.38-0.71-3.96-1.24c0,1.35,0,2.02,0,3.37c1.5,0.5,2.25,0.74,3.75,1.18C138.87,273.57,138.87,273.8,138.87,274.26z"/>
		<path class="st8" d="M145.52,277.63c-0.4,1.25-0.6,1.88-1,3.12c-0.52-0.12-0.77-0.19-1.29-0.31c1.31-3.94,1.97-5.92,3.28-9.9
			c0.6,0.13,0.9,0.19,1.5,0.32c1.32,4.54,1.97,6.79,3.29,11.29c-0.53-0.09-0.8-0.14-1.33-0.24c-0.41-1.42-0.62-2.13-1.03-3.55
			C147.57,278.09,146.88,277.94,145.52,277.63z M148.68,277.23c-0.38-1.3-0.57-1.96-0.94-3.26c-0.21-0.74-0.36-1.4-0.5-2.05
			c-0.01,0-0.02,0-0.03-0.01c-0.14,0.6-0.3,1.22-0.49,1.83c-0.38,1.15-0.57,1.73-0.94,2.88C146.94,276.88,147.52,277,148.68,277.23z
			"/>
		<path class="st8" d="M157,273.5c-1.17-0.15-1.76-0.23-2.93-0.4c0-0.47,0-0.7,0-1.17c2.86,0.43,4.28,0.6,7.14,0.86
			c0,0.47,0,0.7,0,1.17c-1.18-0.11-1.77-0.17-2.95-0.3c0,3.8,0,5.7,0,9.5c-0.5-0.06-0.76-0.09-1.26-0.15
			C157,279.2,157,277.3,157,273.5z"/>
		<path class="st8" d="M171.38,273.47c0.76-0.11,1.66-0.2,2.65-0.2c1.79,0,3.06,0.44,3.91,1.28c0.85,0.85,1.36,2.07,1.36,3.79
			c0,1.74-0.49,3.18-1.39,4.19c-0.9,1.01-2.39,1.58-4.26,1.58c-0.89,0-1.63-0.06-2.26-0.15
			C171.38,279.76,171.38,277.67,171.38,273.47z M172.63,282.92c0.31,0.07,0.77,0.09,1.26,0.09c2.66,0,4.1-1.7,4.11-4.57
			c0.01-2.51-1.27-4.07-3.91-4.07c-0.64,0-1.13,0.06-1.46,0.14C172.63,277.87,172.63,279.55,172.63,282.92z"/>
		<path class="st8" d="M183.95,273.2c0.63-0.18,1.53-0.31,2.39-0.37c1.33-0.09,2.19,0.12,2.79,0.66c0.48,0.44,0.76,1.14,0.76,1.96
			c0,1.41-0.8,2.41-1.82,2.87c0,0.02,0,0.03,0,0.05c0.74,0.23,1.19,0.95,1.42,2.04c0.31,1.46,0.54,2.47,0.74,2.87
			c-0.52,0.04-0.77,0.07-1.29,0.11c-0.16-0.29-0.38-1.19-0.64-2.5c-0.29-1.44-0.8-1.96-1.93-1.93c-0.47,0.03-0.7,0.05-1.17,0.08
			c0,1.85,0,2.77,0,4.62c-0.5,0.03-0.75,0.05-1.24,0.07C183.95,279.52,183.95,277.41,183.95,273.2z M185.19,277.99
			c0.51-0.03,0.76-0.05,1.27-0.08c1.33-0.09,2.18-0.97,2.18-2.19c0-1.38-0.91-1.91-2.22-1.83c-0.6,0.04-1.03,0.13-1.23,0.21
			C185.19,275.65,185.19,276.43,185.19,277.99z"/>
		<path class="st8" d="M195.93,272.04c0,4.27,0,6.4,0,10.67c-0.5,0.06-0.75,0.08-1.24,0.13c0-4.27,0-6.4,0-10.67
			C195.18,272.12,195.43,272.1,195.93,272.04z"/>
		<path class="st8" d="M201.14,282.09c0-4.27,0-6.4,0-10.67c0.54-0.07,0.82-0.11,1.36-0.18c1.24,1.99,1.85,2.99,3.09,4.97
			c0.72,1.15,1.27,2.19,1.73,3.22c0.01-0.01,0.02-0.01,0.03-0.02c-0.11-1.41-0.14-2.7-0.14-4.36c0-1.79,0-2.68,0-4.46
			c0.47-0.07,0.7-0.1,1.17-0.17c0,4.27,0,6.4,0,10.67c-0.5,0.08-0.76,0.11-1.26,0.19c-1.22-1.99-1.84-2.98-3.06-4.98
			c-0.67-1.1-1.32-2.23-1.8-3.32c-0.02,0.01-0.03,0.01-0.04,0.02c0.07,1.34,0.1,2.61,0.1,4.39c0,1.82,0,2.73,0,4.56
			C201.84,281.99,201.61,282.02,201.14,282.09z"/>
		<path class="st8" d="M213.59,269.6c0.5-0.08,0.75-0.12,1.24-0.2c0,2.06,0,3.09,0,5.14c0.02,0,0.03,0,0.04-0.01
			c0.26-0.45,0.52-0.87,0.76-1.26c1.18-1.79,1.77-2.69,2.95-4.49c0.62-0.1,0.93-0.16,1.55-0.26c-1.4,2.05-2.1,3.07-3.49,5.11
			c1.51,2.21,2.26,3.31,3.76,5.51c-0.59,0.1-0.88,0.15-1.47,0.25c-1.27-1.88-1.91-2.82-3.18-4.71c-0.37,0.53-0.55,0.79-0.92,1.32
			c0,1.63,0,2.44,0,4.07c-0.5,0.08-0.75,0.12-1.24,0.2C213.59,276,213.59,273.87,213.59,269.6z"/>
		<path class="st8" d="M236.49,276.37c-0.27-0.25-0.53-0.51-0.9-0.89c-0.83,1-1.76,1.52-2.82,1.7c-1.87,0.32-2.96-0.88-2.96-2.48
			c0-1.46,0.79-2.59,1.89-3.45c0-0.02,0-0.03,0-0.05c-0.5-0.61-0.8-1.33-0.8-2.09c0-1.3,0.84-2.77,2.45-3.05
			c1.2-0.21,2.13,0.52,2.13,1.9c0,1.12-0.59,2.11-2.12,3.21c0,0.02,0,0.03,0,0.05c0.82,0.9,1.73,1.92,2.35,2.57
			c0.44-0.82,0.74-1.9,0.93-3.28c0.46-0.08,0.69-0.12,1.14-0.19c-0.26,1.72-0.67,3.12-1.39,4.18c0.52,0.51,1.02,1.03,1.59,1.61
			C237.39,276.22,237.09,276.27,236.49,276.37z M234.98,274.79c-0.57-0.6-1.65-1.71-2.72-2.89c-0.52,0.45-1.24,1.26-1.24,2.38
			c0,1.22,0.82,2.01,1.97,1.81C233.82,275.96,234.52,275.43,234.98,274.79z M232.04,268.79c0,0.76,0.31,1.29,0.73,1.79
			c0.97-0.79,1.6-1.46,1.6-2.37c0-0.65-0.33-1.32-1.12-1.19C232.46,267.17,232.04,267.97,232.04,268.79z"/>
		<path class="st8" d="M248.22,263.94c0.54-0.21,1.4-0.43,2.28-0.56c1.25-0.18,2.05-0.03,2.65,0.4c0.48,0.34,0.8,0.93,0.8,1.77
			c0,1.03-0.62,2.02-1.63,2.57c0,0.01,0,0.02,0,0.03c0.92,0.12,1.99,0.81,1.99,2.4c0,0.92-0.33,1.67-0.82,2.25
			c-0.65,0.77-1.76,1.24-3.33,1.48c-0.86,0.13-1.52,0.16-1.93,0.16C248.22,270.23,248.22,268.13,248.22,263.94z M249.46,268.12
			c0.45-0.07,0.68-0.1,1.13-0.17c1.32-0.19,2.09-1.06,2.09-2.09c0-1.25-0.86-1.62-2.12-1.44c-0.57,0.08-0.9,0.18-1.1,0.26
			C249.46,266.06,249.46,266.74,249.46,268.12z M249.46,273.23c0.24,0.01,0.6-0.03,1.04-0.09c1.29-0.19,2.48-0.88,2.48-2.43
			c0-1.46-1.13-1.9-2.49-1.7c-0.41,0.06-0.62,0.09-1.03,0.15C249.46,270.79,249.46,271.6,249.46,273.23z"/>
		<path class="st8" d="M264,267.4c-1.5,0.15-2.25,0.24-3.75,0.41c0,1.54,0,2.31,0,3.85c1.67-0.2,2.51-0.29,4.18-0.46
			c0,0.46,0,0.69,0,1.16c-2.17,0.22-3.25,0.34-5.42,0.61c0-4.27,0-6.4,0-10.67c2.08-0.25,3.13-0.37,5.21-0.59c0,0.46,0,0.69,0,1.16
			c-1.59,0.16-2.38,0.25-3.96,0.44c0,1.35,0,2.02,0,3.37c1.5-0.18,2.25-0.26,3.75-0.41C264,266.72,264,266.95,264,267.4z"/>
		<path class="st8" d="M280.25,266.66c-0.07-1.49-0.16-3.27-0.14-4.6c-0.02,0-0.03,0-0.04,0c-0.33,1.26-0.73,2.6-1.22,4.09
			c-0.68,2.09-1.02,3.14-1.7,5.24c-0.38,0.02-0.57,0.02-0.94,0.04c-0.62-2-0.94-3-1.56-5c-0.46-1.48-0.84-2.83-1.12-4.08
			c-0.01,0-0.02,0-0.03,0c-0.03,1.33-0.1,3.12-0.19,4.73c-0.1,1.84-0.15,2.75-0.26,4.59c-0.48,0.03-0.71,0.05-1.19,0.08
			c0.27-4.29,0.4-6.43,0.67-10.71c0.64-0.04,0.95-0.06,1.59-0.1c0.66,2.03,0.99,3.04,1.65,5.07c0.4,1.29,0.73,2.45,0.97,3.55
			c0.02,0,0.03,0,0.04,0c0.24-1.09,0.59-2.27,1.02-3.63c0.69-2.09,1.03-3.13,1.72-5.21c0.64-0.02,0.95-0.02,1.59-0.04
			c0.24,4.26,0.36,6.39,0.6,10.66c-0.49,0.01-0.73,0.01-1.22,0.02C280.4,269.46,280.35,268.53,280.25,266.66z"/>
		<path class="st8" d="M291.66,266.49c-1.5-0.08-2.25-0.11-3.75-0.15c0,1.54,0,2.31,0,3.85c1.67,0.04,2.51,0.08,4.18,0.17
			c0,0.46,0,0.69,0,1.16c-2.17-0.12-3.25-0.16-5.42-0.2c0-4.27,0-6.4,0-10.67c2.08,0.04,3.13,0.07,5.21,0.18c0,0.46,0,0.69,0,1.16
			c-1.59-0.08-2.38-0.12-3.96-0.16c0,1.35,0,2.02,0,3.37c1.5,0.04,2.25,0.07,3.75,0.15C291.66,265.81,291.66,266.03,291.66,266.49z"
			/>
		<path class="st8" d="M296.74,261.33c0.63-0.09,1.53-0.08,2.39,0.02c1.33,0.15,2.19,0.53,2.79,1.21c0.48,0.54,0.76,1.31,0.76,2.13
			c0,1.41-0.8,2.23-1.82,2.48c0,0.02,0,0.03,0,0.05c0.74,0.38,1.19,1.2,1.42,2.33c0.31,1.53,0.54,2.59,0.74,3.03
			c-0.52-0.07-0.77-0.11-1.29-0.18c-0.16-0.32-0.38-1.27-0.64-2.63c-0.29-1.5-0.8-2.13-1.93-2.3c-0.47-0.05-0.7-0.08-1.17-0.12
			c0,1.85,0,2.77,0,4.62c-0.5-0.05-0.75-0.07-1.25-0.12C296.74,267.64,296.74,265.54,296.74,261.33z M297.99,266.3
			c0.51,0.05,0.76,0.08,1.27,0.13c1.33,0.15,2.18-0.55,2.18-1.77c0-1.38-0.91-2.11-2.22-2.26c-0.6-0.07-1.03-0.05-1.23,0
			C297.99,263.97,297.99,264.75,297.99,266.3z"/>
		<path class="st8" d="M307.48,262.77c0.63-0.03,1.53,0.06,2.39,0.24c1.33,0.27,2.19,0.74,2.79,1.47c0.48,0.59,0.76,1.38,0.76,2.2
			c0,1.41-0.8,2.15-1.82,2.31c0,0.02,0,0.03,0,0.05c0.74,0.45,1.19,1.31,1.42,2.47c0.31,1.56,0.54,2.64,0.74,3.1
			c-0.52-0.12-0.77-0.18-1.29-0.3c-0.16-0.34-0.38-1.31-0.64-2.69c-0.29-1.53-0.8-2.21-1.93-2.48c-0.47-0.1-0.7-0.14-1.17-0.23
			c0,1.85,0,2.77,0,4.62c-0.5-0.1-0.75-0.14-1.25-0.23C307.48,269.08,307.48,266.98,307.48,262.77z M308.72,267.86
			c0.51,0.1,0.76,0.15,1.27,0.25c1.33,0.27,2.18-0.34,2.18-1.56c0-1.38-0.91-2.19-2.22-2.47c-0.6-0.12-1.03-0.14-1.23-0.12
			C308.72,265.52,308.72,266.3,308.72,267.86z"/>
		<path class="st8" d="M319.7,276.21c0-1.81,0-2.72,0-4.53c-1.22-2.82-1.83-4.22-3.05-7.01c0.57,0.15,0.85,0.23,1.42,0.39
			c0.54,1.33,0.82,2,1.36,3.34c0.37,0.92,0.66,1.65,0.96,2.49c0.01,0,0.02,0.01,0.03,0.01c0.27-0.61,0.6-1.21,0.97-1.9
			c0.56-1,0.83-1.5,1.39-2.49c0.57,0.19,0.85,0.28,1.42,0.48c-1.29,2-1.94,3.01-3.23,5.06c0,1.82,0,2.73,0,4.54
			C320.46,276.43,320.2,276.36,319.7,276.21z"/>
	</g>
</g>
<g>
	<text transform="matrix(1 0 0 1 338.6004 389.3708)" class="st0 st5 st9">6</text>
</g>
<g>
	<text transform="matrix(1 0 0 1 161.6648 334.0498)" class="st10 st5 st11">COCKTAILS</text>
</g>
<g>
	<text transform="matrix(1 0 0 1 161.3035 345.3652)" class="st10 st5 st11">HOR D’OEUVRES</text>
</g>
<g>
	<text transform="matrix(1 0 0 1 161.3035 357.4463)" class="st10 st5 st11">LIVE DJ</text>
</g>
<text transform="matrix(1 0 0 1 -312.212 1110.3191)" class="st5" style="font-size:36px;">THE BANQUET HALL5YOUR STATE YOUR 5TOWN</text>
<g>
	<text transform="matrix(1 0 0 1 344.0629 395.9023)" class="st0 st5 st12">PM</text>
</g>
<path class="st13" d="M116.55,42.59c19.08,21.16,50.22,21.02,76.29,20.38c34.03-1.44,67.25-10.84,100.87-16.27
	c32.73-4.33,66.86-4.77,96.84,13.29c8.67,6.16,15.64,15.5,14.77,26.65c-2.16,18.31-16.72,41.12-30.37,49.13"/>
<path class="st13" d="M114.45,79.96c19.08,21.16,50.22,21.02,76.29,20.38c34.03-1.44,67.25-10.84,100.87-16.27
	c32.73-4.33,90.78-5.65,84.18,28.72"/>
<path class="st13" d="M332.94,303.82c-12.11-12.25-27.05-23.78-45.62-23.74c-20.63,0.04-40.42,6.75-60.47,10.44
	c-9.57,1.76-19.11,2.12-28.79,2.92c-9.13,0.76-18.23,1.88-27.39,2.16c-16.92,0.53-38.49-2.29-47.25-18.05
	c-8.96-16.1-1.44-29.93,12.35-36.25c1.68-0.77,11.94-0.22,13.65-0.95"/>
<path class="st13" d="M338.59,282.54c-9.15-24.12-30.79-30.12-49.34-33.12c-30.14-3-58.73,9-88.87,15c-13.14,2-25.5,3-38.64,1
	c-9.27-2-19.32-5-21.3-18.54"/>
<g>
	<text transform="matrix(1 0 0 1 255.4887 315.45)" class="st10 st5 st14">DECEMBER</text>
</g>
<g>
	<rect x="255.49" y="312.71" class="st15" width="45.54" height="37.64"/>
	<text transform="matrix(1 0 0 1 255.489 349.8611)" class="st16 st5 st17">25</text>
</g>
<path class="st2" d="M302.22,360.57H254.3c-6.6,0-12-5.4-12-12v-44.51c0-6.6,5.4-12,12-12h47.93c6.6,0,12,5.4,12,12v44.51
	C314.22,355.17,308.82,360.57,302.22,360.57z"/>
<path class="st2" d="M314.22,301.46H242.3l0,0c0-5.19,4.21-9.4,9.4-9.4h53.65c4.9,0,8.87,3.97,8.87,8.87V301.46z"/>
<ellipse class="st2" cx="270.75" cy="292.06" rx="1.91" ry="4.47"/>
<ellipse class="st3" cx="264.11" cy="292.06" rx="1.91" ry="4.47"/>
<ellipse class="st3" cx="277.75" cy="292.06" rx="1.91" ry="4.47"/>
<ellipse class="st3" cx="270.75" cy="292.06" rx="1.91" ry="4.47"/>
<ellipse class="st2" cx="284.74" cy="292.06" rx="1.91" ry="4.47"/>
<ellipse class="st2" cx="292.12" cy="292.06" rx="1.91" ry="4.47"/>
<ellipse class="st2" cx="278.1" cy="292.06" rx="1.91" ry="4.47"/>
<g>
	<circle class="st2" cx="197.39" cy="51.08" r="1.77"/>
	<circle class="st2" cx="185.2" cy="38.89" r="1.89"/>
	<circle class="st0" cx="191.23" cy="45.13" r="1.89"/>
	<line class="st2" x1="196.14" y1="49.83" x2="186.53" y2="40.22"/>
	<circle class="st2" cx="185.18" cy="51.19" r="1.77"/>
	<circle class="st2" cx="197.37" cy="38.99" r="1.89"/>
	<line class="st2" x1="186.43" y1="49.94" x2="196.04" y2="40.33"/>
	<g>
		<line class="st2" x1="183.09" y1="45.13" x2="199.79" y2="45.13"/>
		<polyline class="st2" points="201.64,46.98 199.79,45.13 201.64,43.28 		"/>
		<polyline class="st2" points="181.24,46.98 183.09,45.13 181.24,43.28 		"/>
	</g>
	<g>
		<line class="st2" x1="191.23" y1="36.58" x2="191.23" y2="53.27"/>
		<polyline class="st2" points="189.38,55.12 191.23,53.27 193.08,55.12 		"/>
		<polyline class="st2" points="189.38,34.73 191.23,36.58 193.08,34.73 		"/>
	</g>
</g>
<g>
	<circle class="st2" cx="212.43" cy="311.09" r="1.29"/>
	<circle class="st2" cx="203.52" cy="302.19" r="1.38"/>
	<circle class="st0" cx="207.93" cy="306.75" r="1.38"/>
	<line class="st2" x1="211.52" y1="310.18" x2="204.5" y2="303.16"/>
	<circle class="st2" cx="203.51" cy="311.17" r="1.29"/>
	<circle class="st2" cx="212.42" cy="302.26" r="1.38"/>
	<line class="st2" x1="204.42" y1="310.26" x2="211.44" y2="303.24"/>
	<g>
		<line class="st2" x1="201.99" y1="306.75" x2="214.18" y2="306.75"/>
		<polyline class="st2" points="215.53,308.1 214.18,306.75 215.53,305.4 		"/>
		<polyline class="st2" points="200.64,308.1 201.99,306.75 200.64,305.4 		"/>
	</g>
	<g>
		<line class="st2" x1="207.93" y1="300.5" x2="207.93" y2="312.69"/>
		<polyline class="st2" points="206.58,314.04 207.93,312.69 209.28,314.04 		"/>
		<polyline class="st2" points="206.58,299.15 207.93,300.5 209.28,299.15 		"/>
	</g>
</g>
<g>
	<circle class="st2" cx="154.41" cy="318.78" r="1.77"/>
	<circle class="st2" cx="142.21" cy="306.59" r="1.89"/>
	<circle class="st0" cx="148.25" cy="312.83" r="1.89"/>
	<line class="st2" x1="153.16" y1="317.53" x2="143.55" y2="307.93"/>
	<circle class="st2" cx="142.2" cy="318.89" r="1.77"/>
	<circle class="st2" cx="154.39" cy="306.69" r="1.89"/>
	<line class="st2" x1="143.45" y1="317.64" x2="153.05" y2="308.03"/>
	<g>
		<line class="st2" x1="140.11" y1="312.83" x2="156.81" y2="312.83"/>
		<polyline class="st2" points="158.65,314.68 156.81,312.83 158.65,310.99 		"/>
		<polyline class="st2" points="138.26,314.68 140.11,312.83 138.26,310.99 		"/>
	</g>
	<g>
		<line class="st2" x1="148.25" y1="304.28" x2="148.25" y2="320.97"/>
		<polyline class="st2" points="146.4,322.82 148.25,320.97 150.1,322.82 		"/>
		<polyline class="st2" points="146.4,302.43 148.25,304.28 150.1,302.43 		"/>
	</g>
</g>
<g>
	<circle class="st2" cx="339" cy="325.76" r="1.77"/>
	<circle class="st2" cx="326.8" cy="313.56" r="1.89"/>
	<circle class="st0" cx="332.84" cy="319.81" r="1.89"/>
	<line class="st2" x1="337.75" y1="324.51" x2="328.14" y2="314.9"/>
	<circle class="st2" cx="326.79" cy="325.86" r="1.77"/>
	<circle class="st2" cx="338.98" cy="313.67" r="1.89"/>
	<line class="st2" x1="328.04" y1="324.61" x2="337.64" y2="315"/>
	<g>
		<line class="st2" x1="324.7" y1="319.81" x2="341.4" y2="319.81"/>
		<polyline class="st2" points="343.24,321.65 341.4,319.81 343.24,317.96 		"/>
		<polyline class="st2" points="322.85,321.65 324.7,319.81 322.85,317.96 		"/>
	</g>
	<g>
		<line class="st2" x1="332.84" y1="311.25" x2="332.84" y2="327.95"/>
		<polyline class="st2" points="330.99,329.8 332.84,327.95 334.69,329.8 		"/>
		<polyline class="st2" points="330.99,309.4 332.84,311.25 334.69,309.4 		"/>
	</g>
</g>
<g>
	<circle class="st2" cx="371.87" cy="42.58" r="1.28"/>
	<circle class="st2" cx="363.03" cy="33.73" r="1.37"/>
	<circle class="st0" cx="367.4" cy="38.26" r="1.37"/>
	<line class="st2" x1="370.96" y1="41.67" x2="363.99" y2="34.7"/>
	<circle class="st2" cx="363.01" cy="42.65" r="1.28"/>
	<circle class="st2" cx="371.86" cy="33.81" r="1.37"/>
	<line class="st2" x1="363.92" y1="41.75" x2="370.89" y2="34.78"/>
	<g>
		<line class="st2" x1="361.5" y1="38.26" x2="373.61" y2="38.26"/>
		<polyline class="st2" points="374.95,39.6 373.61,38.26 374.95,36.92 		"/>
		<polyline class="st2" points="360.16,39.6 361.5,38.26 360.16,36.92 		"/>
	</g>
	<g>
		<line class="st2" x1="367.4" y1="32.05" x2="367.4" y2="44.17"/>
		<polyline class="st2" points="366.06,45.51 367.4,44.17 368.74,45.51 		"/>
		<polyline class="st2" points="366.06,30.71 367.4,32.05 368.74,30.71 		"/>
	</g>
</g>
<rect x="216.03" y="46.03" transform="matrix(0.9825 -0.1863 0.1863 0.9825 -4.8205 45.1465)" class="st2" width="43.49" height="4.38"/>
<rect x="221.75" y="53.23" transform="matrix(0.9825 -0.1863 0.1863 0.9825 -6.5669 42.6094)" class="st2" width="3.31" height="6.03"/>
<rect x="253.55" y="47.18" transform="matrix(0.9825 -0.1863 0.1863 0.9825 -4.7623 48.4174)" class="st2" width="3.31" height="4.72"/>
<path class="st2" d="M202.98,62.99c0,0,2.32-7.54,10.96-2.3c0,0,40.4-7,50.62-9.95s-0.59-9.42-0.59-9.42s-1.25,3.54,0.13,5.14
	c1.38,1.6-2.28,2.37-2.41,0.51s-1.71-7.3,2.13-7.61c3.84-0.31,5.72,2.48,5.84,3.44c0.12,0.97,3.64,5.77-3.39,7.8"/>
<path class="st2" d="M215.94,50.13c0,0-3.61-13.38-5.85-12.65c-2.25,0.72,11.41-2.76,20.35,4.95c0,0,16.95,1.74,27.69-10.6
	c0,0,1.36,4.59,0.38,10.23"/>
<circle class="st2" cx="217.26" cy="32.7" r="3.36"/>
<path class="st2" d="M220.61,32.62c0,0,5.07-1.47,6.49-0.75c1.42,0.72,5.54-1.05,5.54-1.05l1.67,10.87"/>
<path class="st2" d="M219.98,30.74c0,0,5.18,0.32,14.23-5.26s8.92,1.08,8.92,1.08s1.89,7.86,5.23,5.64
	c3.34-2.22,7.91-5.26,7.91-5.26l0,0c-0.16-0.84,0.26-1.69,1.04-2.06c1.02-0.49,2.46-1.12,3.68-1.39c0.64-0.14,1.01,0.7,0.48,1.08
	c-1.38,1-3.22,2.63-3.17,4.16c0.07,2.46-8.97,8.04-9.44,7.63s0.41,2.34,0.41,2.34"/>
<path class="st2" d="M277.37,30.07c0,0-4.51-6.71-2.66-10.52l6.62,6.26c0,0,17.12-2.76,21.62,0s9.92-7.1,6.42-8.79
	c0,0,0.7-3.59,3.29-3.18l1.86-3.73l0.9,3.94c0,0,3.94,4.01,5.45,3.45c1.4-0.52-3.37,2.9-5.63,1.84c-0.17-0.08-0.33-0.19-0.47-0.33
	c-1.96-1.95,1.02,14.47-2.22,15.29l3.29,3.38l-1.52,6.03c0,0-2.53-2.67-2.73-5.58s-4.09-3.29-4.09-3.29s-2.11,10.1-7.14,10.33
	c0,0,4.56-10.06,2.43-9.84c-2.13,0.22-13.26,1.38-13.26,1.38s-1.58,5.46,8.34,8.72c0,0-12.77-2.39-12.44-7.71s-2.02,5-2.02,5
	s5.03,3.2,6.15,3.66c1.12,0.46-10.06-0.81-9.68-2.81C280.23,41.58,275.77,30.67,277.37,30.07z"/>
<path class="st2" d="M261.71,25.98c0,0,16.01,15.23,54.05-2.73"/>
<g>
	<circle class="st2" cx="339.98" cy="27.36" r="3.11"/>
	<line class="st2" x1="336.26" y1="34.02" x2="338.62" y2="29.92"/>
	<line class="st2" x1="333.43" y1="31.11" x2="337.53" y2="28.74"/>
	<circle class="st2" cx="339.98" cy="27.36" r="3.11"/>
	<line class="st2" x1="343.7" y1="20.69" x2="341.33" y2="24.79"/>
	<line class="st2" x1="346.53" y1="23.61" x2="342.43" y2="25.98"/>
	<circle class="st2" cx="339.98" cy="27.36" r="3.11"/>
	<line class="st2" x1="336.26" y1="20.69" x2="338.62" y2="24.79"/>
	<line class="st2" x1="333.43" y1="23.61" x2="337.53" y2="25.98"/>
	<circle class="st2" cx="339.98" cy="27.36" r="3.11"/>
	<line class="st2" x1="343.7" y1="34.02" x2="341.33" y2="29.92"/>
	<line class="st2" x1="346.53" y1="31.11" x2="342.43" y2="28.74"/>
	<g>
		<line class="st2" x1="343.08" y1="27.36" x2="349.29" y2="27.36"/>
		<path class="st2" d="M350.73,28.58c-0.68,0-1.22-0.55-1.22-1.22c0-0.68,0.55-1.22,1.22-1.22"/>
		<circle class="st0" cx="351.89" cy="27.36" r="1.17"/>
	</g>
	<g>
		<line class="st2" x1="339.98" y1="24.79" x2="339.98" y2="18.58"/>
		<path class="st2" d="M341.2,17.15c0,0.68-0.55,1.22-1.22,1.22c-0.68,0-1.22-0.55-1.22-1.22"/>
		<circle class="st0" cx="339.98" cy="15.98" r="1.17"/>
	</g>
	<g>
		<line class="st2" x1="339.98" y1="30.46" x2="339.98" y2="36.68"/>
		<path class="st2" d="M341.2,38.11c0-0.68-0.55-1.22-1.22-1.22c-0.68,0-1.22,0.55-1.22,1.22"/>
		<circle class="st0" cx="339.98" cy="39.28" r="1.17"/>
	</g>
	<g>
		<line class="st2" x1="336.87" y1="27.36" x2="330.66" y2="27.36"/>
		<path class="st2" d="M329.22,28.58c0.68,0,1.22-0.55,1.22-1.22c0-0.68-0.55-1.22-1.22-1.22"/>
		<circle class="st0" cx="328.06" cy="27.36" r="1.17"/>
	</g>
</g>
<g>
	<circle class="st2" cx="130.22" cy="425.69" r="3.67"/>
	<line class="st2" x1="125.83" y1="433.57" x2="128.62" y2="428.72"/>
	<line class="st2" x1="122.49" y1="430.12" x2="127.33" y2="427.33"/>
	<circle class="st2" cx="130.22" cy="425.69" r="3.67"/>
	<line class="st2" x1="134.61" y1="417.82" x2="131.82" y2="422.67"/>
	<line class="st2" x1="137.96" y1="421.27" x2="133.11" y2="424.06"/>
	<circle class="st2" cx="130.22" cy="425.69" r="3.67"/>
	<line class="st2" x1="125.83" y1="417.82" x2="128.62" y2="422.67"/>
	<line class="st2" x1="122.49" y1="421.27" x2="127.33" y2="424.06"/>
	<circle class="st2" cx="130.22" cy="425.69" r="3.67"/>
	<line class="st2" x1="134.61" y1="433.57" x2="131.82" y2="428.72"/>
	<line class="st2" x1="137.96" y1="430.12" x2="133.11" y2="427.33"/>
	<g>
		<line class="st2" x1="133.89" y1="425.69" x2="141.22" y2="425.69"/>
		<path class="st2" d="M142.92,427.14c-0.8,0-1.45-0.65-1.45-1.45s0.65-1.45,1.45-1.45"/>
		<circle class="st0" cx="144.29" cy="425.69" r="1.38"/>
	</g>
	<g>
		<line class="st2" x1="130.22" y1="422.67" x2="130.22" y2="415.33"/>
		<path class="st2" d="M131.67,413.64c0,0.8-0.65,1.45-1.45,1.45c-0.8,0-1.45-0.65-1.45-1.45"/>
		<circle class="st0" cx="130.22" cy="412.26" r="1.38"/>
	</g>
	<g>
		<line class="st2" x1="130.22" y1="429.36" x2="130.22" y2="436.7"/>
		<path class="st2" d="M131.67,438.39c0-0.8-0.65-1.45-1.45-1.45c-0.8,0-1.45,0.65-1.45,1.45"/>
		<circle class="st0" cx="130.22" cy="439.77" r="1.38"/>
	</g>
	<g>
		<line class="st2" x1="126.55" y1="425.69" x2="119.22" y2="425.69"/>
		<path class="st2" d="M117.52,427.14c0.8,0,1.45-0.65,1.45-1.45s-0.65-1.45-1.45-1.45"/>
		<circle class="st0" cx="116.15" cy="425.69" r="1.38"/>
	</g>
</g>
<g>
	<polygon class="st2" points="310.19,130.6 303.75,127.35 297.42,130.82 298.52,123.69 293.27,118.75 300.39,117.58 303.46,111.06 
		306.77,117.47 313.92,118.38 308.85,123.51 	"/>
	<circle class="st0" cx="303.6" cy="120.94" r="1.64"/>
	<line class="st2" x1="303.49" y1="111.88" x2="303.7" y2="120.94"/>
	<line class="st2" x1="303.6" y1="120.94" x2="309.66" y2="130.15"/>
	<line class="st2" x1="303.6" y1="120.94" x2="313.78" y2="118.7"/>
	<line class="st2" x1="303.6" y1="120.85" x2="293.27" y2="118.7"/>
	<line class="st2" x1="303.6" y1="120.94" x2="297.53" y2="130.82"/>
	<line class="st2" x1="300.31" y1="117.48" x2="303.6" y2="120.94"/>
	<line class="st2" x1="307.07" y1="117.1" x2="303.6" y2="120.85"/>
	<line class="st2" x1="298.52" y1="123.69" x2="303.6" y2="120.94"/>
	<line class="st2" x1="308.85" y1="123.51" x2="303.6" y2="120.94"/>
	<line class="st2" x1="303.6" y1="127.56" x2="303.6" y2="120.94"/>
</g>
<g>
	<path class="st2" d="M159.28,118.07c0.14-4.31,2.43-3.86,5.26-3.77c2.84,0.09,5.15-0.21,5.01,4.1c-0.14,4.31-2.65,10.76-5.48,10.67
		S159.15,122.37,159.28,118.07z"/>
	
		<rect x="161.92" y="110.26" transform="matrix(-0.9995 -0.0321 0.0321 -0.9995 326.3535 229.1445)" class="st2" width="6.19" height="3.38"/>
	<path class="st2" d="M160.23,116.51c0.56,5.64,1.99,10.11,3.19,9.99"/>
</g>
<g>
	<path class="st2" d="M181.09,118.01c-1.13-4.16,1.19-4.4,3.93-5.15s4.86-1.71,5.99,2.45c1.13,4.16,0.63,11.06-2.11,11.81
		S182.22,122.17,181.09,118.01z"/>
	
		<rect x="181.68" y="108.79" transform="matrix(-0.9649 0.2625 -0.2625 -0.9649 392.0717 168.5812)" class="st2" width="6.19" height="3.38"/>
	<path class="st2" d="M181.54,116.25c2.19,5.23,4.87,9.08,5.98,8.62"/>
</g>
<g>
	<path class="st2" d="M201.82,116c0.53-4.28,2.76-3.63,5.58-3.28c2.82,0.35,5.15,0.26,4.62,4.53s-3.61,10.48-6.42,10.13
		C202.78,127.04,201.3,120.28,201.82,116z"/>
	
		<rect x="204.99" y="108.73" transform="matrix(-0.9925 -0.122 0.122 -0.9925 401.1384 245.4161)" class="st2" width="6.19" height="3.38"/>
	<path class="st2" d="M202.91,114.54c0.05,5.67,1.07,10.25,2.27,10.24"/>
</g>
<g>
	<path class="st2" d="M223.82,117.83c-0.85-4.23,1.48-4.31,4.26-4.88c2.78-0.56,4.96-1.38,5.82,2.84
		c0.85,4.23-0.11,11.08-2.89,11.64C228.22,128,224.67,122.05,223.82,117.83z"/>
	
		<rect x="224.9" y="108.87" transform="matrix(-0.9802 0.1979 -0.1979 -0.9802 473.3667 173.8192)" class="st2" width="6.19" height="3.38"/>
	<path class="st2" d="M224.38,116.1c1.84,5.36,4.25,9.39,5.39,8.99"/>
</g>
<g>
	<path class="st2" d="M245.22,112.79c-1.67-3.97,0.59-4.52,3.21-5.62c2.62-1.1,4.59-2.34,6.26,1.63c1.67,3.97,2.08,10.88-0.53,11.98
		C251.54,121.89,246.89,116.77,245.22,112.79z"/>
	
		<rect x="244.78" y="103.15" transform="matrix(-0.9217 0.3879 -0.3879 -0.9217 517.0096 105.3104)" class="st2" width="6.19" height="3.38"/>
	<path class="st2" d="M245.43,110.98c2.87,4.89,6.03,8.36,7.07,7.75"/>
</g>
<g>
	<path class="st2" d="M266.45,102.13c-2.85-3.23-0.88-4.47,1.25-6.35c2.13-1.88,3.61-3.68,6.46-0.45s5.44,9.65,3.32,11.53
		C275.35,108.74,269.3,105.36,266.45,102.13z"/>
	
		<rect x="263.34" y="92.06" transform="matrix(-0.75 0.6615 -0.6615 -0.75 528.2679 -12.1886)" class="st2" width="6.19" height="3.38"/>
	<path class="st2" d="M266.08,100.35c4.28,3.72,8.38,6,9.17,5.09"/>
</g>
<g>
	<path class="st2" d="M137.56,112.01c0.97-4.2,3.13-3.32,5.89-2.68s5.09,0.79,4.12,4.99c-0.97,4.2-4.68,10.05-7.44,9.41
		S136.59,116.21,137.56,112.01z"/>
	
		<rect x="141.27" y="105.43" transform="matrix(-0.9744 -0.2247 0.2247 -0.9744 260.9732 243.9397)" class="st2" width="6.19" height="3.38"/>
	<path class="st2" d="M138.79,110.67c-0.54,5.64,0,10.3,1.19,10.42"/>
</g>
<g>
	<path class="st2" d="M119.5,98.21c2.98-3.11,4.38-1.25,6.43,0.71s3.97,3.28,0.99,6.4c-2.98,3.11-9.16,6.24-11.21,4.27
		S116.52,101.33,119.5,98.21z"/>
	
		<rect x="124.76" y="95.81" transform="matrix(-0.7221 -0.6918 0.6918 -0.7221 152.7345 256.3448)" class="st2" width="6.19" height="3.38"/>
	<path class="st2" d="M121.25,97.69c-3.35,4.57-5.28,8.85-4.31,9.56"/>
</g>
<path class="st2" d="M123.2,87.69c0,0,23.21,42.49,90.7,10.55"/>
<path class="st2" d="M185.2,100.2c0,0,37.25,27.77,86.34-12.5"/>
<g>
	<line class="st2" x1="334.18" y1="108.44" x2="327.26" y2="110.4"/>
	<g>
		<polygon class="st3" points="354.6,133.2 354,133.42 348.86,132.63 345.43,136.55 344.84,136.77 334.26,107.86 344.02,104.29 		
			"/>
		<path class="st3" d="M342.61,103.07l-17.05-4.02c-1.18-0.28-2.38,0.46-2.66,1.64l-1.06,4.5c-0.28,1.18,0.46,2.38,1.64,2.66
			l17.05,4.02c1.18,0.28,2.38-0.46,2.66-1.64l1.06-4.5C344.53,104.55,343.79,103.35,342.61,103.07z"/>
		<polygon class="st3" points="326.27,133.2 326.82,133.4 331.69,132.52 334.84,136.34 335.39,136.54 345.97,107.63 336.84,104.29 
					"/>
		<path class="st3" d="M342.33,113.14l-17.05,4.02c-1.18,0.28-2.38-0.46-2.66-1.64l-1.33-5.64c-0.28-1.18,0.46-2.38,1.64-2.66
			l17.05-4.02c1.18-0.28,2.38,0.46,2.66,1.64l1.33,5.64C344.25,111.67,343.51,112.86,342.33,113.14z"/>
		<path class="st3" d="M338.91,103.41l17.05-4.02c1.18-0.28,2.38,0.46,2.66,1.64l1.06,4.5c0.28,1.18-0.46,2.38-1.64,2.66
			l-17.05,4.02c-1.18,0.28-2.38-0.46-2.66-1.64l-1.06-4.5C336.98,104.89,337.72,103.69,338.91,103.41z"/>
		<path class="st3" d="M339.01,114.24l17.05,4.02c1.18,0.28,2.38-0.46,2.66-1.64l1.51-6.4c0.28-1.18-0.46-2.38-1.64-2.66
			l-17.05-4.02c-1.18-0.28-2.38,0.46-2.66,1.64l-1.51,6.4C337.09,112.76,337.83,113.96,339.01,114.24z"/>
		<circle class="st3" cx="340.07" cy="108.44" r="5.9"/>
		<line class="st2" x1="345.97" y1="108.44" x2="353.88" y2="110.4"/>
		<line class="st2" x1="348.47" y1="103" x2="355.55" y2="101.5"/>
	</g>
	<line class="st2" x1="334.18" y1="103" x2="326.27" y2="101.43"/>
</g>
<rect x="349.2" y="220.53" class="st2" width="20.17" height="22.21"/>
<rect x="347.03" y="212.87" class="st2" width="24.51" height="7.66"/>
<path class="st3" d="M360.81,212.87h-3.06c-1.06,0-1.91-0.86-1.91-1.91l0,0c0-1.06,0.86-1.91,1.91-1.91h3.06
	c1.06,0,1.91,0.86,1.91,1.91l0,0C362.73,212.01,361.87,212.87,360.81,212.87z"/>
<rect x="354.05" y="212.87" class="st2" width="10.47" height="29.87"/>
<ellipse transform="matrix(0.9375 -0.3481 0.3481 0.9375 -55.1409 135.2557)" class="st2" cx="348.83" cy="221.08" rx="4.18" ry="1.58"/>
<ellipse class="st3" cx="348.99" cy="222.24" rx="4.18" ry="1.58"/>
<ellipse transform="matrix(0.3481 -0.9375 0.9375 0.3481 15.9583 465.1071)" class="st2" cx="342.4" cy="221.08" rx="1.58" ry="4.18"/>
<ellipse class="st3" cx="342.25" cy="222.24" rx="4.18" ry="1.58"/>
<rect x="339.02" y="228.68" class="st3" width="12.77" height="14.06"/>
<rect x="337.65" y="223.83" class="st3" width="15.52" height="4.85"/>
<path class="st3" d="M346.38,223.83h-1.94c-0.67,0-1.21-0.54-1.21-1.21l0,0c0-0.67,0.54-1.21,1.21-1.21h1.94
	c0.67,0,1.21,0.54,1.21,1.21l0,0C347.59,223.29,347.04,223.83,346.38,223.83z"/>
<rect x="342.09" y="223.83" class="st2" width="6.63" height="18.91"/>
<g>
	<g>
		<line class="st3" x1="341.36" y1="303.05" x2="341.33" y2="302.52"/>
		<polyline class="st3" points="343.9,285.31 343.26,275.1 376.65,275.1 373.11,317.96 345.92,317.96 345.16,305.66 		"/>
		<line class="st3" x1="344.97" y1="301.52" x2="344.23" y2="289.52"/>
		<path class="st2" d="M345.51,305.4c-5.46,0.32-10.15-3.84-10.48-9.3s3.84-10.15,9.3-10.48"/>
		<path class="st2" d="M344.57,289.44c-3.35,0.2-5.91,3.08-5.71,6.43c0.2,3.35,3.08,5.91,6.43,5.71"/>
	</g>
	<line class="st2" x1="371.61" y1="280.36" x2="371.21" y2="299.27"/>
	<line class="st2" x1="351.12" y1="313.06" x2="368.06" y2="312.67"/>
</g>
<g>
	<path class="st2" d="M149.73,225.84l-9.89-17.13c-1.19-2.06-4.16-2.06-5.35,0l-9.89,17.13"/>
	<path class="st2" d="M149.59,225.6c1.53,1.89,1.74-1.48,0.9-3.07l-11.41-19.76c-0.85-1.47-2.98-1.47-3.83,0l-11.41,19.76
		c-0.64,1.11-0.93,5.86,0.76,3.32"/>
</g>
<polyline class="st2" points="148.58,224 148.58,240.78 125.75,240.78 125.75,224 "/>
<path class="st2" d="M141.29,240.16h-8.26v-7.3c0-2.28,1.85-4.13,4.13-4.13h0c2.28,0,4.13,1.85,4.13,4.13V240.16z"/>
<circle class="st2" cx="137.16" cy="219.79" r="3.29"/>
<line class="st2" x1="133.67" y1="219.79" x2="140.67" y2="219.79"/>
<line class="st2" x1="137.16" y1="223.07" x2="137.16" y2="216.52"/>
<g>
	<path class="st2" d="M375.97,360.08l-21.44-19.64c-2.58-2.36-9.02-2.36-11.6,0l-21.44,19.64"/>
	<path class="st2" d="M375.67,359.8c3.31,2.17,3.78-1.69,1.95-3.53l-24.74-22.66c-1.85-1.69-6.46-1.69-8.3,0l-24.74,22.66
		c-1.38,1.27-2.02,6.72,1.65,3.8"/>
</g>
<line class="st2" x1="324.79" y1="392.23" x2="324.79" y2="356.94"/>
<line class="st2" x1="372.79" y1="356.94" x2="372.79" y2="392.23"/>
<g>
	<path class="st2" d="M121.14,401.46c31.58-10.77,65.17-9.3,96.42-1.2"/>
	<path class="st2" d="M211.29,397.82c0,0,49.11-33.09,93.61,1.03"/>
	<path class="st2" d="M293.37,390.72c0,0,30.56-8.41,52.39,11.14"/>
</g>
<line class="st2" x1="118.41" y1="445.77" x2="414.46" y2="445.77"/>
<line class="st2" x1="118.41" y1="471.63" x2="414.46" y2="471.63"/>
<g>
	<text transform="matrix(1 0 0 1 298.055 384.4465)" class="st0 st5 st18">A  T</text>
</g>
<rect x="147.85" y="417.82" class="st2" width="45.72" height="18.24"/>
<circle class="st2" cx="184.77" cy="441.53" r="2.93"/>
<circle class="st2" cx="190.63" cy="441.53" r="2.93"/>
<path class="st3" d="M191.06,442.12h-6.71c-0.33,0-0.6-0.27-0.6-0.6l0,0c0-0.33,0.27-0.6,0.6-0.6h6.71c0.33,0,0.6,0.27,0.6,0.6l0,0
	C191.66,441.85,191.39,442.12,191.06,442.12z"/>
<rect x="146.21" y="436.06" class="st3" width="49.59" height="3.87"/>
<path class="st3" d="M158.98,442.12h-6.71c-0.33,0-0.6-0.27-0.6-0.6l0,0c0-0.33,0.27-0.6,0.6-0.6h6.71c0.33,0,0.6,0.27,0.6,0.6l0,0
	C159.58,441.85,159.31,442.12,158.98,442.12z"/>
<rect x="199.93" y="414.15" class="st2" width="25" height="3.67"/>
<path class="st2" d="M219.86,424.61h-14.88c-0.93,0-1.68-0.76-1.68-1.68v-1.99c0-0.93,0.76-1.68,1.68-1.68h14.88
	c0.93,0,1.68,0.76,1.68,1.68v1.99C221.55,423.86,220.79,424.61,219.86,424.61z"/>
<path class="st2" d="M245.71,424.67c0.62,0.72,1.12,1.56,1.45,2.47v9.12l5.55,5.86h-10.84l-18.74-2.85l-21.47,1.51
	c0,0-4.18-2.87,0-6.07v-17.02h21.54v9.49l2.45-0.14v-3.08h4v3.08l2.63-0.07c0.28-0.78,0.68-1.49,1.17-2.13"/>
<path class="st2" d="M243.5,422.71c0.84,0.46,1.6,1.07,2.22,1.79"/>
<path class="st2" d="M233.45,424.84c0.67-0.87,1.52-1.6,2.49-2.13"/>
<polyline class="st2" points="235.94,423.11 235.94,408.66 243.5,408.66 243.5,423.11 "/>
<circle class="st3" cx="208.26" cy="440.66" r="4.96"/>
<circle class="st3" cx="218.17" cy="440.66" r="4.96"/>
<path class="st3" d="M219.3,441.67h-12.18c-0.33,0-0.6-0.27-0.6-0.6v-0.83c0-0.33,0.27-0.6,0.6-0.6h12.18c0.33,0,0.6,0.27,0.6,0.6
	v0.83C219.9,441.41,219.63,441.67,219.3,441.67z"/>
<circle class="st3" cx="233.09" cy="442.12" r="2.85"/>
<circle class="st3" cx="239.01" cy="442.12" r="2.85"/>
<line class="st3" x1="201.65" y1="429.91" x2="247.16" y2="429.91"/>
<line class="st3" x1="201.65" y1="432.25" x2="247.16" y2="432.37"/>
<line class="st3" x1="216.3" y1="419.25" x2="216.3" y2="424.61"/>
<rect x="193.56" y="436.06" class="st3" width="11" height="3.21"/>
<circle class="st0" cx="411.96" cy="457.97" r="2.5"/>
<polyline class="st2" points="413,450.9 405.93,457.97 413,465.04 "/>
<circle class="st0" cx="121.07" cy="457.97" r="2.5"/>
<polyline class="st2" points="120.03,450.9 127.11,457.97 120.03,465.04 "/>
<g>
	<text transform="matrix(1 0 0 1 131.5968 461.6513)"><tspan x="0" y="0" class="st16 st5 st19">T H E B A N Q U E T H A L L A</tspan><tspan x="115.66" y="0" class="st16 st20 st19">◇</tspan><tspan x="125.66" y="0" class="st16 st5 st19">Y O U R S T A T E Y O U R </tspan><tspan x="227.43" y="0" class="st16 st20 st19">◇</tspan><tspan x="237.43" y="0" class="st16 st5 st19"> T O W N</tspan></text>
</g>
<g>
	<polyline class="st2" points="304.74,413.28 311.66,417.88 304.74,422.47 	"/>
	<polyline class="st2" points="304.85,422.47 277.93,422.47 277.93,413.28 304.85,413.28 	"/>
</g>
<path class="st2" d="M286.59,413.68c0-2.77,1.84-5.02,4.1-5.02s4.1,2.25,4.1,5.02"/>
<polyline class="st2" points="294.8,423.09 294.8,445.54 286.59,445.54 286.59,423.09 "/>
<path class="st2" d="M347.96,446.43c0,0-0.77-6.44,3.83-8.93c0,0,0-8.29,3.07-8.11c0,0-1.36-7.89,2.19-8.16c0,0-3.24-7.06,1.3-9.78
	s6.08-17.85,6.08-17.85"/>
<path class="st2" d="M381.07,446.89c0,0,0.77-6.44-3.83-8.93c0,0,0-8.29-3.07-8.11c0,0,1.36-7.89-2.19-8.16c0,0,3.24-7.06-1.3-9.78
	c-4.55-2.72-6.08-17.85-6.08-17.85"/>
<path class="st2" d="M326.22,446.78c0,0-0.51-4.28,2.55-5.94c0,0,0-5.51,2.04-5.39c0,0-0.91-5.25,1.46-5.43c0,0-2.16-4.69,0.87-6.51
	c3.02-1.81,4.04-11.87,4.04-11.87"/>
<path class="st2" d="M348.24,447.08c0,0,0.51-4.28-2.55-5.94c0,0,0-5.51-2.04-5.39c0,0,0.91-5.25-1.46-5.43c0,0,2.16-4.69-0.87-6.51
	c-3.02-1.81-4.04-11.87-4.04-11.87"/>
<path class="st3" d="M144.68,337.97c0,0-13.6,40.34-18.93,40.75c0,0,7.01,8.63,13.58,0c0,0,5.75,8.63,12.74,0c0,0,9.87,8.22,13.57,0
	C165.64,378.72,143.86,344.9,144.68,337.97z"/>
<path class="st3" d="M144.86,337.97c0,0-11.1,32.92-15.44,33.25c0,0,5.72,7.04,11.08,0c0,0,4.7,7.04,10.4,0c0,0,8.05,6.71,11.07,0
	C161.97,371.22,144.19,343.62,144.86,337.97z"/>
<path class="st3" d="M145.02,337.31c0,0-9.04,26.83-12.59,27.1c0,0,4.66,5.74,9.03,0c0,0,3.83,5.74,8.48,0c0,0,6.56,5.47,9.02,0
	C158.96,364.41,144.47,341.92,145.02,337.31z"/>
<path class="st3" d="M145.09,331.24c0,0-8.09,24.01-11.26,24.25c0,0,4.17,5.14,8.08,0c0,0,3.42,5.14,7.58,0c0,0,5.87,4.89,8.07,0
	C157.57,355.49,144.6,335.37,145.09,331.24z"/>
<polygon class="st3" points="148.26,336.98 145.69,335.65 143.14,337.01 143.61,334.16 141.53,332.16 144.39,331.72 145.65,329.12 
	146.95,331.71 149.81,332.1 147.75,334.14 "/>
<path class="st3" d="M145.7,392.51h4.72c-2.88-2.85,1.64-11.17,1.64-11.17l0.74-1.35"/>
<line class="st3" x1="140.98" y1="405.09" x2="145.7" y2="405.09"/>
<path class="st3" d="M139.33,378.72c0,0,4.52,10.27,1.64,13.79h4.72"/>
<path class="st2" d="M371.03,273.96v-14.85c0,0,2.59-3.34,5.5,0v2.95c0,0,1.94,2.49,3.07,0c0,0,2.1-8.95-5.66-7.79
	c0,0-6.63-0.68-7.12,6.8l-0.65,12.89H371.03z"/>
<g>
	
		<use xlink:href="#New_Symbol"  width="4.47" height="4.47" x="-2.24" y="-2.24" transform="matrix(1 0 0 -1 146.9518 38.876)" style="overflow:visible;"/>
	
		<use xlink:href="#New_Symbol"  width="4.47" height="4.47" x="-2.24" y="-2.24" transform="matrix(1 0 0 -1 139.4651 13.1723)" style="overflow:visible;"/>
	
		<use xlink:href="#New_Symbol"  width="4.47" height="4.47" x="-2.24" y="-2.24" transform="matrix(1 0 0 -1 198.6931 13.7489)" style="overflow:visible;"/>
	
		<use xlink:href="#New_Symbol"  width="4.47" height="4.47" x="-2.24" y="-2.24" transform="matrix(1 0 0 -1 289.9113 15.0473)" style="overflow:visible;"/>
	
		<use xlink:href="#New_Symbol"  width="4.47" height="4.47" x="-2.24" y="-2.24" transform="matrix(1 0 0 -1 315.6485 15.481)" style="overflow:visible;"/>
	
		<use xlink:href="#New_Symbol"  width="4.47" height="4.47" x="-2.24" y="-2.24" transform="matrix(1 0 0 -1 313.7306 28.254)" style="overflow:visible;"/>
	
		<use xlink:href="#New_Symbol"  width="4.47" height="4.47" x="-2.24" y="-2.24" transform="matrix(1 0 0 -1 198.6925 30.0908)" style="overflow:visible;"/>
	
		<use xlink:href="#New_Symbol"  width="4.47" height="4.47" x="-2.24" y="-2.24" transform="matrix(1 0 0 -1 149.2855 27.9111)" style="overflow:visible;"/>
	
		<use xlink:href="#New_Symbol"  width="4.47" height="4.47" x="-2.24" y="-2.24" transform="matrix(1 0 0 -1 123.4094 31.6522)" style="overflow:visible;"/>
	
		<use xlink:href="#New_Symbol"  width="4.47" height="4.47" x="-2.24" y="-2.24" transform="matrix(1 0 0 -1 247.5463 36.1263)" style="overflow:visible;"/>
	
		<use xlink:href="#New_Symbol"  width="4.47" height="4.47" x="-2.24" y="-2.24" transform="matrix(1 0 0 -1 108.3071 111.3596)" style="overflow:visible;"/>
	
		<use xlink:href="#New_Symbol"  width="4.47" height="4.47" x="-2.24" y="-2.24" transform="matrix(1 0 0 -1 107.7793 123.7889)" style="overflow:visible;"/>
	
		<use xlink:href="#New_Symbol"  width="4.47" height="4.47" x="-2.24" y="-2.24" transform="matrix(1 0 0 -1 130.2883 122.0026)" style="overflow:visible;"/>
	
		<use xlink:href="#New_Symbol"  width="4.47" height="4.47" x="-2.24" y="-2.24" transform="matrix(1 0 0 -1 138.9871 137.5846)" style="overflow:visible;"/>
	
		<use xlink:href="#New_Symbol"  width="4.47" height="4.47" x="-2.24" y="-2.24" transform="matrix(1 0 0 -1 183.456 138.7488)" style="overflow:visible;"/>
	
		<use xlink:href="#New_Symbol"  width="4.47" height="4.47" x="-2.24" y="-2.24" transform="matrix(1 0 0 -1 219.9976 138.6249)" style="overflow:visible;"/>
	
		<use xlink:href="#New_Symbol"  width="4.47" height="4.47" x="-2.24" y="-2.24" transform="matrix(1 0 0 -1 236.994 138.8505)" style="overflow:visible;"/>
	
		<use xlink:href="#New_Symbol"  width="4.47" height="4.47" x="-2.24" y="-2.24" transform="matrix(1 0 0 -1 269.0603 129.3315)" style="overflow:visible;"/>
	
		<use xlink:href="#New_Symbol"  width="4.47" height="4.47" x="-2.24" y="-2.24" transform="matrix(1 0 0 -1 288.6684 117.0695)" style="overflow:visible;"/>
	
		<use xlink:href="#New_Symbol"  width="4.47" height="4.47" x="-2.24" y="-2.24" transform="matrix(1 0 0 -1 305.1951 105.7242)" style="overflow:visible;"/>
	
		<use xlink:href="#New_Symbol"  width="4.47" height="4.47" x="-2.24" y="-2.24" transform="matrix(1 0 0 -1 337.5158 105.1216)" style="overflow:visible;"/>
	
		<use xlink:href="#New_Symbol"  width="4.47" height="4.47" x="-2.24" y="-2.24" transform="matrix(1 0 0 -1 177.5735 248.2731)" style="overflow:visible;"/>
	
		<use xlink:href="#New_Symbol"  width="4.47" height="4.47" x="-2.24" y="-2.24" transform="matrix(1 0 0 -1 161.4963 247.5702)" style="overflow:visible;"/>
	
		<use xlink:href="#New_Symbol"  width="4.47" height="4.47" x="-2.24" y="-2.24" transform="matrix(1 0 0 -1 205.8596 253.6736)" style="overflow:visible;"/>
	
		<use xlink:href="#New_Symbol"  width="4.47" height="4.47" x="-2.24" y="-2.24" transform="matrix(1 0 0 -1 221.0392 251.1289)" style="overflow:visible;"/>
	
		<use xlink:href="#New_Symbol"  width="4.47" height="4.47" x="-2.24" y="-2.24" transform="matrix(1 0 0 -1 247.8226 248.6593)" style="overflow:visible;"/>
	
		<use xlink:href="#New_Symbol"  width="4.47" height="4.47" x="-2.24" y="-2.24" transform="matrix(1 0 0 -1 289.5858 249.2069)" style="overflow:visible;"/>
	
		<use xlink:href="#New_Symbol"  width="4.47" height="4.47" x="-2.24" y="-2.24" transform="matrix(1 0 0 -1 346.6221 248.7521)" style="overflow:visible;"/>
	
		<use xlink:href="#New_Symbol"  width="4.47" height="4.47" x="-2.24" y="-2.24" transform="matrix(1 0 0 -1 366.2092 278.5232)" style="overflow:visible;"/>
	
		<use xlink:href="#New_Symbol"  width="4.47" height="4.47" x="-2.24" y="-2.24" transform="matrix(1 0 0 -1 368.0292 291.999)" style="overflow:visible;"/>
	
		<use xlink:href="#New_Symbol"  width="4.47" height="4.47" x="-2.24" y="-2.24" transform="matrix(1 0 0 -1 237.651 303.7777)" style="overflow:visible;"/>
	
		<use xlink:href="#New_Symbol"  width="4.47" height="4.47" x="-2.24" y="-2.24" transform="matrix(1 0 0 -1 210.4302 314.1245)" style="overflow:visible;"/>
	
		<use xlink:href="#New_Symbol"  width="4.47" height="4.47" x="-2.24" y="-2.24" transform="matrix(1 0 0 -1 183.2451 317.7069)" style="overflow:visible;"/>
	
		<use xlink:href="#New_Symbol"  width="4.47" height="4.47" x="-2.24" y="-2.24" transform="matrix(1 0 0 -1 167.1107 312.2642)" style="overflow:visible;"/>
	
		<use xlink:href="#New_Symbol"  width="4.47" height="4.47" x="-2.24" y="-2.24" transform="matrix(1 0 0 -1 132.1855 308.9553)" style="overflow:visible;"/>
	
		<use xlink:href="#New_Symbol"  width="4.47" height="4.47" x="-2.24" y="-2.24" transform="matrix(1 0 0 -1 104.7041 307.1941)" style="overflow:visible;"/>
	
		<use xlink:href="#New_Symbol"  width="4.47" height="4.47" x="-2.24" y="-2.24" transform="matrix(1 0 0 -1 95.5943 319.9422)" style="overflow:visible;"/>
	
		<use xlink:href="#New_Symbol"  width="4.47" height="4.47" x="-2.24" y="-2.24" transform="matrix(1 0 0 -1 95.9984 330.4132)" style="overflow:visible;"/>
	
		<use xlink:href="#New_Symbol"  width="4.47" height="4.47" x="-2.24" y="-2.24" transform="matrix(1 0 0 -1 168.6615 393.0015)" style="overflow:visible;"/>
	
		<use xlink:href="#New_Symbol"  width="4.47" height="4.47" x="-2.24" y="-2.24" transform="matrix(1 0 0 -1 193.0854 391.3542)" style="overflow:visible;"/>
	
		<use xlink:href="#New_Symbol"  width="4.47" height="4.47" x="-2.24" y="-2.24" transform="matrix(1 0 0 -1 222.4018 384.0683)" style="overflow:visible;"/>
	
		<use xlink:href="#New_Symbol"  width="4.47" height="4.47" x="-2.24" y="-2.24" transform="matrix(1 0 0 -1 255.3202 382.7335)" style="overflow:visible;"/>
	
		<use xlink:href="#New_Symbol"  width="4.47" height="4.47" x="-2.24" y="-2.24" transform="matrix(1 0 0 -1 266.1117 379.2033)" style="overflow:visible;"/>
	
		<use xlink:href="#New_Symbol"  width="4.47" height="4.47" x="-2.24" y="-2.24" transform="matrix(1 0 0 -1 276.666 380.8879)" style="overflow:visible;"/>
	
		<use xlink:href="#New_Symbol"  width="4.47" height="4.47" x="-2.24" y="-2.24" transform="matrix(1 0 0 -1 320.3852 340.4718)" style="overflow:visible;"/>
	
		<use xlink:href="#New_Symbol"  width="4.47" height="4.47" x="-2.24" y="-2.24" transform="matrix(1 0 0 -1 347.2295 336.1992)" style="overflow:visible;"/>
	
		<use xlink:href="#New_Symbol"  width="4.47" height="4.47" x="-2.24" y="-2.24" transform="matrix(1 0 0 -1 358.9341 335.0502)" style="overflow:visible;"/>
	
		<use xlink:href="#New_Symbol"  width="4.47" height="4.47" x="-2.24" y="-2.24" transform="matrix(1 0 0 -1 384.1971 343.249)" style="overflow:visible;"/>
	
		<use xlink:href="#New_Symbol"  width="4.47" height="4.47" x="-2.24" y="-2.24" transform="matrix(1 0 0 -1 386.569 398.6414)" style="overflow:visible;"/>
	
		<use xlink:href="#New_Symbol"  width="4.47" height="4.47" x="-2.24" y="-2.24" transform="matrix(1 0 0 -1 404.3084 414.7744)" style="overflow:visible;"/>
	
		<use xlink:href="#New_Symbol"  width="4.47" height="4.47" x="-2.24" y="-2.24" transform="matrix(1 0 0 -1 176.8749 379.4274)" style="overflow:visible;"/>
	
		<use xlink:href="#New_Symbol"  width="4.47" height="4.47" x="-2.24" y="-2.24" transform="matrix(1 0 0 -1 202.058 372.6962)" style="overflow:visible;"/>
	
		<use xlink:href="#New_Symbol"  width="4.47" height="4.47" x="-2.24" y="-2.24" transform="matrix(1 0 0 -1 229.5304 360.8844)" style="overflow:visible;"/>
	
		<use xlink:href="#New_Symbol"  width="4.47" height="4.47" x="-2.24" y="-2.24" transform="matrix(1 0 0 -1 234.178 343.2827)" style="overflow:visible;"/>
	
		<use xlink:href="#New_Symbol"  width="4.47" height="4.47" x="-2.24" y="-2.24" transform="matrix(1 0 0 -1 230.5073 329.2466)" style="overflow:visible;"/>
	
		<use xlink:href="#New_Symbol"  width="4.47" height="4.47" x="-2.24" y="-2.24" transform="matrix(1 0 0 -1 127.3705 350.7519)" style="overflow:visible;"/>
	
		<use xlink:href="#New_Symbol"  width="4.47" height="4.47" x="-2.24" y="-2.24" transform="matrix(1 0 0 -1 142.0693 349.6261)" style="overflow:visible;"/>
	
		<use xlink:href="#New_Symbol"  width="4.47" height="4.47" x="-2.24" y="-2.24" transform="matrix(1 0 0 -1 145.0963 358.3547)" style="overflow:visible;"/>
	
		<use xlink:href="#New_Symbol"  width="4.47" height="4.47" x="-2.24" y="-2.24" transform="matrix(1 0 0 -1 131.9185 370.427)" style="overflow:visible;"/>
	
		<use xlink:href="#New_Symbol"  width="4.47" height="4.47" x="-2.24" y="-2.24" transform="matrix(1 0 0 -1 111.9512 376.7711)" style="overflow:visible;"/>
	
		<use xlink:href="#New_Symbol"  width="4.47" height="4.47" x="-2.24" y="-2.24" transform="matrix(1 0 0 -1 127.6412 383.2415)" style="overflow:visible;"/>
</g>
<path class="st21" d="M351.32,252.18c0,0-3.14,5.56,0,9.91s0,9.08,0,9.08"/>
<path class="st21" d="M358.3,255.72c0,0-3.14,5.56,0,9.91c3.14,4.35,0,9.08,0,9.08"/>
</svg>
