<?xml version="1.0" encoding="utf-8"?>
<!-- Generator: Adobe Illustrator 27.0.0, SVG Export Plug-In . SVG Version: 6.00 Build 0)  -->
<svg version="1.1" id="Layer_1" xmlns="http://www.w3.org/2000/svg" xmlns:xlink="http://www.w3.org/1999/xlink" x="0px" y="0px"
	 viewBox="0 0 1920 600" style="enable-background:new 0 0 1920 600;" xml:space="preserve">
<style type="text/css">
	.st0{fill:url(#SVGID_1_);stroke:#EE7EA2;stroke-miterlimit:10;}
	.st1{fill:url(#SVGID_00000095336959602251898530000003792552616639715744_);}
	.st2{fill:none;stroke:url(#SVGID_00000090268314673800539910000000383203441815397518_);stroke-width:6;stroke-miterlimit:10;}
	.st3{opacity:0.4;fill:#FFFFFF;}
	.st4{fill:url(#SVGID_00000101098570655186114050000009578004970457088647_);}
	.st5{opacity:0.24;}
	.st6{fill:none;stroke:url(#SVGID_00000064326702950786483630000009972867651166284467_);stroke-miterlimit:10;}
	.st7{fill:none;stroke:url(#SVGID_00000129194464805877753110000001039172359735382162_);stroke-miterlimit:10;}
	.st8{fill:none;stroke:url(#SVGID_00000178893054820211887870000008137675660778480779_);stroke-miterlimit:10;}
	.st9{fill:none;stroke:url(#SVGID_00000148659431087227458710000008055888594198519711_);stroke-miterlimit:10;}
	.st10{fill:none;stroke:url(#SVGID_00000089559670673167506490000016475946954715049651_);stroke-miterlimit:10;}
	.st11{fill:none;stroke:url(#SVGID_00000164507045757216055030000016485247664243602315_);stroke-miterlimit:10;}
	.st12{fill:none;stroke:url(#SVGID_00000070093380766364225190000001876283067716279227_);stroke-miterlimit:10;}
	.st13{fill:none;stroke:url(#SVGID_00000053532691005235086440000011537116759105283235_);stroke-miterlimit:10;}
	.st14{fill:none;stroke:url(#SVGID_00000124157659968315659410000013803225800070059922_);stroke-miterlimit:10;}
	.st15{fill:none;stroke:url(#SVGID_00000103230421271636544410000015027296703170363016_);stroke-miterlimit:10;}
	.st16{fill:none;stroke:url(#SVGID_00000045617582336988939060000010949202740599072404_);stroke-miterlimit:10;}
	.st17{fill:none;stroke:url(#SVGID_00000016755045828964809560000003968613468620207277_);stroke-miterlimit:10;}
	.st18{fill:none;stroke:url(#SVGID_00000082361430685622330030000007272839718938160529_);stroke-miterlimit:10;}
	.st19{fill:none;stroke:url(#SVGID_00000098194025915272934080000016541760116419498898_);stroke-miterlimit:10;}
	.st20{fill:none;stroke:url(#SVGID_00000036232410647609449930000010547068083129856178_);stroke-miterlimit:10;}
	.st21{fill:none;stroke:url(#SVGID_00000072260244730026440720000004022172062885987219_);stroke-miterlimit:10;}
	.st22{fill:none;stroke:url(#SVGID_00000158737027217419269600000017111298562055800502_);stroke-miterlimit:10;}
	.st23{fill:none;stroke:url(#SVGID_00000025425388434285486300000000921755803599378614_);stroke-miterlimit:10;}
	.st24{fill:#FFFFFF;stroke:#231F20;stroke-miterlimit:10;}
	.st25{fill:#FFFFFF;}
	.st26{opacity:0.4;}
	.st27{opacity:0.2;}
</style>
<symbol  id="New_Symbol" viewBox="-50.5 -50.5 101 101">
	<linearGradient id="SVGID_1_" gradientUnits="userSpaceOnUse" x1="-50" y1="0" x2="50" y2="0">
		<stop  offset="0" style="stop-color:#F4BAA6"/>
		<stop  offset="1" style="stop-color:#DF759B"/>
	</linearGradient>
	<circle class="st0" cx="0" cy="0" r="50"/>
</symbol>
<symbol  id="New_Symbol_1" viewBox="-53.2 -53.2 106.5 106.5">
	
		<linearGradient id="SVGID_00000106137595320332027870000009434223362737662876_" gradientUnits="userSpaceOnUse" x1="-4.547474e-12" y1="45.2625" x2="5.275895e-12" y2="-50.2325">
		<stop  offset="0" style="stop-color:#D16098"/>
		<stop  offset="1" style="stop-color:#2E3192"/>
	</linearGradient>
	<path style="fill:url(#SVGID_00000106137595320332027870000009434223362737662876_);" d="M0,53.2c-29.4,0-53.2-23.8-53.2-53.2
		S-29.4-53.2,0-53.2S53.2-29.4,53.2,0S29.4,53.2,0,53.2z M0-39.7c-21.9,0-39.7,17.8-39.7,39.7S-21.9,39.7,0,39.7S39.7,21.9,39.7,0
		S21.9-39.7,0-39.7z"/>
</symbol>
<symbol  id="New_Symbol_2" viewBox="-28.7 -9.3 57.3 18.6">
	
		<linearGradient id="SVGID_00000007421388100775654870000008361209000675629442_" gradientUnits="userSpaceOnUse" x1="-28.6679" y1="0" x2="28.6679" y2="0">
		<stop  offset="0" style="stop-color:#D16098"/>
		<stop  offset="1" style="stop-color:#FBB040"/>
	</linearGradient>
	
		<path style="fill:none;stroke:url(#SVGID_00000007421388100775654870000008361209000675629442_);stroke-width:6;stroke-miterlimit:10;" d="
		M-25.4,3.1c-1.1-3.4,1.2-7.6,4.8-8.4s7.4,2,7.8,5.6c0.1,1,0,2.1,0.3,3c1.1,2.8,5.5,2.5,7.6,0.4s3.1-5.2,5.1-7.5s5.9-3.7,7.8-1.3
		c1.2,1.4,1.1,3.4,1.5,5.2c1,4.3,6.1,7.2,10.4,5.9s6.8-6.6,5.2-10.7"/>
</symbol>
<symbol  id="New_Symbol_3" viewBox="-30.8 -71 61.7 142">
	<circle class="st3" cx="-18.3" cy="58.5" r="12.5"/>
	<circle class="st3" cx="-18.3" cy="19.5" r="12.5"/>
	<circle class="st3" cx="-18.3" cy="-19.5" r="12.5"/>
	<circle class="st3" cx="-18.3" cy="-58.5" r="12.5"/>
	<circle class="st3" cx="18.3" cy="58.5" r="12.5"/>
	<circle class="st3" cx="18.3" cy="19.5" r="12.5"/>
	<circle class="st3" cx="18.3" cy="-19.5" r="12.5"/>
	<circle class="st3" cx="18.3" cy="-58.5" r="12.5"/>
</symbol>
<linearGradient id="SVGID_00000104690819121813247540000001762451945723113911_" gradientUnits="userSpaceOnUse" x1="960" y1="45" x2="960" y2="583">
	<stop  offset="0" style="stop-color:#D16098"/>
	<stop  offset="1" style="stop-color:#224268"/>
</linearGradient>
<rect style="fill:url(#SVGID_00000104690819121813247540000001762451945723113911_);" width="1920" height="600"/>
<g class="st5">
	
		<linearGradient id="SVGID_00000040541783429470902140000003424603870236552340_" gradientUnits="userSpaceOnUse" x1="-5.8866" y1="196.2254" x2="1914.249" y2="196.2254" gradientTransform="matrix(-1 0 0 1 1893.4928 0)">
		<stop  offset="0" style="stop-color:#2E3192"/>
		<stop  offset="1" style="stop-color:#EC008C"/>
	</linearGradient>
	<path style="fill:none;stroke:url(#SVGID_00000040541783429470902140000003424603870236552340_);stroke-miterlimit:10;" d="
		M1899.3-49.8c0,0-405-90-960,218s-960,286-960,286"/>
	
		<linearGradient id="SVGID_00000069384766072352951520000015115783050237047956_" gradientUnits="userSpaceOnUse" x1="-10.7501" y1="242.0722" x2="1909.3855" y2="242.0722" gradientTransform="matrix(-1 0 0 1 1893.4928 0)">
		<stop  offset="0" style="stop-color:#2E3192"/>
		<stop  offset="1" style="stop-color:#EC008C"/>
	</linearGradient>
	<path style="fill:none;stroke:url(#SVGID_00000069384766072352951520000015115783050237047956_);stroke-miterlimit:10;" d="
		M1904.1-4c0,0-405-90-960,218s-960,286-960,286"/>
	
		<linearGradient id="SVGID_00000167377953907148069530000010041746075689002380_" gradientUnits="userSpaceOnUse" x1="-15.6136" y1="287.919" x2="1904.5221" y2="287.919" gradientTransform="matrix(-1 0 0 1 1893.4928 0)">
		<stop  offset="0" style="stop-color:#2E3192"/>
		<stop  offset="1" style="stop-color:#EC008C"/>
	</linearGradient>
	<path style="fill:none;stroke:url(#SVGID_00000167377953907148069530000010041746075689002380_);stroke-miterlimit:10;" d="
		M1909,41.9c0,0-405-90-960,218s-960,286-960,286"/>
	
		<linearGradient id="SVGID_00000089553629222910970300000002870026247928415135_" gradientUnits="userSpaceOnUse" x1="-20.477" y1="333.7659" x2="1899.6586" y2="333.7659" gradientTransform="matrix(-1 0 0 1 1893.4928 0)">
		<stop  offset="0" style="stop-color:#2E3192"/>
		<stop  offset="1" style="stop-color:#EC008C"/>
	</linearGradient>
	<path style="fill:none;stroke:url(#SVGID_00000089553629222910970300000002870026247928415135_);stroke-miterlimit:10;" d="
		M1913.9,87.7c0,0-405-90-960,218s-960,286-960,286"/>
	
		<linearGradient id="SVGID_00000177456358184675424270000009444376344243551152_" gradientUnits="userSpaceOnUse" x1="-25.3405" y1="379.6127" x2="1894.7952" y2="379.6127" gradientTransform="matrix(-1 0 0 1 1893.4928 0)">
		<stop  offset="0" style="stop-color:#2E3192"/>
		<stop  offset="1" style="stop-color:#EC008C"/>
	</linearGradient>
	<path style="fill:none;stroke:url(#SVGID_00000177456358184675424270000009444376344243551152_);stroke-miterlimit:10;" d="
		M1918.7,133.6c0,0-405-90-960,218s-960,286-960,286"/>
	
		<linearGradient id="SVGID_00000161624858487710529870000012304875056865577615_" gradientUnits="userSpaceOnUse" x1="-30.204" y1="425.4596" x2="1889.9316" y2="425.4596" gradientTransform="matrix(-1 0 0 1 1893.4928 0)">
		<stop  offset="0" style="stop-color:#2E3192"/>
		<stop  offset="1" style="stop-color:#EC008C"/>
	</linearGradient>
	<path style="fill:none;stroke:url(#SVGID_00000161624858487710529870000012304875056865577615_);stroke-miterlimit:10;" d="
		M1923.6,179.4c0,0-405-90-960,218s-960,286-960,286"/>
	
		<linearGradient id="SVGID_00000140729008543727107570000015219476915937133503_" gradientUnits="userSpaceOnUse" x1="-35.0674" y1="471.3064" x2="1885.0682" y2="471.3064" gradientTransform="matrix(-1 0 0 1 1893.4928 0)">
		<stop  offset="0" style="stop-color:#2E3192"/>
		<stop  offset="1" style="stop-color:#EC008C"/>
	</linearGradient>
	<path style="fill:none;stroke:url(#SVGID_00000140729008543727107570000015219476915937133503_);stroke-miterlimit:10;" d="
		M1928.5,225.3c0,0-405-90-960,218s-960,286-960,286"/>
	
		<linearGradient id="SVGID_00000171699806362344208570000004075891805888139675_" gradientUnits="userSpaceOnUse" x1="-39.9309" y1="517.1533" x2="1880.2047" y2="517.1533" gradientTransform="matrix(-1 0 0 1 1893.4928 0)">
		<stop  offset="0" style="stop-color:#2E3192"/>
		<stop  offset="1" style="stop-color:#EC008C"/>
	</linearGradient>
	<path style="fill:none;stroke:url(#SVGID_00000171699806362344208570000004075891805888139675_);stroke-miterlimit:10;" d="
		M1933.3,271.1c0,0-405-90-960,218s-960,286-960,286"/>
	
		<linearGradient id="SVGID_00000110441436578575661970000017773696691401608846_" gradientUnits="userSpaceOnUse" x1="-44.7944" y1="563.0001" x2="1875.3413" y2="563.0001" gradientTransform="matrix(-1 0 0 1 1893.4928 0)">
		<stop  offset="0" style="stop-color:#2E3192"/>
		<stop  offset="1" style="stop-color:#EC008C"/>
	</linearGradient>
	<path style="fill:none;stroke:url(#SVGID_00000110441436578575661970000017773696691401608846_);stroke-miterlimit:10;" d="
		M1938.2,317c0,0-405-90-960,218s-960,286-960,286"/>
</g>
<g class="st5">
	
		<linearGradient id="SVGID_00000183237962549232424010000016221099366934617992_" gradientUnits="userSpaceOnUse" x1="217.34" y1="268.1173" x2="2137.4756" y2="268.1173" gradientTransform="matrix(-0.8615 -0.5077 -0.5077 0.8615 2169.1765 532.3558)">
		<stop  offset="0" style="stop-color:#2E3192"/>
		<stop  offset="1" style="stop-color:#EC008C"/>
	</linearGradient>
	<path style="fill:none;stroke:url(#SVGID_00000183237962549232424010000016221099366934617992_);stroke-miterlimit:10;" d="
		M1970.6,441c0,0-303.2-283.1-937.8-299.6S60.6-99.6,60.6-99.6"/>
	
		<linearGradient id="SVGID_00000143615089461176520290000002793690489201708675_" gradientUnits="userSpaceOnUse" x1="212.4765" y1="313.9641" x2="2132.6121" y2="313.9641" gradientTransform="matrix(-0.8615 -0.5077 -0.5077 0.8615 2169.1765 532.3558)">
		<stop  offset="0" style="stop-color:#2E3192"/>
		<stop  offset="1" style="stop-color:#EC008C"/>
	</linearGradient>
	<path style="fill:none;stroke:url(#SVGID_00000143615089461176520290000002793690489201708675_);stroke-miterlimit:10;" d="
		M1951.5,483c0,0-303.2-283.1-937.8-299.6S41.5-57.6,41.5-57.6"/>
	
		<linearGradient id="SVGID_00000183249560096314599580000016416445903532715153_" gradientUnits="userSpaceOnUse" x1="207.6131" y1="359.811" x2="2127.7488" y2="359.811" gradientTransform="matrix(-0.8615 -0.5077 -0.5077 0.8615 2169.1765 532.3558)">
		<stop  offset="0" style="stop-color:#2E3192"/>
		<stop  offset="1" style="stop-color:#EC008C"/>
	</linearGradient>
	<path style="fill:none;stroke:url(#SVGID_00000183249560096314599580000016416445903532715153_);stroke-miterlimit:10;" d="
		M1932.4,524.9c0,0-303.2-283.1-937.8-299.6S22.4-15.6,22.4-15.6"/>
	
		<linearGradient id="SVGID_00000166637726348841747500000015953990215931698108_" gradientUnits="userSpaceOnUse" x1="202.7496" y1="405.6578" x2="2122.8853" y2="405.6578" gradientTransform="matrix(-0.8615 -0.5077 -0.5077 0.8615 2169.1765 532.3558)">
		<stop  offset="0" style="stop-color:#2E3192"/>
		<stop  offset="1" style="stop-color:#EC008C"/>
	</linearGradient>
	<path style="fill:none;stroke:url(#SVGID_00000166637726348841747500000015953990215931698108_);stroke-miterlimit:10;" d="
		M1913.4,566.9c0,0-303.2-283.1-937.8-299.6S3.3,26.3,3.3,26.3"/>
	
		<linearGradient id="SVGID_00000027563276618419601150000006456655464112891802_" gradientUnits="userSpaceOnUse" x1="197.8861" y1="451.5047" x2="2118.0217" y2="451.5047" gradientTransform="matrix(-0.8615 -0.5077 -0.5077 0.8615 2169.1765 532.3558)">
		<stop  offset="0" style="stop-color:#2E3192"/>
		<stop  offset="1" style="stop-color:#EC008C"/>
	</linearGradient>
	<path style="fill:none;stroke:url(#SVGID_00000027563276618419601150000006456655464112891802_);stroke-miterlimit:10;" d="
		M1894.3,608.9c0,0-303.2-283.1-937.8-299.6s-972.3-241-972.3-241"/>
	
		<linearGradient id="SVGID_00000066506468507444055110000003698784445110164875_" gradientUnits="userSpaceOnUse" x1="193.0227" y1="497.3515" x2="2113.1582" y2="497.3515" gradientTransform="matrix(-0.8615 -0.5077 -0.5077 0.8615 2169.1765 532.3558)">
		<stop  offset="0" style="stop-color:#2E3192"/>
		<stop  offset="1" style="stop-color:#EC008C"/>
	</linearGradient>
	<path style="fill:none;stroke:url(#SVGID_00000066506468507444055110000003698784445110164875_);stroke-miterlimit:10;" d="
		M1875.2,650.8c0,0-303.2-283.1-937.8-299.6s-972.3-241-972.3-241"/>
	
		<linearGradient id="SVGID_00000153675578144464085100000008606316994444092849_" gradientUnits="userSpaceOnUse" x1="188.1592" y1="543.1984" x2="2108.2949" y2="543.1984" gradientTransform="matrix(-0.8615 -0.5077 -0.5077 0.8615 2169.1765 532.3558)">
		<stop  offset="0" style="stop-color:#2E3192"/>
		<stop  offset="1" style="stop-color:#EC008C"/>
	</linearGradient>
	<path style="fill:none;stroke:url(#SVGID_00000153675578144464085100000008606316994444092849_);stroke-miterlimit:10;" d="
		M1856.1,692.8c0,0-303.2-283.1-937.8-299.6c-634.5-16.4-972.3-241-972.3-241"/>
	
		<linearGradient id="SVGID_00000093164891978611829750000013666438109170246576_" gradientUnits="userSpaceOnUse" x1="183.2957" y1="589.0452" x2="2103.4314" y2="589.0452" gradientTransform="matrix(-0.8615 -0.5077 -0.5077 0.8615 2169.1765 532.3558)">
		<stop  offset="0" style="stop-color:#2E3192"/>
		<stop  offset="1" style="stop-color:#EC008C"/>
	</linearGradient>
	<path style="fill:none;stroke:url(#SVGID_00000093164891978611829750000013666438109170246576_);stroke-miterlimit:10;" d="
		M1837,734.8c0,0-303.2-283.1-937.8-299.6S-73,194.2-73,194.2"/>
	
		<linearGradient id="SVGID_00000179633069253142234490000012757660109837023134_" gradientUnits="userSpaceOnUse" x1="178.4323" y1="634.8921" x2="2098.5679" y2="634.8921" gradientTransform="matrix(-0.8615 -0.5077 -0.5077 0.8615 2169.1765 532.3558)">
		<stop  offset="0" style="stop-color:#2E3192"/>
		<stop  offset="1" style="stop-color:#EC008C"/>
	</linearGradient>
	<path style="fill:none;stroke:url(#SVGID_00000179633069253142234490000012757660109837023134_);stroke-miterlimit:10;" d="
		M1817.9,776.7c0,0-303.2-283.1-937.8-299.6s-972.3-241-972.3-241"/>
</g>
<g>
	
		<use xlink:href="#New_Symbol"  width="101" height="101" x="-50.5" y="-50.5" transform="matrix(-0.1818 -0.6336 -0.6336 0.1818 1319.5951 464.7492)" style="overflow:visible;opacity:0.801;"/>
	
		<use xlink:href="#New_Symbol"  width="101" height="101" x="-50.5" y="-50.5" transform="matrix(0.4212 0.7534 0.7534 -0.4212 580.3783 483.0845)" style="overflow:visible;opacity:0.6529;"/>
	
		<use xlink:href="#New_Symbol"  width="101" height="101" x="-50.5" y="-50.5" transform="matrix(0.4597 -0.3996 -0.3996 -0.4597 1656.6962 325.969)" style="overflow:visible;opacity:0.9318;"/>
	
		<use xlink:href="#New_Symbol"  width="101" height="101" x="-50.5" y="-50.5" transform="matrix(0.5808 0.3365 0.3365 -0.5808 82.1252 531.081)" style="overflow:visible;opacity:0.9363;"/>
</g>
<g>
	<path class="st24" d="M1081.4,494.8v-24.5h6.7c2.5,0,4.7,0.4,6.5,1.3s3.2,2.2,4.2,4c1,1.8,1.5,4,1.5,6.8s-0.5,5-1.5,6.9
		c-1,1.8-2.3,3.2-4.1,4.1c-1.8,0.9-3.8,1.4-6.3,1.4H1081.4z M1086.2,490.9h1.5c1.5,0,2.9-0.3,4-0.8c1.1-0.6,2-1.5,2.6-2.7
		c0.6-1.2,0.9-2.9,0.9-4.8s-0.3-3.6-0.9-4.8c-0.6-1.2-1.4-2.1-2.6-2.6c-1.1-0.5-2.4-0.8-4-0.8h-1.5V490.9z"/>
	<path class="st24" d="M1108.2,495.3c-1.8,0-3.3-0.4-4.5-1.1c-1.2-0.7-2.3-1.8-3.1-3.2l3.3-2.5c0.5,0.9,1,1.5,1.7,1.9
		c0.6,0.4,1.3,0.6,2,0.6c1.1,0,1.9-0.3,2.4-1c0.5-0.7,0.8-1.8,0.8-3.5v-16.2h4.9v16.6c0,1.5-0.3,2.9-0.8,4.2c-0.5,1.3-1.3,2.3-2.5,3
		S1109.9,495.3,1108.2,495.3z"/>
	<path class="st24" d="M1133.4,494.8l-7.5-24.5h5.1l3.2,11.9c0.4,1.3,0.7,2.6,1,3.9c0.3,1.3,0.6,2.6,1,4h0.2c0.4-1.4,0.7-2.7,1.1-4
		c0.3-1.3,0.6-2.6,1-3.9l3.2-11.9h5l-7.5,24.5H1133.4z"/>
	<path class="st24" d="M1145.6,494.8l7.8-24.5h5.8l7.8,24.5h-5.1l-3.5-12.7c-0.4-1.3-0.7-2.6-1.1-4s-0.7-2.7-1.1-4h-0.1
		c-0.3,1.3-0.6,2.7-1,4s-0.7,2.7-1.1,4l-3.5,12.7H1145.6z M1150.4,488.6v-3.8h11.6v3.8H1150.4z"/>
	<path class="st24" d="M1169.9,494.8v-24.5h4.9v20.4h9.9v4.1H1169.9z"/>
	<path class="st24" d="M1188.9,494.8v-24.5h8.5c1.7,0,3.3,0.2,4.7,0.7c1.4,0.5,2.5,1.2,3.3,2.3c0.8,1.1,1.2,2.6,1.2,4.4
		c0,1.8-0.4,3.3-1.2,4.4c-0.8,1.2-1.9,2-3.3,2.5c-1.4,0.5-2.9,0.8-4.7,0.8h-3.6v9.2H1188.9z M1193.8,481.7h3.2c1.6,0,2.8-0.3,3.6-1
		c0.8-0.7,1.2-1.6,1.2-2.9c0-1.3-0.4-2.2-1.2-2.8s-2-0.8-3.6-0.8h-3.2V481.7z M1202.2,494.8l-5.7-10.5l3.4-3l7.7,13.5H1202.2z"/>
	<path class="st24" d="M1221.1,495.3c-2.2,0-4.1-0.5-5.7-1.5s-2.9-2.5-3.8-4.4s-1.4-4.2-1.4-6.9c0-2.6,0.5-4.9,1.4-6.8
		c0.9-1.9,2.2-3.3,3.8-4.3c1.6-1,3.5-1.5,5.7-1.5c2.2,0,4.1,0.5,5.7,1.5c1.6,1,2.9,2.4,3.8,4.3s1.4,4.1,1.4,6.7
		c0,2.7-0.5,4.9-1.4,6.9s-2.2,3.4-3.8,4.4S1223.3,495.3,1221.1,495.3z M1221.1,491.1c1.2,0,2.3-0.4,3.2-1.1c0.9-0.7,1.6-1.7,2.1-3
		c0.5-1.3,0.7-2.8,0.7-4.5s-0.2-3.2-0.7-4.5c-0.5-1.2-1.2-2.2-2.1-2.9c-0.9-0.7-1.9-1-3.2-1s-2.3,0.3-3.2,1s-1.6,1.6-2,2.9
		c-0.5,1.2-0.7,2.7-0.7,4.5s0.2,3.2,0.7,4.5c0.5,1.3,1.2,2.3,2,3C1218.9,490.7,1219.9,491.1,1221.1,491.1z"/>
</g>
<g>
	<path class="st24" d="M689.3,494.8v-24.5h6.7c2.5,0,4.7,0.4,6.5,1.3s3.2,2.2,4.2,4c1,1.8,1.5,4,1.5,6.8s-0.5,5-1.5,6.9
		c-1,1.8-2.3,3.2-4.1,4.1c-1.8,0.9-3.9,1.4-6.3,1.4H689.3z M694.2,490.9h1.5c1.5,0,2.9-0.3,4-0.8c1.1-0.6,2-1.5,2.6-2.7
		c0.6-1.2,0.9-2.9,0.9-4.8s-0.3-3.6-0.9-4.8c-0.6-1.2-1.4-2.1-2.6-2.6c-1.1-0.5-2.4-0.8-4-0.8h-1.5V490.9z"/>
	<path class="st24" d="M716.2,495.3c-1.8,0-3.3-0.4-4.5-1.1c-1.2-0.7-2.3-1.8-3.1-3.2l3.3-2.5c0.5,0.9,1,1.5,1.7,1.9
		c0.6,0.4,1.3,0.6,2,0.6c1.1,0,1.9-0.3,2.4-1c0.5-0.7,0.8-1.8,0.8-3.5v-16.2h4.9v16.6c0,1.5-0.3,2.9-0.8,4.2c-0.5,1.3-1.3,2.3-2.5,3
		C719.4,494.9,717.9,495.3,716.2,495.3z"/>
	<path class="st24" d="M737.1,494.8v-24.5h4.9V481h0.1l8.1-10.6h5.4l-7.5,9.6l8.8,14.8h-5.3l-6.3-11L742,488v6.9H737.1z"/>
	<path class="st24" d="M756,494.8l7.8-24.5h5.8l7.8,24.5h-5.1l-3.5-12.7c-0.4-1.3-0.7-2.6-1.1-4c-0.3-1.4-0.7-2.7-1.1-4h-0.1
		c-0.3,1.3-0.6,2.7-1,4c-0.4,1.4-0.7,2.7-1.1,4l-3.5,12.7H756z M760.9,488.6v-3.8h11.6v3.8H760.9z"/>
	<path class="st24" d="M780.3,494.8v-24.5h4.9v20.4h9.9v4.1H780.3z"/>
	<path class="st24" d="M799.4,494.8v-24.5h8.1c1.7,0,3.2,0.2,4.5,0.6c1.3,0.4,2.4,1,3.2,1.9c0.8,0.9,1.2,2.1,1.2,3.6
		c0,0.7-0.1,1.5-0.4,2.2c-0.3,0.7-0.7,1.3-1.1,1.9c-0.5,0.6-1.1,1-1.8,1.2v0.1c1.3,0.3,2.4,0.9,3.3,1.9c0.9,1,1.3,2.2,1.3,3.9
		c0,1.6-0.4,3-1.2,4s-1.9,1.9-3.4,2.4c-1.4,0.5-3,0.8-4.8,0.8H799.4z M804.3,480.3h2.9c1.5,0,2.7-0.3,3.4-0.9
		c0.7-0.6,1.1-1.4,1.1-2.3c0-1.1-0.4-1.8-1.1-2.3c-0.7-0.5-1.8-0.7-3.3-0.7h-2.9V480.3z M804.3,491.1h3.4c1.7,0,2.9-0.3,3.8-0.9
		c0.9-0.6,1.3-1.5,1.3-2.8c0-1.2-0.4-2.1-1.3-2.6c-0.9-0.5-2.1-0.8-3.8-0.8h-3.4V491.1z"/>
	<path class="st24" d="M818.7,494.8l7.8-24.5h5.8l7.8,24.5H835l-3.5-12.7c-0.4-1.3-0.7-2.6-1.1-4c-0.3-1.4-0.7-2.7-1.1-4h-0.1
		c-0.3,1.3-0.6,2.7-1,4c-0.4,1.4-0.7,2.7-1.1,4l-3.5,12.7H818.7z M823.6,488.6v-3.8h11.6v3.8H823.6z"/>
</g>
<g>
	<path class="st24" d="M864.2,494.8v-24.5h6.7c2.5,0,4.7,0.4,6.5,1.3s3.2,2.2,4.2,4c1,1.8,1.5,4,1.5,6.8s-0.5,5-1.5,6.9
		c-1,1.8-2.3,3.2-4.1,4.1c-1.8,0.9-3.9,1.4-6.3,1.4H864.2z M869.1,490.9h1.5c1.5,0,2.9-0.3,4-0.8c1.1-0.6,2-1.5,2.6-2.7
		c0.6-1.2,0.9-2.9,0.9-4.8s-0.3-3.6-0.9-4.8c-0.6-1.2-1.4-2.1-2.6-2.6c-1.1-0.5-2.4-0.8-4-0.8h-1.5V490.9z"/>
	<path class="st24" d="M891.1,495.3c-1.8,0-3.3-0.4-4.5-1.1c-1.2-0.7-2.3-1.8-3.1-3.2l3.3-2.5c0.5,0.9,1,1.5,1.7,1.9
		c0.6,0.4,1.3,0.6,2,0.6c1.1,0,1.9-0.3,2.4-1c0.5-0.7,0.8-1.8,0.8-3.5v-16.2h4.9v16.6c0,1.5-0.3,2.9-0.8,4.2c-0.5,1.3-1.3,2.3-2.5,3
		C894.3,494.9,892.8,495.3,891.1,495.3z"/>
	<path class="st24" d="M912,494.8v-24.5h4.9v20.4h9.9v4.1H912z"/>
	<path class="st24" d="M939.3,495.3c-2.2,0-4.1-0.5-5.7-1.5c-1.6-1-2.9-2.5-3.8-4.4s-1.4-4.2-1.4-6.9c0-2.6,0.5-4.9,1.4-6.8
		c0.9-1.9,2.2-3.3,3.8-4.3c1.6-1,3.5-1.5,5.7-1.5c2.2,0,4.1,0.5,5.7,1.5c1.6,1,2.9,2.4,3.8,4.3c0.9,1.9,1.4,4.1,1.4,6.7
		c0,2.7-0.5,4.9-1.4,6.9c-0.9,1.9-2.2,3.4-3.8,4.4C943.4,494.8,941.5,495.3,939.3,495.3z M939.3,491.1c1.2,0,2.3-0.4,3.2-1.1
		c0.9-0.7,1.6-1.7,2.1-3s0.7-2.8,0.7-4.5s-0.2-3.2-0.7-4.5s-1.2-2.2-2.1-2.9s-1.9-1-3.2-1c-1.2,0-2.3,0.3-3.2,1
		c-0.9,0.7-1.6,1.6-2,2.9s-0.7,2.7-0.7,4.5s0.2,3.2,0.7,4.5s1.2,2.3,2,3C937.1,490.7,938.1,491.1,939.3,491.1z"/>
	<path class="st24" d="M962.3,495.3c-1.6,0-3.2-0.3-4.8-0.9c-1.6-0.6-2.9-1.5-4.1-2.6l2.8-3.4c0.9,0.8,1.8,1.5,3,2
		c1.1,0.5,2.2,0.7,3.3,0.7c1.3,0,2.2-0.3,2.9-0.8c0.7-0.5,1-1.2,1-2c0-0.6-0.2-1.1-0.5-1.5c-0.3-0.4-0.8-0.7-1.3-1
		c-0.6-0.3-1.2-0.6-1.9-0.9l-3.2-1.4c-0.8-0.3-1.6-0.8-2.4-1.3c-0.8-0.6-1.4-1.3-1.9-2.1c-0.5-0.9-0.7-1.9-0.7-3.1
		c0-1.3,0.4-2.5,1.1-3.6s1.7-1.9,3-2.5s2.7-0.9,4.4-0.9c1.5,0,2.8,0.3,4.2,0.8s2.5,1.3,3.5,2.3l-2.5,3c-0.8-0.6-1.6-1.1-2.4-1.5
		c-0.8-0.4-1.8-0.5-2.8-0.5c-1.1,0-1.9,0.2-2.5,0.7c-0.6,0.5-0.9,1.1-0.9,1.9c0,0.6,0.2,1,0.5,1.4c0.4,0.4,0.8,0.7,1.4,1
		s1.2,0.6,1.9,0.8l3.2,1.3c1,0.4,1.9,0.9,2.6,1.5c0.7,0.6,1.3,1.3,1.7,2.1c0.4,0.8,0.6,1.8,0.6,3c0,1.3-0.4,2.5-1.1,3.7
		c-0.7,1.1-1.7,2-3.1,2.7S964.2,495.3,962.3,495.3z"/>
	<path class="st24" d="M979.6,494.8v-20.4h-6.9v-4.1h18.6v4.1h-6.9v20.4H979.6z"/>
	<path class="st24" d="M990.5,494.8l7.8-24.5h5.8l7.8,24.5h-5.1l-3.5-12.7c-0.4-1.3-0.7-2.6-1.1-4s-0.7-2.7-1.1-4h-0.1
		c-0.3,1.3-0.6,2.7-1,4c-0.4,1.4-0.7,2.7-1.1,4l-3.5,12.7H990.5z M995.4,488.6v-3.8h11.6v3.8H995.4z"/>
	<path class="st24" d="M1014.8,494.8v-24.5h8.5c1.7,0,3.3,0.2,4.7,0.7c1.4,0.5,2.5,1.2,3.3,2.3c0.8,1.1,1.2,2.6,1.2,4.4
		c0,1.8-0.4,3.3-1.2,4.4c-0.8,1.2-1.9,2-3.3,2.5c-1.4,0.5-2.9,0.8-4.7,0.8h-3.6v9.2H1014.8z M1019.7,481.7h3.2c1.6,0,2.8-0.3,3.6-1
		c0.8-0.7,1.2-1.6,1.2-2.9c0-1.3-0.4-2.2-1.2-2.8s-2-0.8-3.6-0.8h-3.2V481.7z M1028.1,494.8l-5.7-10.5l3.4-3l7.7,13.5H1028.1z"/>
	<path class="st24" d="M1037.3,494.8v-24.5h4.9V481h0.1l8.1-10.6h5.4l-7.5,9.6l8.8,14.8h-5.3l-6.3-11l-3.2,4.1v6.9H1037.3z"/>
</g>
<g>
	<path class="st24" d="M773.1,538l-4.7-24.5h5l1.9,11.9c0.2,1.3,0.4,2.6,0.6,3.9c0.2,1.3,0.4,2.6,0.5,3.9h0.1
		c0.3-1.3,0.5-2.6,0.8-3.9c0.3-1.3,0.5-2.6,0.8-3.9l2.8-11.9h4.2l2.8,11.9c0.3,1.3,0.5,2.5,0.8,3.8c0.3,1.3,0.5,2.6,0.8,3.9h0.2
		c0.2-1.3,0.4-2.6,0.5-3.9c0.2-1.3,0.4-2.6,0.5-3.9l1.9-11.9h4.6l-4.5,24.5h-6.1l-2.7-12.1c-0.2-0.9-0.4-1.9-0.6-2.8
		c-0.2-0.9-0.3-1.9-0.5-2.8h-0.1c-0.2,0.9-0.4,1.9-0.5,2.8c-0.2,0.9-0.4,1.9-0.5,2.8L779,538H773.1z"/>
	<path class="st24" d="M803.3,538l-4.7-24.5h5l1.9,11.9c0.2,1.3,0.4,2.6,0.6,3.9c0.2,1.3,0.4,2.6,0.5,3.9h0.1
		c0.3-1.3,0.5-2.6,0.8-3.9c0.3-1.3,0.5-2.6,0.8-3.9l2.8-11.9h4.2l2.8,11.9c0.3,1.3,0.5,2.5,0.8,3.8c0.3,1.3,0.5,2.6,0.8,3.9h0.2
		c0.2-1.3,0.4-2.6,0.5-3.9c0.2-1.3,0.4-2.6,0.5-3.9l1.9-11.9h4.6L823,538h-6.1l-2.7-12.1c-0.2-0.9-0.4-1.9-0.6-2.8
		c-0.2-0.9-0.3-1.9-0.5-2.8H813c-0.2,0.9-0.4,1.9-0.5,2.8c-0.2,0.9-0.4,1.9-0.5,2.8l-2.7,12.1H803.3z"/>
	<path class="st24" d="M833.4,538l-4.7-24.5h5l1.9,11.9c0.2,1.3,0.4,2.6,0.6,3.9c0.2,1.3,0.4,2.6,0.5,3.9h0.1
		c0.3-1.3,0.5-2.6,0.8-3.9c0.3-1.3,0.5-2.6,0.8-3.9l2.8-11.9h4.2l2.8,11.9c0.3,1.3,0.5,2.5,0.8,3.8c0.3,1.3,0.5,2.6,0.8,3.9h0.2
		c0.2-1.3,0.4-2.6,0.5-3.9c0.2-1.3,0.4-2.6,0.5-3.9l1.9-11.9h4.6l-4.5,24.5h-6.1l-2.7-12.1c-0.2-0.9-0.4-1.9-0.6-2.8
		c-0.2-0.9-0.3-1.9-0.5-2.8h-0.1c-0.2,0.9-0.4,1.9-0.5,2.8c-0.2,0.9-0.4,1.9-0.5,2.8l-2.7,12.1H833.4z"/>
	<path class="st24" d="M862.2,538.5c-0.9,0-1.6-0.3-2.2-0.9c-0.6-0.6-0.9-1.4-0.9-2.2c0-0.9,0.3-1.7,0.9-2.3
		c0.6-0.6,1.3-0.9,2.2-0.9c0.9,0,1.6,0.3,2.1,0.9c0.6,0.6,0.9,1.4,0.9,2.3c0,0.9-0.3,1.6-0.9,2.2C863.7,538.2,863,538.5,862.2,538.5
		z"/>
	<path class="st24" d="M877.8,538.5c-1.6,0-3.2-0.3-4.8-0.9c-1.6-0.6-2.9-1.5-4.1-2.6l2.8-3.4c0.9,0.8,1.8,1.5,3,2
		c1.1,0.5,2.2,0.7,3.3,0.7c1.3,0,2.2-0.3,2.9-0.8c0.7-0.5,1-1.2,1-2c0-0.6-0.2-1.1-0.5-1.5c-0.3-0.4-0.8-0.7-1.3-1s-1.2-0.6-1.9-0.9
		l-3.2-1.4c-0.8-0.3-1.6-0.8-2.4-1.3c-0.8-0.6-1.4-1.3-1.9-2.1c-0.5-0.9-0.7-1.9-0.7-3.1c0-1.3,0.4-2.5,1.1-3.6
		c0.7-1.1,1.7-1.9,3-2.5s2.7-0.9,4.4-0.9c1.5,0,2.8,0.3,4.2,0.8c1.3,0.6,2.5,1.3,3.5,2.3l-2.5,3c-0.8-0.6-1.6-1.1-2.4-1.5
		c-0.8-0.4-1.8-0.5-2.8-0.5c-1.1,0-1.9,0.2-2.5,0.7s-0.9,1.1-0.9,1.9c0,0.6,0.2,1,0.5,1.4c0.4,0.4,0.8,0.7,1.4,1
		c0.6,0.3,1.2,0.6,1.9,0.8l3.2,1.3c1,0.4,1.9,0.9,2.6,1.5c0.7,0.6,1.3,1.3,1.7,2.1c0.4,0.8,0.6,1.8,0.6,3c0,1.3-0.4,2.5-1.1,3.7
		c-0.7,1.1-1.7,2-3.1,2.7S879.7,538.5,877.8,538.5z"/>
	<path class="st24" d="M900.8,538.5c-2.2,0-4.1-0.5-5.7-1.5c-1.6-1-2.9-2.5-3.8-4.4s-1.4-4.2-1.4-6.9c0-2.6,0.5-4.9,1.4-6.8
		c0.9-1.9,2.2-3.3,3.8-4.3c1.6-1,3.5-1.5,5.7-1.5c2.2,0,4.1,0.5,5.7,1.5c1.6,1,2.9,2.4,3.8,4.3c0.9,1.9,1.4,4.1,1.4,6.7
		c0,2.7-0.5,4.9-1.4,6.9c-0.9,1.9-2.2,3.4-3.8,4.4C904.9,538,903,538.5,900.8,538.5z M900.8,534.5c1.2,0,2.3-0.4,3.2-1.1
		s1.6-1.7,2.1-3c0.5-1.3,0.7-2.9,0.7-4.7c0-1.7-0.2-3.2-0.7-4.5s-1.2-2.2-2.1-2.9s-1.9-1-3.2-1c-1.2,0-2.3,0.3-3.2,1
		c-0.9,0.7-1.6,1.6-2,2.9s-0.7,2.7-0.7,4.5c0,1.8,0.2,3.4,0.7,4.7c0.5,1.3,1.2,2.3,2,3C898.5,534.2,899.6,534.5,900.8,534.5z
		 M908.7,544.7c-1.7,0-3.3-0.3-4.7-0.9c-1.4-0.6-2.5-1.4-3.5-2.4c-0.9-1-1.7-2.2-2.2-3.5l5-0.5c0.3,0.8,0.8,1.4,1.4,1.9
		c0.6,0.5,1.3,0.9,2.1,1.1c0.8,0.2,1.6,0.3,2.4,0.3c0.5,0,1,0,1.5-0.1c0.5-0.1,0.9-0.2,1.2-0.3l0.9,3.6c-0.4,0.2-1,0.4-1.7,0.5
		C910.4,544.6,909.6,544.7,908.7,544.7z"/>
	<path class="st24" d="M914,538v-2.9l11.4-17.4h-10.3v-4.1h16.3v2.9L920,533.9h11.5v4.1H914z"/>
	<path class="st24" d="M935.8,538v-24.5h6.7c2.5,0,4.7,0.4,6.5,1.3s3.2,2.2,4.2,4c1,1.8,1.5,4,1.5,6.8s-0.5,5-1.5,6.9
		c-1,1.8-2.3,3.2-4.1,4.1c-1.8,0.9-3.9,1.4-6.3,1.4H935.8z M940.7,534.1h1.5c1.5,0,2.9-0.3,4-0.8c1.1-0.6,2-1.5,2.6-2.7
		c0.6-1.2,0.9-2.9,0.9-4.8c0-2-0.3-3.6-0.9-4.8c-0.6-1.2-1.4-2.1-2.6-2.6c-1.1-0.5-2.4-0.8-4-0.8h-1.5V534.1z"/>
	<path class="st24" d="M969.1,538.5c-2.2,0-4.1-0.5-5.7-1.5c-1.6-1-2.9-2.5-3.8-4.4s-1.4-4.2-1.4-6.9c0-2.6,0.5-4.9,1.4-6.8
		c0.9-1.9,2.2-3.3,3.8-4.3c1.6-1,3.5-1.5,5.7-1.5c2.2,0,4.1,0.5,5.7,1.5c1.6,1,2.9,2.4,3.8,4.3c0.9,1.9,1.4,4.1,1.4,6.7
		c0,2.7-0.5,4.9-1.4,6.9c-0.9,1.9-2.2,3.4-3.8,4.4C973.2,538,971.3,538.5,969.1,538.5z M969.1,534.5c1.2,0,2.3-0.4,3.2-1.1
		c0.9-0.7,1.6-1.7,2.1-3c0.5-1.3,0.7-2.9,0.7-4.7c0-1.7-0.2-3.2-0.7-4.5c-0.5-1.2-1.2-2.2-2.1-2.9c-0.9-0.7-1.9-1-3.2-1
		c-1.2,0-2.3,0.3-3.2,1c-0.9,0.7-1.6,1.6-2,2.9c-0.5,1.2-0.7,2.7-0.7,4.5c0,1.8,0.2,3.4,0.7,4.7c0.5,1.3,1.2,2.3,2,3
		C966.8,534.2,967.9,534.5,969.1,534.5z M977,544.7c-1.7,0-3.3-0.3-4.7-0.9c-1.4-0.6-2.5-1.4-3.5-2.4c-0.9-1-1.7-2.2-2.2-3.5l5-0.5
		c0.3,0.8,0.8,1.4,1.4,1.9c0.6,0.5,1.3,0.9,2.1,1.1c0.8,0.2,1.6,0.3,2.4,0.3c0.5,0,1,0,1.5-0.1s0.9-0.2,1.2-0.3l0.9,3.6
		c-0.4,0.2-1,0.4-1.7,0.5C978.7,544.6,977.9,544.7,977,544.7z"/>
	<path class="st24" d="M984.8,538v-24.5h15v4.1h-10.2v6.4h8.7v4.1h-8.7v9.9H984.8z"/>
	<path class="st24" d="M999.3,538l7.8-24.5h5.8l7.8,24.5h-5.1l-3.5-12.7c-0.4-1.3-0.7-2.6-1.1-4c-0.3-1.4-0.7-2.7-1.1-4h-0.1
		c-0.3,1.3-0.6,2.7-1,4c-0.4,1.4-0.7,2.7-1.1,4l-3.5,12.7H999.3z M1004.2,531.8V528h11.6v3.8H1004.2z"/>
	<path class="st24" d="M1021.8,538v-2.9l11.4-17.4h-10.3v-4.1h16.3v2.9l-11.4,17.4h11.5v4.1H1021.8z"/>
	<path class="st24" d="M1045.6,538l-4.7-24.5h5l1.9,11.9c0.2,1.3,0.4,2.6,0.6,3.9c0.2,1.3,0.4,2.6,0.5,3.9h0.1
		c0.3-1.3,0.5-2.6,0.8-3.9c0.3-1.3,0.5-2.6,0.8-3.9l2.8-11.9h4.2l2.8,11.9c0.3,1.3,0.5,2.5,0.8,3.8c0.3,1.3,0.5,2.6,0.8,3.9h0.2
		c0.2-1.3,0.4-2.6,0.5-3.9c0.2-1.3,0.4-2.6,0.5-3.9l1.9-11.9h4.6l-4.5,24.5h-6.1l-2.7-12.1c-0.2-0.9-0.4-1.9-0.6-2.8
		c-0.2-0.9-0.3-1.9-0.5-2.8h-0.1c-0.2,0.9-0.4,1.9-0.5,2.8c-0.2,0.9-0.4,1.9-0.5,2.8l-2.7,12.1H1045.6z"/>
	<path class="st24" d="M1074.3,538.5c-0.9,0-1.6-0.3-2.2-0.9c-0.6-0.6-0.9-1.4-0.9-2.2c0-0.9,0.3-1.7,0.9-2.3s1.3-0.9,2.2-0.9
		c0.9,0,1.6,0.3,2.1,0.9c0.6,0.6,0.9,1.4,0.9,2.3c0,0.9-0.3,1.6-0.9,2.2C1075.9,538.2,1075.2,538.5,1074.3,538.5z"/>
	<path class="st24" d="M1092.6,538.5c-1.5,0-3-0.3-4.3-0.8s-2.5-1.3-3.5-2.4c-1-1.1-1.8-2.4-2.4-4c-0.6-1.6-0.9-3.4-0.9-5.4
		c0-2,0.3-3.8,0.9-5.4c0.6-1.6,1.4-2.9,2.5-4c1-1.1,2.3-1.9,3.6-2.5c1.4-0.6,2.8-0.9,4.4-0.9c1.6,0,3,0.3,4.2,0.9
		c1.2,0.6,2.2,1.4,3,2.2l-2.5,3.1c-0.6-0.6-1.3-1.1-2-1.5c-0.7-0.4-1.6-0.6-2.5-0.6c-1.2,0-2.3,0.3-3.3,1s-1.7,1.6-2.3,2.9
		c-0.6,1.3-0.8,2.8-0.8,4.5c0,1.8,0.3,3.3,0.8,4.6c0.5,1.3,1.3,2.2,2.2,2.9s2.1,1,3.3,1c1.1,0,2-0.2,2.8-0.7s1.6-1,2.2-1.7l2.6,3
		c-1,1.2-2.2,2.1-3.5,2.7C1095.7,538.2,1094.2,538.5,1092.6,538.5z"/>
	<path class="st24" d="M1112.6,538.5c-2.2,0-4.1-0.5-5.7-1.5c-1.6-1-2.9-2.5-3.8-4.4s-1.4-4.2-1.4-6.9c0-2.6,0.5-4.9,1.4-6.8
		c0.9-1.9,2.2-3.3,3.8-4.3s3.5-1.5,5.7-1.5c2.2,0,4.1,0.5,5.7,1.5s2.9,2.4,3.8,4.3c0.9,1.9,1.4,4.1,1.4,6.7c0,2.7-0.5,4.9-1.4,6.9
		s-2.2,3.4-3.8,4.4C1116.7,538,1114.8,538.5,1112.6,538.5z M1112.6,534.3c1.2,0,2.3-0.4,3.2-1.1c0.9-0.7,1.6-1.7,2.1-3
		c0.5-1.3,0.7-2.8,0.7-4.5c0-1.7-0.2-3.2-0.7-4.5c-0.5-1.2-1.2-2.2-2.1-2.9c-0.9-0.7-1.9-1-3.2-1s-2.3,0.3-3.2,1s-1.6,1.6-2,2.9
		c-0.5,1.2-0.7,2.7-0.7,4.5c0,1.7,0.2,3.2,0.7,4.5c0.5,1.3,1.2,2.3,2,3S1111.4,534.3,1112.6,534.3z"/>
	<path class="st24" d="M1128.3,538v-24.5h5.4l4.2,11.5c0.3,0.7,0.5,1.5,0.8,2.3c0.2,0.8,0.5,1.6,0.7,2.4h0.2
		c0.3-0.8,0.5-1.6,0.8-2.4c0.2-0.8,0.5-1.6,0.7-2.3l4.1-11.5h5.4V538h-4.5v-10.2c0-0.8,0-1.7,0.1-2.6c0.1-0.9,0.1-1.9,0.2-2.9
		s0.2-1.8,0.3-2.6h-0.1l-2,5.7l-3.8,10.3h-2.8l-3.8-10.3l-1.9-5.7h-0.1c0.1,0.7,0.2,1.6,0.3,2.6s0.2,1.9,0.2,2.9
		c0.1,0.9,0.1,1.8,0.1,2.6V538H1128.3z"/>
</g>
<g>
	<path class="st25" d="M870.1,91.6l7.8-24.5h5.8l7.8,24.5h-5.1l-3.5-12.7c-0.4-1.3-0.7-2.6-1.1-4c-0.3-1.4-0.7-2.7-1.1-4h-0.1
		c-0.3,1.3-0.6,2.7-1,4c-0.4,1.4-0.7,2.7-1.1,4L875,91.6H870.1z M874.9,85.3v-3.8h11.6v3.8H874.9z"/>
	<path class="st25" d="M903.1,92.1c-1.5,0-2.9-0.2-4-0.6c-1.2-0.4-2.2-1.1-3-2s-1.4-2.1-1.9-3.6c-0.4-1.5-0.6-3.2-0.6-5.2V67.2h4.9
		v13.9c0,1.7,0.2,3,0.6,4c0.4,1,0.9,1.7,1.6,2.1c0.7,0.4,1.5,0.6,2.5,0.6c1,0,1.8-0.2,2.5-0.6c0.7-0.4,1.2-1.1,1.6-2.1
		c0.4-1,0.6-2.3,0.6-4V67.2h4.7v13.5c0,2-0.2,3.8-0.6,5.2c-0.4,1.5-1,2.6-1.8,3.6s-1.8,1.6-3,2C905.9,91.9,904.6,92.1,903.1,92.1z"
		/>
	<path class="st25" d="M928.9,92.1c-2.2,0-4.2-0.5-6-1.5c-1.8-1-3.2-2.4-4.2-4.3c-1-1.9-1.6-4.2-1.6-6.9c0-2,0.3-3.8,0.9-5.4
		c0.6-1.6,1.4-2.9,2.5-4c1.1-1.1,2.3-1.9,3.7-2.5c1.4-0.6,2.9-0.9,4.6-0.9c1.8,0,3.3,0.3,4.5,1c1.2,0.6,2.3,1.4,3.1,2.2l-2.6,3.1
		c-0.6-0.6-1.3-1.1-2-1.5c-0.7-0.4-1.7-0.6-2.8-0.6c-1.4,0-2.6,0.3-3.6,1c-1,0.7-1.8,1.6-2.4,2.9s-0.9,2.8-0.9,4.5
		c0,1.8,0.3,3.3,0.8,4.6c0.5,1.3,1.3,2.2,2.4,2.9c1.1,0.7,2.4,1,4,1c0.6,0,1.2-0.1,1.7-0.2c0.5-0.2,1-0.4,1.3-0.7v-4.8h-4.3v-4h8.7
		v11c-0.8,0.8-1.9,1.5-3.3,2.1C932.1,91.8,930.6,92.1,928.9,92.1z"/>
	<path class="st25" d="M949.2,91.6v-4h5.3V72.9h-4.5v-3c1.2-0.2,2.3-0.5,3.2-0.9c0.9-0.3,1.7-0.7,2.5-1.2h3.6v19.8h4.6v4H949.2z"/>
	<path class="st25" d="M974.3,92.1c-1.5,0-2.8-0.3-3.9-0.8c-1.1-0.5-2-1.2-2.7-1.9l2.6-2.9c0.4,0.5,1,0.9,1.7,1.3
		c0.7,0.3,1.4,0.5,2.1,0.5c1,0,1.9-0.3,2.7-0.8c0.8-0.6,1.4-1.5,1.9-2.8c0.5-1.3,0.7-3.1,0.7-5.4c0-2-0.2-3.6-0.6-4.7
		c-0.4-1.2-0.9-2-1.5-2.5c-0.6-0.5-1.4-0.8-2.2-0.8c-0.6,0-1.1,0.2-1.7,0.5s-0.9,0.8-1.2,1.4s-0.4,1.4-0.4,2.4
		c0,0.9,0.1,1.6,0.4,2.2s0.7,1,1.2,1.3c0.5,0.3,1.1,0.4,1.8,0.4c0.7,0,1.4-0.2,2.1-0.6c0.7-0.4,1.4-1.1,2-2.1l0.2,3.3
		c-0.4,0.6-0.9,1.1-1.6,1.6c-0.6,0.4-1.2,0.8-1.9,1c-0.6,0.2-1.2,0.4-1.8,0.4c-1.4,0-2.6-0.3-3.6-0.8c-1.1-0.5-1.9-1.3-2.5-2.4
		c-0.6-1.1-0.9-2.5-0.9-4.1c0-1.6,0.4-3,1.1-4.2c0.7-1.2,1.6-2.1,2.8-2.7c1.2-0.6,2.4-1,3.8-1c1.2,0,2.3,0.2,3.3,0.7
		c1,0.5,2,1.2,2.8,2.1c0.8,0.9,1.5,2.2,1.9,3.6c0.5,1.5,0.7,3.2,0.7,5.3c0,2.3-0.3,4.2-0.8,5.9c-0.5,1.6-1.2,3-2.1,4
		c-0.9,1.1-1.9,1.8-3.1,2.3S975.5,92.1,974.3,92.1z"/>
	<path class="st25" d="M1005.9,82.5c-0.7,0-1.4-0.1-2-0.4c-0.6-0.3-1.1-0.6-1.6-1c-0.5-0.4-1-0.7-1.4-1s-0.9-0.4-1.5-0.4
		c-0.5,0-1,0.2-1.5,0.6s-0.9,0.9-1.3,1.6l-2.5-1.9c0.9-1.4,1.7-2.3,2.7-2.9c0.9-0.6,1.8-0.8,2.7-0.8c0.8,0,1.4,0.1,2,0.4
		c0.6,0.3,1.1,0.6,1.6,1c0.5,0.4,1,0.7,1.4,1s0.9,0.4,1.5,0.4c0.5,0,1-0.2,1.5-0.5c0.5-0.4,0.9-0.9,1.3-1.6l2.6,1.9
		c-0.9,1.3-1.7,2.3-2.7,2.9C1007.7,82.2,1006.8,82.5,1005.9,82.5z"/>
	<path class="st25" d="M1013.8,91.6v-2.8c2.1-2,4-3.9,5.5-5.5c1.6-1.6,2.8-3.1,3.7-4.5s1.3-2.6,1.3-3.8c0-0.8-0.1-1.5-0.4-2.1
		c-0.3-0.6-0.7-1-1.2-1.3s-1.2-0.5-2-0.5c-0.9,0-1.7,0.3-2.4,0.8c-0.7,0.5-1.4,1.1-2,1.7l-2.7-2.6c1.1-1.2,2.3-2.1,3.5-2.8
		c1.2-0.6,2.6-0.9,4.3-0.9c1.5,0,2.9,0.3,4,0.9c1.2,0.6,2.1,1.5,2.7,2.6c0.6,1.1,1,2.4,1,3.9c0,1.4-0.4,2.8-1.1,4.2
		c-0.8,1.4-1.8,2.9-3,4.3c-1.2,1.5-2.6,3-4.1,4.5c0.6-0.1,1.3-0.2,2-0.2c0.7-0.1,1.4-0.1,2-0.1h5.3v4.1H1013.8z"/>
	<path class="st25" d="M1041.6,92.1c-1.7,0-3.1-0.5-4.4-1.4s-2.2-2.4-2.9-4.2c-0.7-1.8-1-4.1-1-6.8c0-2.7,0.3-5,1-6.8
		c0.7-1.8,1.6-3.2,2.9-4.1c1.2-0.9,2.7-1.4,4.4-1.4s3.1,0.5,4.4,1.4c1.2,0.9,2.2,2.3,2.9,4.1c0.7,1.8,1,4.1,1,6.8c0,2.7-0.3,5-1,6.8
		c-0.7,1.8-1.6,3.3-2.9,4.2S1043.3,92.1,1041.6,92.1z M1041.6,88.3c0.7,0,1.4-0.3,1.9-0.8c0.5-0.5,1-1.4,1.3-2.7
		c0.3-1.3,0.5-3,0.5-5.2c0-2.2-0.2-3.9-0.5-5.2c-0.3-1.2-0.7-2.1-1.3-2.6c-0.6-0.5-1.2-0.7-1.9-0.7c-0.7,0-1.3,0.2-1.9,0.7
		c-0.6,0.5-1,1.3-1.3,2.6c-0.3,1.2-0.5,3-0.5,5.2c0,2.2,0.2,3.9,0.5,5.2c0.3,1.3,0.8,2.2,1.3,2.7C1040.3,88,1040.9,88.3,1041.6,88.3
		z"/>
</g>
<g>
	
		<use xlink:href="#New_Symbol_1"  width="106.5" height="106.5" x="-53.2" y="-53.2" transform="matrix(0.6411 0.5964 0.5964 -0.6411 372.6247 442.1514)" style="overflow:visible;opacity:0.3556;"/>
	
		<use xlink:href="#New_Symbol_1"  width="106.5" height="106.5" x="-53.2" y="-53.2" transform="matrix(0.3268 -0.7141 -0.7141 -0.3268 1433.8772 139.8119)" style="overflow:visible;opacity:0.7953;"/>
	
		<use xlink:href="#New_Symbol_1"  width="106.5" height="106.5" x="-53.2" y="-53.2" transform="matrix(0.4323 -0.4447 -0.4447 -0.4323 1727.9312 514.6926)" style="overflow:visible;opacity:0.3911;"/>
</g>
<g>
	<path class="st25" d="M497.7,341V118.7h49.2l37.8,104.4c2.4,6.6,4.7,13.6,6.9,20.9c2.2,7.3,4.4,14.5,6.6,21.4h1.5
		c2.4-7,4.7-14.1,6.9-21.4c2.2-7.3,4.3-14.2,6.3-20.9l37.2-104.4h49.2V341h-40.5v-92.7c0-7.2,0.3-15.1,0.9-23.7
		c0.6-8.6,1.3-17.2,2.2-26c0.9-8.7,1.7-16.4,2.5-23.2h-1.2L645,227.6l-34.2,93.3h-25.5l-34.5-93.3l-17.7-52.2h-1.2
		c0.8,6.8,1.6,14.6,2.4,23.2c0.8,8.7,1.5,17.4,2.2,26c0.7,8.6,1.1,16.5,1.1,23.7V341H497.7z"/>
	<path class="st25" d="M839.1,345.2c-13.8,0-26-2-36.6-5.9c-10.6-3.9-19.7-10-27.2-18.4c-7.5-8.4-13.2-19.2-16.9-32.4
		c-3.8-13.2-5.7-29-5.7-47.4V118.7h44.1V245c0,15.4,1.7,27.6,5.1,36.6c3.4,9,8.2,15.4,14.5,19.4c6.3,3.9,13.8,5.8,22.6,5.8
		c8.8,0,16.4-2,22.8-5.8c6.4-3.9,11.3-10.4,14.8-19.4c3.5-9,5.2-21.2,5.2-36.6V118.7h42.6v122.4c0,18.4-1.9,34.2-5.7,47.4
		c-3.8,13.2-9.4,24-16.8,32.4c-7.4,8.4-16.4,14.5-27,18.4C864.5,343.2,852.5,345.2,839.1,345.2z"/>
	<path class="st25" d="M1039.2,345.2c-14.8,0-29.3-2.8-43.5-8.4c-14.2-5.6-26.7-13.6-37.5-24l25.5-30.6c7.8,7.4,16.7,13.3,26.9,17.8
		c10.1,4.5,19.9,6.8,29.5,6.8c11.6,0,20.4-2.3,26.4-6.9c6-4.6,9-10.8,9-18.6c0-5.6-1.5-10-4.3-13.3c-2.9-3.3-6.9-6.2-11.8-8.9
		c-5-2.6-10.8-5.2-17.4-7.8l-29.4-12.9c-7.4-3-14.5-7-21.4-12.1c-6.9-5.1-12.6-11.5-17.1-19.4c-4.5-7.8-6.8-17.1-6.8-27.9
		c0-12.2,3.3-23.1,9.9-32.7c6.6-9.6,15.7-17.2,27.3-22.9c11.6-5.7,24.8-8.6,39.6-8.6c13.2,0,25.9,2.5,38.1,7.5
		c12.2,5,22.8,12.1,31.8,21.3l-22.5,27.6c-7-5.8-14.3-10.3-21.9-13.5c-7.6-3.2-16.1-4.8-25.5-4.8c-9.6,0-17.2,2.1-22.9,6.1
		c-5.7,4.1-8.6,9.9-8.6,17.2c0,5.2,1.6,9.5,4.8,12.9c3.2,3.4,7.4,6.4,12.6,8.8c5.2,2.5,10.9,5.1,17.1,7.7l29.1,11.7
		c9,3.6,16.8,8.1,23.5,13.5c6.7,5.4,11.9,11.9,15.6,19.5c3.7,7.6,5.6,16.8,5.6,27.6c0,12-3.3,23.1-9.8,33.3
		c-6.5,10.2-15.8,18.4-27.9,24.6C1071,342.1,1056.4,345.2,1039.2,345.2z"/>
	<path class="st25" d="M1160.1,341V118.7h44.4V341H1160.1z"/>
	<path class="st25" d="M1349.4,345.2c-14,0-27.1-2.5-39.3-7.4c-12.2-4.9-22.9-12.2-32.2-22c-9.3-9.8-16.6-21.8-21.9-36
		c-5.3-14.2-8-30.5-8-48.9c0-18.4,2.7-34.7,8.1-49c5.4-14.3,12.8-26.4,22.4-36.5c9.5-10,20.5-17.6,33-22.8
		c12.5-5.2,25.7-7.8,39.8-7.8c14.2,0,26.8,2.9,37.9,8.6c11.1,5.7,20.1,12.4,27.2,19.9l-23.1,28.2c-5.6-5.6-11.8-10.1-18.5-13.5
		c-6.7-3.4-14.2-5.1-22.7-5.1c-11.2,0-21.3,3.1-30.1,9.1c-8.9,6.1-15.9,14.9-20.9,26.2c-5,11.4-7.5,25.1-7.5,41.1
		c0,16.2,2.3,30.1,7.1,41.6c4.7,11.5,11.4,20.4,20.1,26.5c8.7,6.2,18.8,9.3,30.5,9.3c9.6,0,18.1-2,25.6-6.1
		c7.5-4.1,14.1-9.3,20-15.8l23.7,27.6c-9.2,10.8-19.7,19-31.5,24.5C1377.2,342.4,1364,345.2,1349.4,345.2z"/>
</g>
<g class="st26">
	<path class="st25" d="M495.7,360.1V137.8h49.2l37.8,104.4c2.4,6.6,4.7,13.6,6.9,20.9c2.2,7.3,4.4,14.5,6.6,21.4h1.5
		c2.4-7,4.7-14.1,6.9-21.4c2.2-7.3,4.3-14.2,6.3-20.9l37.2-104.4h49.2v222.3h-40.5v-92.7c0-7.2,0.3-15.1,0.9-23.7
		c0.6-8.6,1.3-17.2,2.2-26c0.9-8.7,1.7-16.4,2.5-23.2h-1.2L643,246.7L608.8,340h-25.5l-34.5-93.3l-17.7-52.2h-1.2
		c0.8,6.8,1.6,14.6,2.4,23.2c0.8,8.7,1.5,17.4,2.2,26c0.7,8.6,1.1,16.5,1.1,23.7v92.7H495.7z"/>
	<path class="st25" d="M837.1,364.3c-13.8,0-26-2-36.6-5.8c-10.6-3.9-19.7-10.1-27.2-18.5c-7.5-8.4-13.2-19.2-16.9-32.4
		c-3.8-13.2-5.7-29-5.7-47.4V137.8h44.1v126.3c0,15.4,1.7,27.6,5.1,36.6c3.4,9,8.2,15.4,14.5,19.4s13.8,5.8,22.6,5.8
		c8.8,0,16.4-1.9,22.8-5.8c6.4-3.9,11.3-10.3,14.8-19.4c3.5-9,5.2-21.2,5.2-36.6V137.8h42.6v122.4c0,18.4-1.9,34.2-5.7,47.4
		c-3.8,13.2-9.4,24-16.8,32.4c-7.4,8.4-16.4,14.5-27,18.5C862.5,362.3,850.5,364.3,837.1,364.3z"/>
	<path class="st25" d="M1037.2,364.3c-14.8,0-29.3-2.8-43.5-8.4c-14.2-5.6-26.7-13.6-37.5-24l25.5-30.6c7.8,7.4,16.7,13.3,26.9,17.8
		c10.1,4.5,19.9,6.8,29.5,6.8c11.6,0,20.4-2.3,26.4-6.9c6-4.6,9-10.8,9-18.6c0-5.6-1.5-10-4.3-13.3c-2.9-3.3-6.9-6.2-11.8-8.9
		c-5-2.6-10.8-5.2-17.4-7.8l-29.4-12.9c-7.4-3-14.5-7-21.4-12.1c-6.9-5.1-12.6-11.5-17.1-19.4c-4.5-7.8-6.8-17.1-6.8-27.9
		c0-12.2,3.3-23.1,9.9-32.7c6.6-9.6,15.7-17.2,27.3-22.9c11.6-5.7,24.8-8.6,39.6-8.6c13.2,0,25.9,2.5,38.1,7.5
		c12.2,5,22.8,12.1,31.8,21.3l-22.5,27.6c-7-5.8-14.3-10.3-21.9-13.5c-7.6-3.2-16.1-4.8-25.5-4.8c-9.6,0-17.2,2.1-22.9,6.1
		c-5.7,4.1-8.6,9.9-8.6,17.2c0,5.2,1.6,9.5,4.8,12.9c3.2,3.4,7.4,6.4,12.6,8.8c5.2,2.5,10.9,5.1,17.1,7.7l29.1,11.7
		c9,3.6,16.8,8.1,23.5,13.5c6.7,5.4,11.9,11.9,15.6,19.5c3.7,7.6,5.6,16.8,5.6,27.6c0,12-3.3,23.1-9.8,33.3
		c-6.5,10.2-15.8,18.4-27.9,24.6C1069,361.2,1054.4,364.3,1037.2,364.3z"/>
	<path class="st25" d="M1158.1,360.1V137.8h44.4v222.3H1158.1z"/>
	<path class="st25" d="M1347.4,364.3c-14,0-27.1-2.5-39.3-7.3c-12.2-4.9-22.9-12.2-32.2-22.1c-9.3-9.8-16.6-21.8-21.9-36
		c-5.3-14.2-8-30.5-8-48.9c0-18.4,2.7-34.7,8.1-49c5.4-14.3,12.8-26.4,22.4-36.5c9.5-10,20.5-17.6,33-22.8
		c12.5-5.2,25.7-7.8,39.8-7.8c14.2,0,26.8,2.9,37.9,8.6c11.1,5.7,20.1,12.4,27.2,19.9l-23.1,28.2c-5.6-5.6-11.8-10.1-18.5-13.5
		c-6.7-3.4-14.2-5.1-22.7-5.1c-11.2,0-21.3,3.1-30.1,9.1c-8.9,6.1-15.9,14.9-20.9,26.2c-5,11.4-7.5,25.1-7.5,41.1
		c0,16.2,2.3,30.1,7.1,41.6c4.7,11.5,11.4,20.4,20.1,26.5c8.7,6.2,18.8,9.3,30.5,9.3c9.6,0,18.1-2,25.6-6.1
		c7.5-4.1,14.1-9.3,20-15.8l23.7,27.6c-9.2,10.8-19.7,19-31.5,24.5C1375.2,361.5,1362,364.3,1347.4,364.3z"/>
</g>
<g class="st27">
	<path class="st25" d="M728.9,434V322.8h36.4c8.2,0,15.6,1.1,22.1,3.3c6.5,2.2,11.8,5.8,15.6,10.9c3.8,5.1,5.8,12,5.8,20.8
		c0,8.4-1.9,15.3-5.8,20.8c-3.9,5.5-9,9.5-15.5,12.1c-6.5,2.6-13.7,3.9-21.7,3.9h-14.9V434H728.9z M751.1,377h13.4
		c7.6,0,13.3-1.6,17-4.8c3.8-3.2,5.6-8,5.6-14.4c0-6.4-2-10.9-5.9-13.4c-4-2.5-9.8-3.8-17.5-3.8h-12.6V377z"/>
	<path class="st25" d="M805.4,434l35.5-111.2h26.2L902.7,434h-23.4l-15.8-57.9c-1.7-5.8-3.3-11.8-4.9-18.1
		c-1.6-6.2-3.2-12.3-4.9-18.2h-0.6c-1.4,6-2.9,12.1-4.6,18.3c-1.6,6.2-3.3,12.2-4.9,18L827.9,434H805.4z M827.4,405.5v-17.2h52.8
		v17.2H827.4z"/>
	<path class="st25" d="M915.8,434V322.8h38.5c7.9,0,15,1,21.3,3.1c6.3,2.1,11.3,5.5,15,10.5c3.7,5,5.5,11.7,5.5,20.2
		c0,8.2-1.9,14.9-5.5,20.2c-3.7,5.2-8.7,9.1-15,11.5c-6.3,2.5-13.4,3.7-21.3,3.7H938v42H915.8z M938,374.5h14.4
		c7.2,0,12.7-1.5,16.4-4.5s5.6-7.4,5.6-13.4c0-6-1.9-10.2-5.6-12.5c-3.8-2.3-9.2-3.5-16.4-3.5H938V374.5z M976.1,434l-25.8-47.7
		l15.6-13.8L1001,434H976.1z"/>
	<path class="st25" d="M1036.4,434v-92.5h-31.2v-18.6h84.8v18.6h-31.3V434H1036.4z"/>
	<path class="st25" d="M1123.2,434v-40.7l-33.5-70.5h23.6l11.1,27.2c1.6,4.2,3.2,8.3,4.7,12.2c1.5,4,3.2,8.1,4.9,12.4h0.6
		c1.7-4.3,3.4-8.4,5-12.4c1.7-3.9,3.3-8,4.9-12.2l11.1-27.2h23.1l-33.5,70.5V434H1123.2z"/>
</g>
<g>
	
		<use xlink:href="#New_Symbol_2"  width="57.3" height="18.6" x="-28.7" y="-9.3" transform="matrix(0.2858 1.4507 1.4507 -0.2858 436.5179 126.324)" style="overflow:visible;opacity:0.4172;"/>
	
		<use xlink:href="#New_Symbol_2"  width="57.3" height="18.6" x="-28.7" y="-9.3" transform="matrix(-1.1157 -0.4259 -0.4259 1.1157 1390.3408 427.8417)" style="overflow:visible;"/>
	
		<use xlink:href="#New_Symbol_2"  width="57.3" height="18.6" x="-28.7" y="-9.3" transform="matrix(8.343583e-02 -0.7795 -0.7795 -8.343583e-02 57.362 117.4155)" style="overflow:visible;opacity:0.2346;"/>
	
		<use xlink:href="#New_Symbol_2"  width="57.3" height="18.6" x="-28.7" y="-9.3" transform="matrix(1.9003 -0.78 -0.78 -1.9003 1752.1471 224.6361)" style="overflow:visible;opacity:0.5264;"/>
</g>
<g>
	
		<use xlink:href="#New_Symbol_3"  width="61.7" height="142" x="-30.8" y="-71" transform="matrix(0.668 -0.6336 -0.6336 -0.668 186.7099 277.5396)" style="overflow:visible;opacity:0.3183;"/>
	
		<use xlink:href="#New_Symbol_3"  width="61.7" height="142" x="-30.8" y="-71" transform="matrix(0.5797 0.2366 0.2366 -0.5797 1827.4103 101.3833)" style="overflow:visible;opacity:0.3663;"/>
	
		<use xlink:href="#New_Symbol_3"  width="61.7" height="142" x="-30.8" y="-71" transform="matrix(-1.952693e-02 0.2919 0.2919 1.952693e-02 1329.0352 555.9283)" style="overflow:visible;"/>
</g>
</svg>
